<svg xmlns="http://www.w3.org/2000/svg" xmlns:xlink="http://www.w3.org/1999/xlink" width="500" zoomAndPan="magnify" viewBox="0 0 375 374.999991" height="500" preserveAspectRatio="xMidYMid meet" version="1.0"><defs><clipPath id="2ce1a7c23b"><path d="M 78 44.0625 L 275 44.0625 L 275 242 L 78 242 Z M 78 44.0625 " clip-rule="nonzero"/></clipPath></defs><path fill="#404041" d="M 364.289062 74.9375 L 329.871094 74.9375 C 328.726562 74.941406 327.605469 75.121094 326.515625 75.472656 C 325.421875 75.824219 324.410156 76.332031 323.476562 77 C 322.542969 77.667969 321.730469 78.460938 321.046875 79.378906 C 320.359375 80.300781 319.828125 81.300781 319.453125 82.386719 L 307.988281 118.558594 L 264.265625 118.558594 C 258.601562 127.976562 251.789062 136.46875 243.828125 144.039062 C 226.347656 160.617188 208.167969 175.917969 190.945312 190.222656 C 191.03125 194.425781 191.105469 198.644531 191.175781 202.847656 C 191.277344 208.121094 191.363281 213.394531 191.480469 218.6875 C 191.53125 219.816406 191.445312 220.941406 191.226562 222.050781 C 191.003906 223.164062 190.652344 224.230469 190.171875 225.257812 C 189.691406 226.285156 189.097656 227.238281 188.386719 228.117188 C 187.675781 229 186.867188 229.78125 185.964844 230.46875 C 181.007812 234.332031 176.054688 238.195312 171.117188 242.0625 L 163.980469 247.683594 C 161.996094 249.371094 159.710938 250.335938 157.121094 250.582031 C 155.671875 250.671875 148.160156 250.582031 146.105469 241.207031 C 145.484375 238.394531 144.90625 235.582031 144.328125 232.773438 C 143.617188 229.351562 142.878906 225.859375 142.125 222.410156 C 141.375 222.757812 140.679688 223.105469 139.96875 223.46875 C 137.839844 224.640625 135.5625 225.3125 133.140625 225.484375 C 131.421875 225.589844 129.738281 225.398438 128.085938 224.917969 C 116.550781 234.945312 104.234375 243.898438 91.136719 251.773438 C 95.386719 254.078125 99.925781 255.230469 104.757812 255.234375 L 264.570312 255.234375 L 254.335938 287.496094 L 112.847656 287.496094 C 112.101562 287.46875 111.363281 287.515625 110.628906 287.636719 C 109.894531 287.761719 109.179688 287.953125 108.484375 288.222656 C 107.789062 288.488281 107.125 288.820312 106.496094 289.222656 C 105.867188 289.621094 105.285156 290.082031 104.75 290.597656 C 104.214844 291.117188 103.734375 291.683594 103.3125 292.296875 C 102.890625 292.910156 102.535156 293.5625 102.242188 294.246094 C 101.953125 294.933594 101.730469 295.644531 101.582031 296.375 C 101.433594 297.105469 101.359375 297.84375 101.359375 298.589844 C 101.359375 299.332031 101.433594 300.074219 101.582031 300.804688 C 101.730469 301.535156 101.953125 302.242188 102.242188 302.929688 C 102.535156 303.613281 102.890625 304.265625 103.3125 304.878906 C 103.734375 305.496094 104.214844 306.058594 104.75 306.578125 C 105.285156 307.097656 105.867188 307.554688 106.496094 307.957031 C 107.125 308.355469 107.789062 308.6875 108.484375 308.957031 C 109.179688 309.222656 109.894531 309.417969 110.628906 309.539062 C 111.363281 309.660156 112.101562 309.707031 112.847656 309.683594 L 113.035156 309.683594 C 113.054688 310.367188 113.105469 311.050781 113.1875 311.730469 C 113.273438 312.410156 113.386719 313.082031 113.535156 313.753906 C 113.683594 314.421875 113.867188 315.082031 114.078125 315.734375 C 114.289062 316.382812 114.535156 317.023438 114.808594 317.652344 C 115.082031 318.277344 115.386719 318.890625 115.71875 319.492188 C 116.054688 320.089844 116.414062 320.667969 116.804688 321.234375 C 117.191406 321.796875 117.609375 322.339844 118.050781 322.863281 C 118.492188 323.386719 118.957031 323.886719 119.449219 324.363281 C 119.9375 324.84375 120.449219 325.296875 120.984375 325.726562 C 121.519531 326.152344 122.070312 326.554688 122.644531 326.929688 C 123.21875 327.304688 123.804688 327.652344 124.414062 327.96875 C 125.019531 328.289062 125.636719 328.578125 126.273438 328.835938 C 126.90625 329.09375 127.550781 329.320312 128.207031 329.515625 C 128.863281 329.710938 129.527344 329.875 130.199219 330.007812 C 130.871094 330.136719 131.546875 330.234375 132.226562 330.300781 C 132.90625 330.367188 133.589844 330.402344 134.273438 330.402344 C 134.960938 330.402344 135.640625 330.367188 136.324219 330.300781 C 137.003906 330.234375 137.679688 330.136719 138.351562 330.007812 C 139.023438 329.875 139.6875 329.710938 140.34375 329.515625 C 141 329.320312 141.644531 329.09375 142.277344 328.835938 C 142.910156 328.578125 143.53125 328.289062 144.136719 327.96875 C 144.742188 327.652344 145.332031 327.304688 145.90625 326.929688 C 146.476562 326.554688 147.03125 326.152344 147.566406 325.726562 C 148.097656 325.296875 148.609375 324.84375 149.101562 324.363281 C 149.589844 323.886719 150.058594 323.386719 150.5 322.863281 C 150.941406 322.339844 151.355469 321.796875 151.746094 321.234375 C 152.136719 320.667969 152.496094 320.089844 152.828125 319.492188 C 153.164062 318.890625 153.46875 318.277344 153.742188 317.652344 C 154.015625 317.023438 154.257812 316.382812 154.472656 315.734375 C 154.683594 315.082031 154.863281 314.421875 155.011719 313.753906 C 155.160156 313.082031 155.277344 312.410156 155.363281 311.730469 C 155.445312 311.050781 155.496094 310.367188 155.515625 309.683594 L 221.382812 309.683594 C 221.382812 310.378906 221.421875 311.074219 221.492188 311.765625 C 221.5625 312.460938 221.664062 313.148438 221.804688 313.832031 C 221.941406 314.515625 222.113281 315.1875 222.316406 315.855469 C 222.523438 316.519531 222.757812 317.175781 223.027344 317.816406 C 223.296875 318.460938 223.59375 319.089844 223.925781 319.703125 C 224.253906 320.316406 224.613281 320.910156 225.003906 321.488281 C 225.390625 322.066406 225.808594 322.625 226.25 323.160156 C 226.695312 323.699219 227.164062 324.214844 227.65625 324.703125 C 228.148438 325.195312 228.667969 325.660156 229.207031 326.101562 C 229.746094 326.539062 230.304688 326.953125 230.882812 327.339844 C 231.464844 327.722656 232.0625 328.078125 232.675781 328.40625 C 233.292969 328.730469 233.921875 329.027344 234.5625 329.292969 C 235.207031 329.554688 235.863281 329.789062 236.53125 329.988281 C 237.195312 330.1875 237.871094 330.355469 238.554688 330.488281 C 239.238281 330.621094 239.925781 330.722656 240.617188 330.789062 C 241.3125 330.855469 242.003906 330.886719 242.699219 330.882812 C 243.398438 330.882812 244.089844 330.84375 244.78125 330.773438 C 245.476562 330.703125 246.164062 330.597656 246.84375 330.460938 C 247.527344 330.324219 248.199219 330.152344 248.863281 329.945312 C 249.53125 329.742188 250.183594 329.503906 250.824219 329.238281 C 251.46875 328.96875 252.09375 328.667969 252.707031 328.335938 C 253.320312 328.007812 253.914062 327.648438 254.492188 327.257812 C 255.070312 326.871094 255.625 326.453125 256.164062 326.007812 C 256.699219 325.566406 257.210938 325.097656 257.703125 324.601562 C 258.195312 324.105469 258.660156 323.589844 259.097656 323.050781 C 259.539062 322.507812 259.949219 321.949219 260.335938 321.367188 C 260.71875 320.789062 261.074219 320.191406 261.398438 319.574219 C 261.726562 318.957031 262.019531 318.328125 262.285156 317.683594 C 262.550781 317.039062 262.78125 316.382812 262.980469 315.714844 C 263.179688 315.046875 263.347656 314.371094 263.480469 313.6875 C 263.613281 313.003906 263.714844 312.316406 263.78125 311.621094 C 263.84375 310.929688 263.878906 310.234375 263.875 309.535156 C 264.882812 309.402344 265.851562 309.136719 266.785156 308.734375 C 267.71875 308.332031 268.582031 307.8125 269.371094 307.175781 C 270.160156 306.535156 270.851562 305.800781 271.4375 304.972656 C 272.027344 304.140625 272.492188 303.25 272.832031 302.289062 L 337.964844 97.183594 L 364.289062 97.183594 C 365 97.160156 365.703125 97.066406 366.394531 96.90625 C 367.085938 96.742188 367.757812 96.519531 368.40625 96.226562 C 369.058594 95.9375 369.671875 95.589844 370.253906 95.179688 C 370.835938 94.769531 371.375 94.308594 371.867188 93.796875 C 372.363281 93.285156 372.804688 92.730469 373.191406 92.132812 C 373.578125 91.535156 373.902344 90.90625 374.167969 90.246094 C 374.4375 89.585938 374.636719 88.90625 374.773438 88.207031 C 374.90625 87.507812 374.976562 86.800781 374.976562 86.089844 C 374.976562 85.378906 374.90625 84.671875 374.773438 83.972656 C 374.636719 83.273438 374.4375 82.59375 374.167969 81.933594 C 373.902344 81.273438 373.578125 80.644531 373.191406 80.050781 C 372.804688 79.453125 372.363281 78.898438 371.867188 78.382812 C 371.375 77.871094 370.835938 77.410156 370.253906 77.003906 C 369.671875 76.59375 369.058594 76.242188 368.40625 75.953125 C 367.757812 75.664062 367.085938 75.4375 366.394531 75.277344 C 365.703125 75.117188 365 75.023438 364.289062 74.996094 Z M 364.289062 74.9375 " fill-opacity="1" fill-rule="nonzero"/><path fill="#404041" d="M 77.578125 235.933594 C 79.066406 240.234375 81.445312 243.964844 84.710938 247.132812 C 97.257812 239.136719 109.078125 230.175781 120.171875 220.25 C 116.351562 217.4375 112.707031 214.40625 109.242188 211.164062 L 109.097656 211.003906 C 105.601562 207.339844 102.339844 203.476562 99.316406 199.410156 L 97.867188 197.527344 C 97.398438 196.929688 96.976562 196.300781 96.601562 195.636719 C 96.226562 194.976562 95.902344 194.292969 95.625 193.585938 C 95.351562 192.875 95.132812 192.148438 94.964844 191.410156 C 94.796875 190.667969 94.683594 189.917969 94.625 189.160156 C 94.570312 188.398438 94.570312 187.640625 94.625 186.882812 C 94.679688 186.125 94.789062 185.375 94.953125 184.632812 C 95.117188 183.890625 95.339844 183.164062 95.609375 182.457031 C 95.882812 181.746094 96.207031 181.058594 96.578125 180.398438 C 96.941406 179.703125 97.289062 178.949219 97.636719 178.222656 C 94.175781 177.46875 90.6875 176.773438 87.289062 176.066406 C 84.394531 175.484375 81.65625 174.921875 78.851562 174.3125 C 74.320312 173.339844 71.351562 171.007812 70.035156 167.371094 C 68.71875 163.730469 69.472656 160.050781 72.292969 156.429688 L 77.867188 149.195312 C 81.726562 144.210938 85.585938 139.210938 89.445312 134.195312 C 90.054688 133.382812 90.746094 132.644531 91.519531 131.984375 C 92.292969 131.320312 93.128906 130.75 94.027344 130.273438 C 94.921875 129.792969 95.863281 129.417969 96.84375 129.148438 C 97.824219 128.875 98.820312 128.714844 99.835938 128.660156 C 100.269531 128.660156 100.71875 128.660156 101.183594 128.660156 C 106.550781 128.761719 111.90625 128.820312 117.277344 128.894531 L 129.621094 129.066406 C 132.515625 125.617188 135.410156 122.097656 138.304688 118.589844 L 62.554688 118.589844 C 62.003906 118.589844 61.460938 118.621094 60.917969 118.6875 C 60.371094 118.75 59.835938 118.847656 59.300781 118.976562 C 58.769531 119.105469 58.246094 119.265625 57.734375 119.457031 C 57.222656 119.648438 56.722656 119.871094 56.234375 120.121094 C 55.746094 120.371094 55.277344 120.652344 54.824219 120.957031 C 54.371094 121.265625 53.9375 121.597656 53.523438 121.957031 C 53.109375 122.316406 52.71875 122.699219 52.351562 123.105469 C 51.980469 123.511719 51.636719 123.9375 51.320312 124.382812 C 51.003906 124.832031 50.714844 125.292969 50.449219 125.773438 C 50.1875 126.257812 49.957031 126.75 49.753906 127.261719 C 49.546875 127.769531 49.375 128.289062 49.234375 128.820312 C 49.09375 129.347656 48.984375 129.882812 48.90625 130.425781 C 48.828125 130.96875 48.78125 131.515625 48.769531 132.0625 C 48.757812 132.613281 48.777344 133.160156 48.828125 133.703125 C 48.882812 134.25 48.964844 134.789062 49.082031 135.328125 C 49.199219 135.863281 49.347656 136.390625 49.527344 136.90625 Z M 77.578125 235.933594 " fill-opacity="1" fill-rule="nonzero"/><path fill="#faaf40" d="M 109.242188 211.164062 L 109.097656 211.003906 C 105.601562 207.339844 102.339844 203.476562 99.316406 199.410156 L 98.707031 198.628906 C 66.433594 226.800781 37.917969 239.335938 22.289062 228.945312 C 6.945312 218.597656 7.105469 188.457031 19.726562 148.847656 C 1.042969 202.933594 0.015625 245.148438 21.085938 259.148438 C 41.652344 272.8125 78.835938 256.613281 120.171875 220.191406 C 116.351562 217.398438 112.710938 214.386719 109.242188 211.164062 Z M 109.242188 211.164062 " fill-opacity="1" fill-rule="nonzero"/><g clip-path="url(#2ce1a7c23b)"><path fill="#be1e2d" d="M 182.074219 218.890625 C 181.839844 208.484375 181.710938 198.078125 181.492188 187.671875 C 181.457031 187.074219 181.566406 186.503906 181.824219 185.964844 C 182.082031 185.421875 182.453125 184.976562 182.941406 184.628906 C 201.464844 169.269531 219.875 153.761719 237.359375 137.183594 C 243.691406 131.171875 249.257812 124.515625 254.054688 117.21875 C 258.847656 109.917969 262.75 102.167969 265.757812 93.96875 C 268.597656 86.402344 270.78125 78.648438 272.300781 70.710938 C 273.820312 62.773438 274.660156 54.761719 274.816406 46.679688 C 274.816406 46.011719 274.816406 45.359375 274.816406 44.503906 C 273.976562 44.503906 273.371094 44.503906 272.660156 44.503906 C 264.59375 44.695312 256.601562 45.566406 248.679688 47.121094 C 240.761719 48.675781 233.03125 50.890625 225.492188 53.765625 C 217.3125 56.816406 209.585938 60.757812 202.316406 65.589844 C 195.042969 70.425781 188.417969 76.023438 182.433594 82.386719 C 165.949219 99.953125 150.59375 118.445312 135.265625 137.066406 C 134.921875 137.554688 134.480469 137.925781 133.941406 138.183594 C 133.402344 138.441406 132.835938 138.550781 132.242188 138.515625 C 121.851562 138.328125 111.457031 138.242188 101.066406 138.050781 C 100.261719 137.980469 99.492188 138.113281 98.757812 138.453125 C 98.023438 138.792969 97.421875 139.289062 96.957031 139.949219 C 91.210938 147.398438 85.449219 154.644531 79.71875 162.078125 C 78.269531 163.890625 78.515625 164.457031 80.804688 164.976562 C 88.9375 166.71875 97.128906 168.222656 105.207031 170.179688 C 110.675781 171.515625 108.941406 175.484375 108.664062 176.109375 C 107.464844 179.007812 106.347656 181.90625 104.886719 184.703125 C 104.558594 185.226562 104.316406 185.792969 104.164062 186.390625 C 104.007812 186.992188 103.949219 187.605469 103.988281 188.222656 C 104.023438 188.84375 104.152344 189.441406 104.375 190.019531 C 104.597656 190.601562 104.902344 191.132812 105.292969 191.613281 C 108.554688 196.0625 112.0625 200.308594 115.8125 204.351562 C 119.851562 208.085938 124.085938 211.574219 128.523438 214.816406 C 129.007812 215.203125 129.539062 215.507812 130.121094 215.730469 C 130.699219 215.953125 131.300781 216.082031 131.917969 216.113281 C 132.539062 216.148438 133.148438 216.089844 133.75 215.933594 C 134.351562 215.78125 134.914062 215.539062 135.441406 215.207031 C 138.191406 213.757812 141.113281 212.597656 144.007812 211.382812 C 144.628906 211.105469 148.597656 209.351562 149.941406 214.832031 C 151.925781 222.902344 153.460938 231.105469 155.238281 239.234375 C 155.730469 241.527344 156.296875 241.742188 158.132812 240.324219 C 165.472656 234.527344 172.78125 228.730469 180.148438 223.019531 C 180.808594 222.550781 181.3125 221.945312 181.65625 221.210938 C 182 220.472656 182.136719 219.699219 182.074219 218.890625 Z M 202.148438 117.546875 C 201.757812 117.15625 201.390625 116.75 201.042969 116.324219 C 200.691406 115.902344 200.367188 115.460938 200.0625 115.003906 C 199.757812 114.546875 199.472656 114.074219 199.214844 113.589844 C 198.957031 113.105469 198.722656 112.609375 198.511719 112.101562 C 198.300781 111.59375 198.117188 111.078125 197.957031 110.550781 C 197.796875 110.023438 197.664062 109.492188 197.554688 108.953125 C 197.449219 108.414062 197.367188 107.871094 197.3125 107.324219 C 197.261719 106.777344 197.234375 106.230469 197.234375 105.679688 C 197.234375 105.128906 197.261719 104.582031 197.3125 104.035156 C 197.367188 103.488281 197.449219 102.945312 197.554688 102.402344 C 197.660156 101.863281 197.792969 101.332031 197.953125 100.804688 C 198.113281 100.28125 198.296875 99.761719 198.507812 99.253906 C 198.71875 98.746094 198.953125 98.25 199.210938 97.765625 C 199.46875 97.28125 199.75 96.808594 200.054688 96.351562 C 200.359375 95.894531 200.6875 95.453125 201.035156 95.03125 C 201.382812 94.605469 201.753906 94.199219 202.140625 93.808594 C 202.527344 93.421875 202.933594 93.050781 203.359375 92.703125 C 203.785156 92.355469 204.222656 92.027344 204.679688 91.722656 C 205.136719 91.417969 205.605469 91.132812 206.089844 90.875 C 206.574219 90.617188 207.070312 90.378906 207.578125 90.171875 C 208.085938 89.960938 208.601562 89.773438 209.128906 89.617188 C 209.652344 89.457031 210.183594 89.324219 210.722656 89.214844 C 211.261719 89.109375 211.804688 89.027344 212.351562 88.972656 C 212.894531 88.917969 213.445312 88.890625 213.992188 88.890625 C 214.542969 88.890625 215.089844 88.917969 215.636719 88.972656 C 216.183594 89.027344 216.726562 89.109375 217.261719 89.214844 C 217.800781 89.324219 218.332031 89.457031 218.859375 89.617188 C 219.382812 89.773438 219.902344 89.960938 220.40625 90.171875 C 220.914062 90.378906 221.410156 90.617188 221.894531 90.875 C 222.378906 91.132812 222.847656 91.417969 223.304688 91.722656 C 223.761719 92.027344 224.203125 92.355469 224.628906 92.703125 C 225.050781 93.050781 225.457031 93.421875 225.847656 93.808594 C 226.234375 94.199219 226.601562 94.605469 226.949219 95.03125 C 227.296875 95.453125 227.625 95.894531 227.929688 96.351562 C 228.234375 96.808594 228.515625 97.28125 228.777344 97.765625 C 229.035156 98.25 229.269531 98.746094 229.480469 99.253906 C 229.6875 99.761719 229.875 100.28125 230.03125 100.804688 C 230.191406 101.332031 230.324219 101.863281 230.433594 102.402344 C 230.539062 102.945312 230.617188 103.488281 230.671875 104.035156 C 230.726562 104.582031 230.753906 105.128906 230.753906 105.679688 C 230.753906 106.230469 230.726562 106.777344 230.671875 107.324219 C 230.617188 107.871094 230.539062 108.414062 230.429688 108.953125 C 230.324219 109.492188 230.1875 110.023438 230.03125 110.550781 C 229.871094 111.078125 229.683594 111.59375 229.476562 112.101562 C 229.265625 112.609375 229.03125 113.105469 228.769531 113.589844 C 228.511719 114.074219 228.230469 114.546875 227.925781 115.003906 C 227.621094 115.460938 227.292969 115.902344 226.945312 116.324219 C 226.597656 116.75 226.226562 117.15625 225.839844 117.546875 C 225.449219 117.933594 225.042969 118.300781 224.621094 118.648438 C 224.195312 118.996094 223.753906 119.324219 223.300781 119.628906 C 222.84375 119.933594 222.371094 120.214844 221.890625 120.472656 C 221.40625 120.730469 220.910156 120.964844 220.402344 121.175781 C 219.894531 121.386719 219.378906 121.570312 218.855469 121.730469 C 218.328125 121.886719 217.796875 122.023438 217.261719 122.128906 C 216.722656 122.234375 216.179688 122.316406 215.632812 122.371094 C 215.089844 122.421875 214.542969 122.449219 213.992188 122.449219 C 213.445312 122.449219 212.898438 122.421875 212.351562 122.371094 C 211.804688 122.316406 211.265625 122.234375 210.726562 122.128906 C 210.1875 122.023438 209.65625 121.886719 209.132812 121.730469 C 208.605469 121.570312 208.089844 121.386719 207.582031 121.175781 C 207.078125 120.964844 206.582031 120.730469 206.097656 120.472656 C 205.613281 120.214844 205.144531 119.933594 204.6875 119.628906 C 204.230469 119.324219 203.789062 118.996094 203.367188 118.648438 C 202.941406 118.300781 202.535156 117.933594 202.148438 117.546875 Z M 202.148438 117.546875 " fill-opacity="1" fill-rule="nonzero"/></g></svg>