<svg xmlns="http://www.w3.org/2000/svg" xmlns:xlink="http://www.w3.org/1999/xlink" width="500" zoomAndPan="magnify" viewBox="0 0 375 374.999991" height="500" preserveAspectRatio="xMidYMid meet" version="1.0"><path fill="#0072ff" d="M 157.117188 201.664062 C 159.652344 206.394531 174.984375 225.929688 175.96875 246.058594 C 176.664062 260.003906 185.089844 287.636719 189.167969 303.234375 C 190.59375 308.726562 215.082031 354.355469 250.71875 343.992188 C 279.554688 335.605469 291.65625 317.425781 298.578125 308.464844 C 298.984375 307.878906 299.386719 307.363281 299.792969 306.847656 C 304.253906 300.679688 309.320312 291.894531 313.65625 284.46875 C 317.265625 278.269531 320.367188 273.019531 322.226562 271.003906 C 326.257812 266.53125 365.648438 228.964844 370.246094 220.664062 C 374.808594 212.371094 372.898438 209.332031 371.769531 207.984375 C 370.707031 206.542969 368.449219 200.730469 345.957031 220.824219 C 323.4375 240.898438 314.367188 248.511719 311.003906 247.101562 C 307.613281 245.6875 313.292969 233.113281 324.917969 212.386719 C 336.601562 191.613281 348.503906 167.175781 347.578125 158.277344 C 346.660156 149.285156 336.175781 145.976562 329.039062 160.914062 C 321.914062 175.746094 299.273438 223.039062 291.828125 223.425781 C 284.371094 223.839844 299.507812 197.882812 305.125 184.378906 C 310.730469 170.910156 326.011719 140.890625 324.929688 133.667969 C 323.925781 126.484375 318.675781 123.671875 314.019531 127.507812 C 309.347656 131.363281 301.683594 142.96875 294.300781 160.226562 C 286.941406 177.449219 277.027344 207.171875 270.464844 208.148438 C 263.859375 209.125 265.171875 198.242188 277.113281 159.09375 C 284.503906 134.949219 284.207031 121.347656 278.308594 120.699219 C 272.394531 120.070312 269.433594 124.152344 260.878906 148.105469 C 252.308594 172.09375 242.746094 219.078125 231.878906 228.335938 C 220.988281 237.574219 213.578125 241.695312 206.808594 234.984375 C 200.003906 228.246094 194.566406 210.355469 186.199219 201.140625 C 181.058594 195.472656 175.019531 189.730469 169.371094 187.164062 C 165.730469 185.511719 162.246094 185.15625 159.257812 186.910156 C 151.582031 191.375 154.5 196.808594 157.027344 201.550781 C 157.070312 201.585938 157.085938 201.65625 157.117188 201.664062 " fill-opacity="1" fill-rule="nonzero"/><path fill="#ff6a0c" d="M 217.882812 173.296875 C 215.347656 168.566406 200.015625 149.039062 199.03125 128.902344 C 198.339844 114.953125 189.910156 87.324219 185.832031 71.726562 C 184.410156 66.234375 159.914062 20.605469 124.28125 30.96875 C 95.445312 39.355469 83.34375 57.539062 76.425781 66.496094 C 76.015625 67.085938 75.613281 67.601562 75.207031 68.117188 C 70.746094 74.285156 65.679688 83.070312 61.34375 90.496094 C 57.738281 96.695312 54.632812 101.945312 52.777344 103.960938 C 48.746094 108.429688 9.351562 145.996094 4.757812 154.300781 C 0.191406 162.589844 2.101562 165.628906 3.226562 166.980469 C 4.292969 168.417969 6.550781 174.234375 29.042969 154.140625 C 51.558594 134.0625 60.636719 126.453125 63.996094 127.859375 C 67.386719 129.273438 61.707031 141.851562 50.082031 162.574219 C 38.402344 183.347656 26.496094 207.789062 27.417969 216.6875 C 28.339844 225.679688 38.824219 228.984375 45.960938 214.050781 C 53.085938 199.21875 75.730469 151.917969 83.175781 151.539062 C 90.625 151.121094 75.488281 177.078125 69.871094 190.585938 C 64.269531 204.050781 48.988281 234.074219 50.070312 241.296875 C 51.074219 248.480469 56.324219 251.289062 60.976562 247.457031 C 65.648438 243.601562 73.320312 231.996094 80.703125 214.738281 C 88.054688 197.511719 97.96875 167.792969 104.535156 166.816406 C 111.140625 165.839844 109.832031 176.722656 97.886719 215.871094 C 90.5 240.015625 90.792969 253.617188 96.691406 254.265625 C 102.605469 254.890625 105.5625 250.8125 114.125 226.855469 C 122.691406 202.867188 132.25 155.886719 143.121094 146.628906 C 154.011719 137.382812 161.421875 133.269531 168.191406 139.976562 C 174.996094 146.71875 180.433594 164.605469 188.804688 173.820312 C 193.941406 179.492188 199.980469 185.230469 205.628906 187.800781 C 209.269531 189.453125 212.753906 189.804688 215.738281 188.054688 C 223.417969 183.585938 220.5 178.152344 217.972656 173.414062 C 217.929688 173.375 217.917969 173.304688 217.882812 173.296875 " fill-opacity="1" fill-rule="nonzero"/></svg>