<svg xmlns="http://www.w3.org/2000/svg" xmlns:xlink="http://www.w3.org/1999/xlink" width="500" zoomAndPan="magnify" viewBox="0 0 375 374.999991" height="500" preserveAspectRatio="xMidYMid meet" version="1.0"><defs><g/><clipPath id="a5ecf011f2"><path d="M 130 79 L 294.535156 79 L 294.535156 227.769531 L 130 227.769531 Z M 130 79 " clip-rule="nonzero"/></clipPath><clipPath id="ddd6dce2e4"><path d="M 123 62.019531 L 237 62.019531 L 237 176 L 123 176 Z M 123 62.019531 " clip-rule="nonzero"/></clipPath></defs><g clip-path="url(#a5ecf011f2)"><path fill="#404041" d="M 288.34375 79.835938 L 268.449219 79.835938 C 267.789062 79.835938 267.140625 79.941406 266.507812 80.144531 C 265.878906 80.34375 265.292969 80.640625 264.753906 81.023438 C 264.214844 81.410156 263.746094 81.867188 263.347656 82.398438 C 262.949219 82.929688 262.644531 83.507812 262.425781 84.132812 L 255.800781 105.007812 L 230.527344 105.007812 C 227.257812 110.4375 223.320312 115.339844 218.71875 119.707031 C 208.613281 129.273438 198.105469 138.105469 188.148438 146.355469 C 188.199219 148.78125 188.242188 151.214844 188.285156 153.640625 C 188.34375 156.683594 188.390625 159.726562 188.460938 162.78125 C 188.519531 164.105469 188.265625 165.371094 187.703125 166.574219 C 187.140625 167.773438 186.328125 168.777344 185.273438 169.578125 C 182.40625 171.808594 179.542969 174.039062 176.6875 176.269531 L 172.566406 179.511719 C 171.417969 180.484375 170.097656 181.042969 168.597656 181.1875 C 167.761719 181.234375 163.421875 181.1875 162.234375 175.777344 C 161.875 174.152344 161.539062 172.53125 161.203125 170.910156 C 160.792969 168.933594 160.367188 166.917969 159.933594 164.929688 C 159.496094 165.128906 159.097656 165.332031 158.6875 165.539062 C 157.457031 166.214844 156.140625 166.601562 154.738281 166.703125 C 153.746094 166.761719 152.773438 166.65625 151.820312 166.375 C 145.148438 172.164062 138.03125 177.328125 130.460938 181.871094 C 132.917969 183.203125 135.539062 183.867188 138.332031 183.871094 L 230.703125 183.871094 L 224.789062 202.484375 L 143.007812 202.484375 C 142.578125 202.46875 142.152344 202.496094 141.726562 202.566406 C 141.300781 202.636719 140.890625 202.75 140.488281 202.902344 C 140.085938 203.058594 139.703125 203.25 139.339844 203.480469 C 138.976562 203.710938 138.640625 203.976562 138.328125 204.273438 C 138.019531 204.574219 137.742188 204.902344 137.5 205.253906 C 137.253906 205.609375 137.046875 205.984375 136.878906 206.382812 C 136.710938 206.777344 136.585938 207.1875 136.5 207.609375 C 136.414062 208.03125 136.371094 208.457031 136.371094 208.886719 C 136.371094 209.316406 136.414062 209.742188 136.5 210.164062 C 136.585938 210.585938 136.710938 210.996094 136.878906 211.390625 C 137.046875 211.785156 137.253906 212.160156 137.5 212.515625 C 137.742188 212.871094 138.019531 213.199219 138.328125 213.496094 C 138.640625 213.792969 138.976562 214.058594 139.339844 214.289062 C 139.703125 214.523438 140.085938 214.714844 140.488281 214.867188 C 140.890625 215.023438 141.300781 215.132812 141.726562 215.203125 C 142.152344 215.273438 142.578125 215.300781 143.007812 215.285156 L 143.117188 215.285156 C 143.140625 216.078125 143.234375 216.863281 143.40625 217.636719 C 143.582031 218.410156 143.824219 219.160156 144.144531 219.886719 C 144.460938 220.613281 144.84375 221.300781 145.296875 221.953125 C 145.746094 222.605469 146.257812 223.207031 146.824219 223.757812 C 147.394531 224.3125 148.007812 224.804688 148.671875 225.238281 C 149.335938 225.671875 150.035156 226.039062 150.769531 226.339844 C 151.503906 226.636719 152.261719 226.863281 153.039062 227.015625 C 153.816406 227.167969 154.601562 227.242188 155.394531 227.242188 C 156.1875 227.242188 156.972656 227.167969 157.75 227.015625 C 158.527344 226.863281 159.285156 226.636719 160.019531 226.339844 C 160.753906 226.039062 161.453125 225.671875 162.117188 225.238281 C 162.78125 224.804688 163.394531 224.3125 163.964844 223.757812 C 164.53125 223.207031 165.042969 222.605469 165.492188 221.953125 C 165.945312 221.300781 166.328125 220.613281 166.644531 219.886719 C 166.964844 219.160156 167.207031 218.410156 167.382812 217.636719 C 167.554688 216.863281 167.648438 216.078125 167.671875 215.285156 L 205.742188 215.285156 C 205.746094 216.09375 205.828125 216.890625 205.988281 217.679688 C 206.144531 218.472656 206.382812 219.238281 206.691406 219.980469 C 207.003906 220.726562 207.386719 221.429688 207.835938 222.101562 C 208.285156 222.769531 208.796875 223.386719 209.367188 223.953125 C 209.941406 224.523438 210.5625 225.03125 211.234375 225.476562 C 211.90625 225.921875 212.617188 226.296875 213.363281 226.601562 C 214.109375 226.910156 214.875 227.136719 215.667969 227.292969 C 216.460938 227.449219 217.257812 227.523438 218.066406 227.519531 C 218.871094 227.519531 219.667969 227.4375 220.460938 227.277344 C 221.25 227.117188 222.015625 226.882812 222.761719 226.570312 C 223.503906 226.257812 224.210938 225.878906 224.878906 225.429688 C 225.550781 224.980469 226.167969 224.46875 226.734375 223.894531 C 227.304688 223.324219 227.8125 222.703125 228.257812 222.03125 C 228.703125 221.359375 229.078125 220.648438 229.382812 219.902344 C 229.691406 219.160156 229.921875 218.390625 230.074219 217.597656 C 230.230469 216.808594 230.304688 216.007812 230.304688 215.203125 C 230.886719 215.125 231.445312 214.972656 231.984375 214.742188 C 232.523438 214.507812 233.023438 214.207031 233.480469 213.839844 C 233.9375 213.472656 234.335938 213.046875 234.675781 212.570312 C 235.015625 212.089844 235.285156 211.574219 235.480469 211.023438 L 273.125 92.671875 L 288.34375 92.671875 C 288.753906 92.65625 289.160156 92.601562 289.558594 92.511719 C 289.960938 92.417969 290.347656 92.289062 290.722656 92.121094 C 291.097656 91.953125 291.453125 91.75 291.792969 91.515625 C 292.128906 91.277344 292.4375 91.011719 292.722656 90.71875 C 293.007812 90.421875 293.265625 90.101562 293.488281 89.757812 C 293.710938 89.410156 293.898438 89.050781 294.054688 88.667969 C 294.207031 88.289062 294.324219 87.894531 294.402344 87.492188 C 294.480469 87.089844 294.519531 86.679688 294.519531 86.269531 C 294.519531 85.859375 294.480469 85.453125 294.402344 85.050781 C 294.324219 84.644531 294.207031 84.253906 294.054688 83.871094 C 293.898438 83.492188 293.710938 83.128906 293.488281 82.785156 C 293.265625 82.441406 293.007812 82.121094 292.722656 81.824219 C 292.4375 81.527344 292.128906 81.261719 291.792969 81.027344 C 291.453125 80.789062 291.097656 80.589844 290.722656 80.421875 C 290.347656 80.253906 289.960938 80.125 289.558594 80.03125 C 289.160156 79.9375 288.753906 79.882812 288.34375 79.871094 Z M 288.34375 79.835938 " fill-opacity="1" fill-rule="nonzero"/></g><path fill="#404041" d="M 122.621094 172.730469 C 123.484375 175.214844 124.859375 177.367188 126.746094 179.195312 C 134 174.582031 140.832031 169.410156 147.242188 163.683594 C 145.035156 162.058594 142.929688 160.3125 140.925781 158.441406 L 140.84375 158.347656 C 138.820312 156.234375 136.9375 154.003906 135.1875 151.660156 L 134.351562 150.570312 C 133.808594 149.878906 133.375 149.117188 133.054688 148.296875 C 132.738281 147.472656 132.542969 146.621094 132.476562 145.742188 C 132.410156 144.863281 132.472656 143.992188 132.667969 143.132812 C 132.859375 142.269531 133.171875 141.457031 133.605469 140.6875 C 133.816406 140.285156 134.015625 139.851562 134.21875 139.433594 C 132.21875 139 130.203125 138.597656 128.234375 138.1875 C 126.5625 137.851562 124.980469 137.527344 123.359375 137.175781 C 120.742188 136.613281 119.027344 135.269531 118.265625 133.171875 C 117.503906 131.070312 117.9375 128.945312 119.570312 126.855469 L 122.789062 122.683594 C 125.019531 119.808594 127.25 116.921875 129.484375 114.027344 C 130.199219 113.078125 131.078125 112.324219 132.128906 111.765625 C 133.179688 111.207031 134.300781 110.894531 135.488281 110.835938 C 135.738281 110.835938 136 110.835938 136.265625 110.835938 C 139.371094 110.894531 142.464844 110.925781 145.570312 110.96875 L 152.707031 111.070312 C 154.378906 109.078125 156.050781 107.046875 157.722656 105.023438 L 113.9375 105.023438 C 113.621094 105.023438 113.308594 105.042969 112.992188 105.078125 C 112.679688 105.117188 112.367188 105.171875 112.058594 105.246094 C 111.753906 105.320312 111.449219 105.414062 111.152344 105.523438 C 110.859375 105.632812 110.570312 105.761719 110.289062 105.90625 C 110.007812 106.050781 109.734375 106.210938 109.472656 106.390625 C 109.210938 106.566406 108.960938 106.757812 108.71875 106.964844 C 108.480469 107.171875 108.253906 107.394531 108.042969 107.628906 C 107.828125 107.863281 107.628906 108.109375 107.445312 108.367188 C 107.261719 108.625 107.097656 108.890625 106.945312 109.167969 C 106.792969 109.445312 106.65625 109.734375 106.539062 110.027344 C 106.421875 110.320312 106.324219 110.621094 106.242188 110.925781 C 106.160156 111.230469 106.097656 111.539062 106.050781 111.855469 C 106.007812 112.167969 105.980469 112.480469 105.972656 112.796875 C 105.964844 113.113281 105.976562 113.429688 106.007812 113.746094 C 106.039062 114.058594 106.085938 114.371094 106.152344 114.679688 C 106.222656 114.988281 106.308594 115.292969 106.410156 115.59375 Z M 122.621094 172.730469 " fill-opacity="1" fill-rule="nonzero"/><path fill="#faaf40" d="M 140.925781 158.441406 L 140.84375 158.347656 C 138.820312 156.234375 136.9375 154.003906 135.1875 151.660156 L 134.835938 151.207031 C 116.179688 167.464844 99.703125 174.695312 90.667969 168.699219 C 81.800781 162.730469 81.890625 145.335938 89.1875 122.484375 C 78.386719 153.691406 77.792969 178.050781 89.972656 186.128906 C 101.859375 194.011719 123.351562 184.664062 147.242188 163.648438 C 145.035156 162.035156 142.929688 160.300781 140.925781 158.441406 Z M 140.925781 158.441406 " fill-opacity="1" fill-rule="nonzero"/><g clip-path="url(#ddd6dce2e4)"><path fill="#be1e2d" d="M 183.023438 162.898438 C 182.886719 156.894531 182.8125 150.890625 182.6875 144.886719 C 182.664062 144.539062 182.726562 144.210938 182.878906 143.898438 C 183.027344 143.585938 183.242188 143.328125 183.523438 143.128906 C 194.230469 134.265625 204.871094 125.316406 214.976562 115.75 C 218.636719 112.285156 221.855469 108.445312 224.625 104.230469 C 227.398438 100.019531 229.652344 95.546875 231.390625 90.816406 C 234.699219 82.019531 236.445312 72.925781 236.628906 63.53125 C 236.628906 63.144531 236.628906 62.769531 236.628906 62.273438 C 236.140625 62.273438 235.792969 62.273438 235.382812 62.273438 C 225.988281 62.496094 216.898438 64.277344 208.117188 67.617188 C 203.390625 69.378906 198.925781 71.652344 194.722656 74.441406 C 190.519531 77.230469 186.6875 80.460938 183.230469 84.132812 C 173.703125 94.269531 164.828125 104.9375 155.96875 115.683594 C 155.769531 115.964844 155.511719 116.179688 155.203125 116.328125 C 154.890625 116.476562 154.5625 116.542969 154.21875 116.519531 C 148.210938 116.410156 142.207031 116.363281 136.199219 116.253906 C 135.734375 116.210938 135.289062 116.289062 134.867188 116.484375 C 134.441406 116.679688 134.09375 116.96875 133.824219 117.347656 C 130.503906 121.648438 127.171875 125.828125 123.859375 130.117188 C 123.023438 131.164062 123.167969 131.488281 124.488281 131.789062 C 129.191406 132.792969 133.925781 133.664062 138.59375 134.792969 C 141.753906 135.5625 140.75 137.851562 140.59375 138.210938 C 139.898438 139.886719 139.253906 141.558594 138.410156 143.171875 C 138.21875 143.472656 138.078125 143.800781 137.988281 144.148438 C 137.902344 144.492188 137.867188 144.84375 137.886719 145.203125 C 137.910156 145.558594 137.984375 145.90625 138.113281 146.242188 C 138.242188 146.574219 138.417969 146.882812 138.644531 147.160156 C 140.527344 149.726562 142.554688 152.175781 144.722656 154.511719 C 147.058594 156.664062 149.503906 158.675781 152.070312 160.546875 C 152.351562 160.769531 152.65625 160.945312 152.992188 161.074219 C 153.328125 161.203125 153.675781 161.277344 154.03125 161.296875 C 154.390625 161.316406 154.742188 161.28125 155.089844 161.195312 C 155.4375 161.105469 155.765625 160.964844 156.066406 160.773438 C 157.65625 159.9375 159.347656 159.269531 161.019531 158.566406 C 161.378906 158.40625 163.671875 157.394531 164.449219 160.554688 C 165.597656 165.214844 166.484375 169.945312 167.511719 174.636719 C 167.796875 175.960938 168.121094 176.085938 169.183594 175.265625 C 173.425781 171.921875 177.652344 168.574219 181.910156 165.28125 C 182.292969 165.007812 182.582031 164.660156 182.78125 164.238281 C 182.980469 163.8125 183.058594 163.363281 183.023438 162.898438 Z M 194.625 104.421875 C 194.175781 103.972656 193.773438 103.480469 193.417969 102.953125 C 193.066406 102.425781 192.765625 101.867188 192.523438 101.28125 C 192.28125 100.691406 192.09375 100.085938 191.972656 99.460938 C 191.847656 98.839844 191.785156 98.210938 191.785156 97.574219 C 191.785156 96.9375 191.847656 96.308594 191.96875 95.683594 C 192.09375 95.058594 192.277344 94.453125 192.519531 93.867188 C 192.765625 93.277344 193.0625 92.722656 193.417969 92.191406 C 193.769531 91.664062 194.171875 91.175781 194.621094 90.722656 C 195.070312 90.273438 195.558594 89.875 196.089844 89.519531 C 196.617188 89.167969 197.175781 88.867188 197.765625 88.625 C 198.351562 88.382812 198.957031 88.199219 199.582031 88.074219 C 200.207031 87.949219 200.835938 87.886719 201.472656 87.886719 C 202.109375 87.886719 202.738281 87.949219 203.363281 88.074219 C 203.984375 88.199219 204.589844 88.382812 205.179688 88.625 C 205.765625 88.867188 206.324219 89.167969 206.855469 89.519531 C 207.382812 89.875 207.871094 90.273438 208.324219 90.722656 C 208.773438 91.175781 209.175781 91.664062 209.527344 92.191406 C 209.878906 92.722656 210.179688 93.277344 210.421875 93.867188 C 210.664062 94.453125 210.847656 95.058594 210.972656 95.683594 C 211.097656 96.308594 211.160156 96.9375 211.160156 97.574219 C 211.160156 98.210938 211.097656 98.839844 210.972656 99.460938 C 210.847656 100.085938 210.664062 100.691406 210.421875 101.28125 C 210.175781 101.867188 209.878906 102.425781 209.523438 102.953125 C 209.171875 103.480469 208.769531 103.972656 208.320312 104.421875 C 207.867188 104.871094 207.378906 105.269531 206.851562 105.621094 C 206.320312 105.976562 205.765625 106.273438 205.175781 106.515625 C 204.589844 106.757812 203.984375 106.941406 203.359375 107.066406 C 202.738281 107.1875 202.105469 107.25 201.472656 107.25 C 200.835938 107.25 200.207031 107.1875 199.582031 107.066406 C 198.960938 106.941406 198.355469 106.757812 197.765625 106.515625 C 197.179688 106.273438 196.621094 105.976562 196.09375 105.621094 C 195.5625 105.269531 195.074219 104.871094 194.625 104.421875 Z M 194.625 104.421875 " fill-opacity="1" fill-rule="nonzero"/></g><g fill="#be1e2d" fill-opacity="1"><g transform="translate(89.04126, 279.683297)"><g><path d="M 28.59375 -13.734375 C 28.59375 -7.523438 26.617188 -3.34375 22.671875 -1.1875 L 29.359375 6.515625 L 20.140625 6.515625 L 15.3125 0.4375 L 15.296875 0.40625 L 15.296875 0.390625 L 15.265625 0.375 C 10.972656 0.375 7.679688 -0.828125 5.390625 -3.234375 C 3.097656 -5.648438 1.953125 -9.160156 1.953125 -13.765625 C 1.953125 -18.328125 3.085938 -21.8125 5.359375 -24.21875 C 7.640625 -26.625 10.957031 -27.828125 15.3125 -27.828125 C 19.664062 -27.828125 22.96875 -26.632812 25.21875 -24.25 C 27.46875 -21.863281 28.59375 -18.359375 28.59375 -13.734375 Z M 9.75 -13.734375 C 9.75 -8.441406 11.585938 -5.796875 15.265625 -5.796875 C 17.140625 -5.796875 18.53125 -6.4375 19.4375 -7.71875 C 20.34375 -9.007812 20.796875 -11.015625 20.796875 -13.734375 C 20.796875 -16.472656 20.335938 -18.492188 19.421875 -19.796875 C 18.503906 -21.097656 17.132812 -21.75 15.3125 -21.75 C 11.601562 -21.75 9.75 -19.078125 9.75 -13.734375 Z M 9.75 -13.734375 "/></g></g></g><g fill="#be1e2d" fill-opacity="1"><g transform="translate(119.618171, 279.683297)"><g><path d="M 17.65625 0 L 16.734375 -2.640625 L 16.296875 -2.640625 C 15.691406 -1.671875 14.84375 -0.925781 13.75 -0.40625 C 12.65625 0.113281 11.367188 0.375 9.890625 0.375 C 7.554688 0.375 5.738281 -0.300781 4.4375 -1.65625 C 3.132812 -3.007812 2.484375 -4.925781 2.484375 -7.40625 L 2.484375 -21.234375 L 9.8125 -21.234375 L 9.8125 -9.625 C 9.8125 -8.238281 10.007812 -7.191406 10.40625 -6.484375 C 10.800781 -5.773438 11.445312 -5.421875 12.34375 -5.421875 C 13.601562 -5.421875 14.503906 -5.914062 15.046875 -6.90625 C 15.585938 -7.894531 15.859375 -9.570312 15.859375 -11.9375 L 15.859375 -21.234375 L 23.171875 -21.234375 L 23.171875 0 Z M 17.65625 0 "/></g></g></g><g fill="#be1e2d" fill-opacity="1"><g transform="translate(145.323761, 279.683297)"><g><path d="M 9.890625 0 L 2.5625 0 L 2.5625 -21.234375 L 9.890625 -21.234375 Z M 2.375 -26.515625 C 2.375 -27.609375 2.679688 -28.425781 3.296875 -28.96875 C 3.910156 -29.507812 4.898438 -29.78125 6.265625 -29.78125 C 7.617188 -29.78125 8.609375 -29.503906 9.234375 -28.953125 C 9.859375 -28.398438 10.171875 -27.585938 10.171875 -26.515625 C 10.171875 -24.367188 8.867188 -23.296875 6.265625 -23.296875 C 3.671875 -23.296875 2.375 -24.367188 2.375 -26.515625 Z M 2.375 -26.515625 "/></g></g></g><g fill="#be1e2d" fill-opacity="1"><g transform="translate(157.801839, 279.683297)"><g><path d="M 12.203125 0.375 C 8.722656 0.375 6.085938 -0.5625 4.296875 -2.4375 C 2.503906 -4.3125 1.609375 -7.003906 1.609375 -10.515625 C 1.609375 -14.035156 2.578125 -16.765625 4.515625 -18.703125 C 6.453125 -20.640625 9.207031 -21.609375 12.78125 -21.609375 C 15.238281 -21.609375 17.554688 -21.070312 19.734375 -20 L 17.578125 -14.578125 C 16.691406 -14.960938 15.875 -15.269531 15.125 -15.5 C 14.375 -15.738281 13.59375 -15.859375 12.78125 -15.859375 C 11.59375 -15.859375 10.671875 -15.394531 10.015625 -14.46875 C 9.367188 -13.539062 9.046875 -12.234375 9.046875 -10.546875 C 9.046875 -7.148438 10.300781 -5.453125 12.8125 -5.453125 C 14.96875 -5.453125 17.03125 -6.078125 19 -7.328125 L 19 -1.5 C 17.113281 -0.25 14.847656 0.375 12.203125 0.375 Z M 12.203125 0.375 "/></g></g></g><g fill="#be1e2d" fill-opacity="1"><g transform="translate(178.486221, 279.683297)"><g><path d="M 9.625 -11.9375 C 10.519531 -13.34375 11.28125 -14.441406 11.90625 -15.234375 L 16.65625 -21.234375 L 24.828125 -21.234375 L 17.46875 -12.203125 L 25.296875 0 L 16.921875 0 L 12.265625 -7.609375 L 9.890625 -5.796875 L 9.890625 0 L 2.53125 0 L 2.53125 -29.15625 L 9.890625 -29.15625 L 9.890625 -17.6875 C 9.890625 -15.726562 9.753906 -13.8125 9.484375 -11.9375 Z M 9.625 -11.9375 "/></g></g></g><g fill="#be1e2d" fill-opacity="1"><g transform="translate(203.779623, 279.683297)"><g><path d="M 20.875 -8.3125 C 20.875 -6.613281 20.441406 -5.101562 19.578125 -3.78125 C 18.710938 -2.46875 17.46875 -1.445312 15.84375 -0.71875 C 14.226562 0.0078125 12.328125 0.375 10.140625 0.375 C 8.316406 0.375 6.785156 0.25 5.546875 0 C 4.304688 -0.257812 3.019531 -0.707031 1.6875 -1.34375 L 1.6875 -7.9375 C 3.09375 -7.21875 4.554688 -6.65625 6.078125 -6.25 C 7.609375 -5.84375 9.007812 -5.640625 10.28125 -5.640625 C 11.382812 -5.640625 12.191406 -5.828125 12.703125 -6.203125 C 13.210938 -6.585938 13.46875 -7.082031 13.46875 -7.6875 C 13.46875 -8.0625 13.363281 -8.390625 13.15625 -8.671875 C 12.957031 -8.953125 12.628906 -9.234375 12.171875 -9.515625 C 11.710938 -9.804688 10.5 -10.394531 8.53125 -11.28125 C 6.738281 -12.09375 5.394531 -12.878906 4.5 -13.640625 C 3.613281 -14.398438 2.953125 -15.273438 2.515625 -16.265625 C 2.085938 -17.253906 1.875 -18.421875 1.875 -19.765625 C 1.875 -22.285156 2.789062 -24.25 4.625 -25.65625 C 6.457031 -27.070312 8.984375 -27.78125 12.203125 -27.78125 C 15.035156 -27.78125 17.925781 -27.128906 20.875 -25.828125 L 18.609375 -20.109375 C 16.046875 -21.273438 13.832031 -21.859375 11.96875 -21.859375 C 11.007812 -21.859375 10.3125 -21.691406 9.875 -21.359375 C 9.4375 -21.023438 9.21875 -20.609375 9.21875 -20.109375 C 9.21875 -19.566406 9.492188 -19.082031 10.046875 -18.65625 C 10.609375 -18.238281 12.117188 -17.46875 14.578125 -16.34375 C 16.941406 -15.28125 18.582031 -14.140625 19.5 -12.921875 C 20.414062 -11.703125 20.875 -10.164062 20.875 -8.3125 Z M 20.875 -8.3125 "/></g></g></g><g fill="#be1e2d" fill-opacity="1"><g transform="translate(225.925401, 279.683297)"><g><path d="M 16.375 0 L 14.96875 -2.8125 L 14.828125 -2.8125 C 13.835938 -1.582031 12.828125 -0.742188 11.796875 -0.296875 C 10.773438 0.148438 9.453125 0.375 7.828125 0.375 C 5.828125 0.375 4.253906 -0.222656 3.109375 -1.421875 C 1.960938 -2.617188 1.390625 -4.304688 1.390625 -6.484375 C 1.390625 -8.742188 2.175781 -10.425781 3.75 -11.53125 C 5.320312 -12.632812 7.601562 -13.253906 10.59375 -13.390625 L 14.125 -13.515625 L 14.125 -13.8125 C 14.125 -15.5625 13.265625 -16.4375 11.546875 -16.4375 C 9.992188 -16.4375 8.023438 -15.910156 5.640625 -14.859375 L 3.515625 -19.6875 C 5.992188 -20.96875 9.117188 -21.609375 12.890625 -21.609375 C 15.609375 -21.609375 17.710938 -20.929688 19.203125 -19.578125 C 20.703125 -18.234375 21.453125 -16.347656 21.453125 -13.921875 L 21.453125 0 Z M 10.9375 -4.796875 C 11.820312 -4.796875 12.582031 -5.078125 13.21875 -5.640625 C 13.851562 -6.203125 14.171875 -6.929688 14.171875 -7.828125 L 14.171875 -9.484375 L 12.484375 -9.40625 C 10.066406 -9.320312 8.859375 -8.4375 8.859375 -6.75 C 8.859375 -5.445312 9.550781 -4.796875 10.9375 -4.796875 Z M 10.9375 -4.796875 "/></g></g></g><g fill="#be1e2d" fill-opacity="1"><g transform="translate(249.832349, 279.683297)"><g><path d="M 9.859375 0 L 2.53125 0 L 2.53125 -29.15625 L 9.859375 -29.15625 Z M 9.859375 0 "/></g></g></g><g fill="#be1e2d" fill-opacity="1"><g transform="translate(262.235484, 279.683297)"><g><path d="M 12.78125 0.375 C 9.238281 0.375 6.488281 -0.5625 4.53125 -2.4375 C 2.582031 -4.320312 1.609375 -7 1.609375 -10.46875 C 1.609375 -14.0625 2.515625 -16.816406 4.328125 -18.734375 C 6.140625 -20.648438 8.722656 -21.609375 12.078125 -21.609375 C 15.273438 -21.609375 17.742188 -20.773438 19.484375 -19.109375 C 21.234375 -17.441406 22.109375 -15.039062 22.109375 -11.90625 L 22.109375 -8.640625 L 9.015625 -8.640625 C 9.066406 -7.453125 9.5 -6.519531 10.3125 -5.84375 C 11.132812 -5.164062 12.25 -4.828125 13.65625 -4.828125 C 14.945312 -4.828125 16.128906 -4.945312 17.203125 -5.1875 C 18.285156 -5.4375 19.457031 -5.859375 20.71875 -6.453125 L 20.71875 -1.1875 C 19.570312 -0.59375 18.382812 -0.1875 17.15625 0.03125 C 15.9375 0.257812 14.476562 0.375 12.78125 0.375 Z M 12.34375 -16.625 C 11.488281 -16.625 10.769531 -16.347656 10.1875 -15.796875 C 9.601562 -15.253906 9.257812 -14.40625 9.15625 -13.25 L 15.453125 -13.25 C 15.429688 -14.269531 15.140625 -15.085938 14.578125 -15.703125 C 14.023438 -16.316406 13.28125 -16.625 12.34375 -16.625 Z M 12.34375 -16.625 "/></g></g></g><g fill="#404041" fill-opacity="1"><g transform="translate(97.63364, 309.606255)"><g><path d="M 1.609375 0 L 1.609375 -11.328125 L 2.390625 -11.328125 L 2.390625 -0.75 L 7.796875 -0.75 L 7.796875 0 Z M 1.609375 0 "/></g></g><g transform="translate(105.783993, 309.606255)"><g><path d="M 2.171875 0 L 1.40625 0 L 1.40625 -8.421875 L 2.171875 -8.421875 Z M 1.296875 -10.765625 C 1.296875 -11.265625 1.460938 -11.515625 1.796875 -11.515625 C 1.953125 -11.515625 2.070312 -11.445312 2.15625 -11.3125 C 2.25 -11.1875 2.296875 -11.003906 2.296875 -10.765625 C 2.296875 -10.535156 2.25 -10.351562 2.15625 -10.21875 C 2.070312 -10.082031 1.953125 -10.015625 1.796875 -10.015625 C 1.460938 -10.015625 1.296875 -10.265625 1.296875 -10.765625 Z M 1.296875 -10.765625 "/></g></g><g transform="translate(109.374492, 309.606255)"><g><path d="M 7.984375 -8.421875 L 7.984375 -7.890625 L 6.234375 -7.78125 C 6.703125 -7.207031 6.9375 -6.570312 6.9375 -5.875 C 6.9375 -5.0625 6.664062 -4.398438 6.125 -3.890625 C 5.582031 -3.390625 4.859375 -3.140625 3.953125 -3.140625 C 3.566406 -3.140625 3.296875 -3.15625 3.140625 -3.1875 C 2.835938 -3.03125 2.601562 -2.84375 2.4375 -2.625 C 2.28125 -2.40625 2.203125 -2.175781 2.203125 -1.9375 C 2.203125 -1.664062 2.304688 -1.46875 2.515625 -1.34375 C 2.722656 -1.21875 3.066406 -1.15625 3.546875 -1.15625 L 5.015625 -1.15625 C 5.929688 -1.15625 6.628906 -0.96875 7.109375 -0.59375 C 7.597656 -0.226562 7.84375 0.3125 7.84375 1.03125 C 7.84375 1.914062 7.484375 2.597656 6.765625 3.078125 C 6.046875 3.566406 5.019531 3.8125 3.6875 3.8125 C 2.625 3.8125 1.800781 3.609375 1.21875 3.203125 C 0.632812 2.796875 0.34375 2.226562 0.34375 1.5 C 0.34375 0.914062 0.519531 0.429688 0.875 0.046875 C 1.238281 -0.328125 1.726562 -0.585938 2.34375 -0.734375 C 2.09375 -0.835938 1.890625 -0.988281 1.734375 -1.1875 C 1.585938 -1.382812 1.515625 -1.613281 1.515625 -1.875 C 1.515625 -2.4375 1.875 -2.929688 2.59375 -3.359375 C 2.101562 -3.566406 1.71875 -3.882812 1.4375 -4.3125 C 1.164062 -4.75 1.03125 -5.242188 1.03125 -5.796875 C 1.03125 -6.640625 1.296875 -7.316406 1.828125 -7.828125 C 2.367188 -8.335938 3.09375 -8.59375 4 -8.59375 C 4.550781 -8.59375 4.976562 -8.535156 5.28125 -8.421875 Z M 1.15625 1.421875 C 1.15625 2.578125 2.019531 3.15625 3.75 3.15625 C 5.957031 3.15625 7.0625 2.453125 7.0625 1.046875 C 7.0625 0.535156 6.882812 0.171875 6.53125 -0.046875 C 6.1875 -0.273438 5.628906 -0.390625 4.859375 -0.390625 L 3.484375 -0.390625 C 1.929688 -0.390625 1.15625 0.210938 1.15625 1.421875 Z M 1.8125 -5.796875 C 1.8125 -5.148438 2.003906 -4.644531 2.390625 -4.28125 C 2.785156 -3.925781 3.316406 -3.75 3.984375 -3.75 C 4.679688 -3.75 5.21875 -3.925781 5.59375 -4.28125 C 5.96875 -4.632812 6.15625 -5.148438 6.15625 -5.828125 C 6.15625 -6.546875 5.960938 -7.082031 5.578125 -7.4375 C 5.191406 -7.800781 4.65625 -7.984375 3.96875 -7.984375 C 3.300781 -7.984375 2.773438 -7.789062 2.390625 -7.40625 C 2.003906 -7.019531 1.8125 -6.484375 1.8125 -5.796875 Z M 1.8125 -5.796875 "/></g></g><g transform="translate(117.679942, 309.606255)"><g><path d="M 7.28125 0 L 7.28125 -5.46875 C 7.28125 -6.3125 7.101562 -6.925781 6.75 -7.3125 C 6.394531 -7.695312 5.84375 -7.890625 5.09375 -7.890625 C 4.082031 -7.890625 3.34375 -7.632812 2.875 -7.125 C 2.40625 -6.613281 2.171875 -5.789062 2.171875 -4.65625 L 2.171875 0 L 1.40625 0 L 1.40625 -12.0625 L 2.171875 -12.0625 L 2.171875 -8.21875 L 2.140625 -7.140625 L 2.1875 -7.140625 C 2.507812 -7.648438 2.910156 -8.019531 3.390625 -8.25 C 3.867188 -8.476562 4.460938 -8.59375 5.171875 -8.59375 C 7.085938 -8.59375 8.046875 -7.566406 8.046875 -5.515625 L 8.046875 0 Z M 7.28125 0 "/></g></g><g transform="translate(127.047808, 309.606255)"><g><path d="M 3.640625 -0.53125 C 4.117188 -0.53125 4.539062 -0.570312 4.90625 -0.65625 L 4.90625 -0.03125 C 4.53125 0.09375 4.101562 0.15625 3.625 0.15625 C 2.875 0.15625 2.320312 -0.0390625 1.96875 -0.4375 C 1.613281 -0.832031 1.4375 -1.457031 1.4375 -2.3125 L 1.4375 -7.765625 L 0.1875 -7.765625 L 0.1875 -8.203125 L 1.4375 -8.5625 L 1.828125 -10.46875 L 2.21875 -10.46875 L 2.21875 -8.421875 L 4.703125 -8.421875 L 4.703125 -7.765625 L 2.21875 -7.765625 L 2.21875 -2.421875 C 2.21875 -1.773438 2.332031 -1.296875 2.5625 -0.984375 C 2.789062 -0.679688 3.148438 -0.53125 3.640625 -0.53125 Z M 3.640625 -0.53125 "/></g></g><g transform="translate(132.367639, 309.606255)"><g><path d="M 7.28125 0 L 7.28125 -5.46875 C 7.28125 -6.3125 7.101562 -6.925781 6.75 -7.3125 C 6.394531 -7.695312 5.84375 -7.890625 5.09375 -7.890625 C 4.082031 -7.890625 3.34375 -7.632812 2.875 -7.125 C 2.40625 -6.613281 2.171875 -5.789062 2.171875 -4.65625 L 2.171875 0 L 1.40625 0 L 1.40625 -8.421875 L 2.0625 -8.421875 L 2.203125 -7.265625 L 2.25 -7.265625 C 2.800781 -8.148438 3.773438 -8.59375 5.171875 -8.59375 C 7.085938 -8.59375 8.046875 -7.566406 8.046875 -5.515625 L 8.046875 0 Z M 7.28125 0 "/></g></g><g transform="translate(141.735505, 309.606255)"><g><path d="M 2.171875 0 L 1.40625 0 L 1.40625 -8.421875 L 2.171875 -8.421875 Z M 1.296875 -10.765625 C 1.296875 -11.265625 1.460938 -11.515625 1.796875 -11.515625 C 1.953125 -11.515625 2.070312 -11.445312 2.15625 -11.3125 C 2.25 -11.1875 2.296875 -11.003906 2.296875 -10.765625 C 2.296875 -10.535156 2.25 -10.351562 2.15625 -10.21875 C 2.070312 -10.082031 1.953125 -10.015625 1.796875 -10.015625 C 1.460938 -10.015625 1.296875 -10.265625 1.296875 -10.765625 Z M 1.296875 -10.765625 "/></g></g><g transform="translate(145.326003, 309.606255)"><g><path d="M 7.28125 0 L 7.28125 -5.46875 C 7.28125 -6.3125 7.101562 -6.925781 6.75 -7.3125 C 6.394531 -7.695312 5.84375 -7.890625 5.09375 -7.890625 C 4.082031 -7.890625 3.34375 -7.632812 2.875 -7.125 C 2.40625 -6.613281 2.171875 -5.789062 2.171875 -4.65625 L 2.171875 0 L 1.40625 0 L 1.40625 -8.421875 L 2.0625 -8.421875 L 2.203125 -7.265625 L 2.25 -7.265625 C 2.800781 -8.148438 3.773438 -8.59375 5.171875 -8.59375 C 7.085938 -8.59375 8.046875 -7.566406 8.046875 -5.515625 L 8.046875 0 Z M 7.28125 0 "/></g></g><g transform="translate(154.693869, 309.606255)"><g><path d="M 7.984375 -8.421875 L 7.984375 -7.890625 L 6.234375 -7.78125 C 6.703125 -7.207031 6.9375 -6.570312 6.9375 -5.875 C 6.9375 -5.0625 6.664062 -4.398438 6.125 -3.890625 C 5.582031 -3.390625 4.859375 -3.140625 3.953125 -3.140625 C 3.566406 -3.140625 3.296875 -3.15625 3.140625 -3.1875 C 2.835938 -3.03125 2.601562 -2.84375 2.4375 -2.625 C 2.28125 -2.40625 2.203125 -2.175781 2.203125 -1.9375 C 2.203125 -1.664062 2.304688 -1.46875 2.515625 -1.34375 C 2.722656 -1.21875 3.066406 -1.15625 3.546875 -1.15625 L 5.015625 -1.15625 C 5.929688 -1.15625 6.628906 -0.96875 7.109375 -0.59375 C 7.597656 -0.226562 7.84375 0.3125 7.84375 1.03125 C 7.84375 1.914062 7.484375 2.597656 6.765625 3.078125 C 6.046875 3.566406 5.019531 3.8125 3.6875 3.8125 C 2.625 3.8125 1.800781 3.609375 1.21875 3.203125 C 0.632812 2.796875 0.34375 2.226562 0.34375 1.5 C 0.34375 0.914062 0.519531 0.429688 0.875 0.046875 C 1.238281 -0.328125 1.726562 -0.585938 2.34375 -0.734375 C 2.09375 -0.835938 1.890625 -0.988281 1.734375 -1.1875 C 1.585938 -1.382812 1.515625 -1.613281 1.515625 -1.875 C 1.515625 -2.4375 1.875 -2.929688 2.59375 -3.359375 C 2.101562 -3.566406 1.71875 -3.882812 1.4375 -4.3125 C 1.164062 -4.75 1.03125 -5.242188 1.03125 -5.796875 C 1.03125 -6.640625 1.296875 -7.316406 1.828125 -7.828125 C 2.367188 -8.335938 3.09375 -8.59375 4 -8.59375 C 4.550781 -8.59375 4.976562 -8.535156 5.28125 -8.421875 Z M 1.15625 1.421875 C 1.15625 2.578125 2.019531 3.15625 3.75 3.15625 C 5.957031 3.15625 7.0625 2.453125 7.0625 1.046875 C 7.0625 0.535156 6.882812 0.171875 6.53125 -0.046875 C 6.1875 -0.273438 5.628906 -0.390625 4.859375 -0.390625 L 3.484375 -0.390625 C 1.929688 -0.390625 1.15625 0.210938 1.15625 1.421875 Z M 1.8125 -5.796875 C 1.8125 -5.148438 2.003906 -4.644531 2.390625 -4.28125 C 2.785156 -3.925781 3.316406 -3.75 3.984375 -3.75 C 4.679688 -3.75 5.21875 -3.925781 5.59375 -4.28125 C 5.96875 -4.632812 6.15625 -5.148438 6.15625 -5.828125 C 6.15625 -6.546875 5.960938 -7.082031 5.578125 -7.4375 C 5.191406 -7.800781 4.65625 -7.984375 3.96875 -7.984375 C 3.300781 -7.984375 2.773438 -7.789062 2.390625 -7.40625 C 2.003906 -7.019531 1.8125 -6.484375 1.8125 -5.796875 Z M 1.8125 -5.796875 "/></g></g><g transform="translate(162.99932, 309.606255)"><g/></g><g transform="translate(167.124903, 309.606255)"><g><path d="M 4.546875 -7.765625 L 2.5625 -7.765625 L 2.5625 0 L 1.796875 0 L 1.796875 -7.765625 L 0.21875 -7.765625 L 0.21875 -8.203125 L 1.796875 -8.5 L 1.796875 -9.140625 C 1.796875 -10.179688 1.984375 -10.941406 2.359375 -11.421875 C 2.742188 -11.898438 3.363281 -12.140625 4.21875 -12.140625 C 4.6875 -12.140625 5.15625 -12.070312 5.625 -11.9375 L 5.4375 -11.265625 C 5.03125 -11.398438 4.617188 -11.46875 4.203125 -11.46875 C 3.609375 -11.46875 3.1875 -11.289062 2.9375 -10.9375 C 2.6875 -10.582031 2.5625 -10.003906 2.5625 -9.203125 L 2.5625 -8.421875 L 4.546875 -8.421875 Z M 4.546875 -7.765625 "/></g></g><g transform="translate(171.886385, 309.606255)"><g><path d="M 6.53125 0 L 6.328125 -1.328125 L 6.265625 -1.328125 C 5.847656 -0.785156 5.414062 -0.398438 4.96875 -0.171875 C 4.519531 0.046875 3.988281 0.15625 3.375 0.15625 C 2.550781 0.15625 1.910156 -0.0507812 1.453125 -0.46875 C 0.992188 -0.894531 0.765625 -1.484375 0.765625 -2.234375 C 0.765625 -3.054688 1.101562 -3.695312 1.78125 -4.15625 C 2.46875 -4.613281 3.460938 -4.851562 4.765625 -4.875 L 6.359375 -4.921875 L 6.359375 -5.484375 C 6.359375 -6.285156 6.195312 -6.890625 5.875 -7.296875 C 5.550781 -7.703125 5.023438 -7.90625 4.296875 -7.90625 C 3.515625 -7.90625 2.707031 -7.6875 1.875 -7.25 L 1.59375 -7.921875 C 2.519531 -8.359375 3.429688 -8.578125 4.328125 -8.578125 C 5.253906 -8.578125 5.945312 -8.332031 6.40625 -7.84375 C 6.863281 -7.363281 7.09375 -6.617188 7.09375 -5.609375 L 7.09375 0 Z M 3.421875 -0.546875 C 4.328125 -0.546875 5.035156 -0.800781 5.546875 -1.3125 C 6.066406 -1.820312 6.328125 -2.535156 6.328125 -3.453125 L 6.328125 -4.28125 L 4.859375 -4.21875 C 3.671875 -4.164062 2.828125 -3.984375 2.328125 -3.671875 C 1.828125 -3.359375 1.578125 -2.867188 1.578125 -2.203125 C 1.578125 -1.679688 1.738281 -1.273438 2.0625 -0.984375 C 2.382812 -0.691406 2.835938 -0.546875 3.421875 -0.546875 Z M 3.421875 -0.546875 "/></g></g><g transform="translate(180.300404, 309.606255)"><g><path d="M 6.640625 -2.1875 C 6.640625 -1.4375 6.351562 -0.859375 5.78125 -0.453125 C 5.207031 -0.046875 4.390625 0.15625 3.328125 0.15625 C 2.203125 0.15625 1.3125 -0.015625 0.65625 -0.359375 L 0.65625 -1.1875 C 1.5 -0.769531 2.390625 -0.5625 3.328125 -0.5625 C 4.160156 -0.5625 4.789062 -0.695312 5.21875 -0.96875 C 5.65625 -1.25 5.875 -1.617188 5.875 -2.078125 C 5.875 -2.503906 5.703125 -2.859375 5.359375 -3.140625 C 5.015625 -3.429688 4.453125 -3.71875 3.671875 -4 C 2.828125 -4.300781 2.234375 -4.5625 1.890625 -4.78125 C 1.546875 -5 1.285156 -5.25 1.109375 -5.53125 C 0.941406 -5.8125 0.859375 -6.148438 0.859375 -6.546875 C 0.859375 -7.171875 1.125 -7.664062 1.65625 -8.03125 C 2.1875 -8.40625 2.925781 -8.59375 3.875 -8.59375 C 4.78125 -8.59375 5.644531 -8.421875 6.46875 -8.078125 L 6.171875 -7.375 C 5.347656 -7.71875 4.582031 -7.890625 3.875 -7.890625 C 3.1875 -7.890625 2.640625 -7.773438 2.234375 -7.546875 C 1.835938 -7.316406 1.640625 -7.003906 1.640625 -6.609375 C 1.640625 -6.171875 1.796875 -5.816406 2.109375 -5.546875 C 2.421875 -5.285156 3.03125 -4.992188 3.9375 -4.671875 C 4.695312 -4.390625 5.25 -4.140625 5.59375 -3.921875 C 5.9375 -3.703125 6.195312 -3.453125 6.375 -3.171875 C 6.550781 -2.898438 6.640625 -2.570312 6.640625 -2.1875 Z M 6.640625 -2.1875 "/></g></g><g transform="translate(187.698536, 309.606255)"><g><path d="M 3.640625 -0.53125 C 4.117188 -0.53125 4.539062 -0.570312 4.90625 -0.65625 L 4.90625 -0.03125 C 4.53125 0.09375 4.101562 0.15625 3.625 0.15625 C 2.875 0.15625 2.320312 -0.0390625 1.96875 -0.4375 C 1.613281 -0.832031 1.4375 -1.457031 1.4375 -2.3125 L 1.4375 -7.765625 L 0.1875 -7.765625 L 0.1875 -8.203125 L 1.4375 -8.5625 L 1.828125 -10.46875 L 2.21875 -10.46875 L 2.21875 -8.421875 L 4.703125 -8.421875 L 4.703125 -7.765625 L 2.21875 -7.765625 L 2.21875 -2.421875 C 2.21875 -1.773438 2.332031 -1.296875 2.5625 -0.984375 C 2.789062 -0.679688 3.148438 -0.53125 3.640625 -0.53125 Z M 3.640625 -0.53125 "/></g></g><g transform="translate(193.018367, 309.606255)"><g/></g><g transform="translate(197.143951, 309.606255)"><g><path d="M 3.640625 -0.53125 C 4.117188 -0.53125 4.539062 -0.570312 4.90625 -0.65625 L 4.90625 -0.03125 C 4.53125 0.09375 4.101562 0.15625 3.625 0.15625 C 2.875 0.15625 2.320312 -0.0390625 1.96875 -0.4375 C 1.613281 -0.832031 1.4375 -1.457031 1.4375 -2.3125 L 1.4375 -7.765625 L 0.1875 -7.765625 L 0.1875 -8.203125 L 1.4375 -8.5625 L 1.828125 -10.46875 L 2.21875 -10.46875 L 2.21875 -8.421875 L 4.703125 -8.421875 L 4.703125 -7.765625 L 2.21875 -7.765625 L 2.21875 -2.421875 C 2.21875 -1.773438 2.332031 -1.296875 2.5625 -0.984375 C 2.789062 -0.679688 3.148438 -0.53125 3.640625 -0.53125 Z M 3.640625 -0.53125 "/></g></g><g transform="translate(202.463782, 309.606255)"><g><path d="M 4.734375 -8.59375 C 5.085938 -8.59375 5.46875 -8.554688 5.875 -8.484375 L 5.734375 -7.75 C 5.378906 -7.832031 5.015625 -7.875 4.640625 -7.875 C 3.921875 -7.875 3.328125 -7.566406 2.859375 -6.953125 C 2.398438 -6.347656 2.171875 -5.582031 2.171875 -4.65625 L 2.171875 0 L 1.40625 0 L 1.40625 -8.421875 L 2.0625 -8.421875 L 2.140625 -6.90625 L 2.1875 -6.90625 C 2.539062 -7.53125 2.910156 -7.96875 3.296875 -8.21875 C 3.691406 -8.46875 4.171875 -8.59375 4.734375 -8.59375 Z M 4.734375 -8.59375 "/></g></g><g transform="translate(208.644402, 309.606255)"><g><path d="M 6.53125 0 L 6.328125 -1.328125 L 6.265625 -1.328125 C 5.847656 -0.785156 5.414062 -0.398438 4.96875 -0.171875 C 4.519531 0.046875 3.988281 0.15625 3.375 0.15625 C 2.550781 0.15625 1.910156 -0.0507812 1.453125 -0.46875 C 0.992188 -0.894531 0.765625 -1.484375 0.765625 -2.234375 C 0.765625 -3.054688 1.101562 -3.695312 1.78125 -4.15625 C 2.46875 -4.613281 3.460938 -4.851562 4.765625 -4.875 L 6.359375 -4.921875 L 6.359375 -5.484375 C 6.359375 -6.285156 6.195312 -6.890625 5.875 -7.296875 C 5.550781 -7.703125 5.023438 -7.90625 4.296875 -7.90625 C 3.515625 -7.90625 2.707031 -7.6875 1.875 -7.25 L 1.59375 -7.921875 C 2.519531 -8.359375 3.429688 -8.578125 4.328125 -8.578125 C 5.253906 -8.578125 5.945312 -8.332031 6.40625 -7.84375 C 6.863281 -7.363281 7.09375 -6.617188 7.09375 -5.609375 L 7.09375 0 Z M 3.421875 -0.546875 C 4.328125 -0.546875 5.035156 -0.800781 5.546875 -1.3125 C 6.066406 -1.820312 6.328125 -2.535156 6.328125 -3.453125 L 6.328125 -4.28125 L 4.859375 -4.21875 C 3.671875 -4.164062 2.828125 -3.984375 2.328125 -3.671875 C 1.828125 -3.359375 1.578125 -2.867188 1.578125 -2.203125 C 1.578125 -1.679688 1.738281 -1.273438 2.0625 -0.984375 C 2.382812 -0.691406 2.835938 -0.546875 3.421875 -0.546875 Z M 3.421875 -0.546875 "/></g></g><g transform="translate(217.058421, 309.606255)"><g><path d="M 7.28125 0 L 7.28125 -5.46875 C 7.28125 -6.3125 7.101562 -6.925781 6.75 -7.3125 C 6.394531 -7.695312 5.84375 -7.890625 5.09375 -7.890625 C 4.082031 -7.890625 3.34375 -7.632812 2.875 -7.125 C 2.40625 -6.613281 2.171875 -5.789062 2.171875 -4.65625 L 2.171875 0 L 1.40625 0 L 1.40625 -8.421875 L 2.0625 -8.421875 L 2.203125 -7.265625 L 2.25 -7.265625 C 2.800781 -8.148438 3.773438 -8.59375 5.171875 -8.59375 C 7.085938 -8.59375 8.046875 -7.566406 8.046875 -5.515625 L 8.046875 0 Z M 7.28125 0 "/></g></g><g transform="translate(226.426287, 309.606255)"><g><path d="M 6.640625 -2.1875 C 6.640625 -1.4375 6.351562 -0.859375 5.78125 -0.453125 C 5.207031 -0.046875 4.390625 0.15625 3.328125 0.15625 C 2.203125 0.15625 1.3125 -0.015625 0.65625 -0.359375 L 0.65625 -1.1875 C 1.5 -0.769531 2.390625 -0.5625 3.328125 -0.5625 C 4.160156 -0.5625 4.789062 -0.695312 5.21875 -0.96875 C 5.65625 -1.25 5.875 -1.617188 5.875 -2.078125 C 5.875 -2.503906 5.703125 -2.859375 5.359375 -3.140625 C 5.015625 -3.429688 4.453125 -3.71875 3.671875 -4 C 2.828125 -4.300781 2.234375 -4.5625 1.890625 -4.78125 C 1.546875 -5 1.285156 -5.25 1.109375 -5.53125 C 0.941406 -5.8125 0.859375 -6.148438 0.859375 -6.546875 C 0.859375 -7.171875 1.125 -7.664062 1.65625 -8.03125 C 2.1875 -8.40625 2.925781 -8.59375 3.875 -8.59375 C 4.78125 -8.59375 5.644531 -8.421875 6.46875 -8.078125 L 6.171875 -7.375 C 5.347656 -7.71875 4.582031 -7.890625 3.875 -7.890625 C 3.1875 -7.890625 2.640625 -7.773438 2.234375 -7.546875 C 1.835938 -7.316406 1.640625 -7.003906 1.640625 -6.609375 C 1.640625 -6.171875 1.796875 -5.816406 2.109375 -5.546875 C 2.421875 -5.285156 3.03125 -4.992188 3.9375 -4.671875 C 4.695312 -4.390625 5.25 -4.140625 5.59375 -3.921875 C 5.9375 -3.703125 6.195312 -3.453125 6.375 -3.171875 C 6.550781 -2.898438 6.640625 -2.570312 6.640625 -2.1875 Z M 6.640625 -2.1875 "/></g></g><g transform="translate(233.824419, 309.606255)"><g><path d="M 6.53125 0 L 6.328125 -1.328125 L 6.265625 -1.328125 C 5.847656 -0.785156 5.414062 -0.398438 4.96875 -0.171875 C 4.519531 0.046875 3.988281 0.15625 3.375 0.15625 C 2.550781 0.15625 1.910156 -0.0507812 1.453125 -0.46875 C 0.992188 -0.894531 0.765625 -1.484375 0.765625 -2.234375 C 0.765625 -3.054688 1.101562 -3.695312 1.78125 -4.15625 C 2.46875 -4.613281 3.460938 -4.851562 4.765625 -4.875 L 6.359375 -4.921875 L 6.359375 -5.484375 C 6.359375 -6.285156 6.195312 -6.890625 5.875 -7.296875 C 5.550781 -7.703125 5.023438 -7.90625 4.296875 -7.90625 C 3.515625 -7.90625 2.707031 -7.6875 1.875 -7.25 L 1.59375 -7.921875 C 2.519531 -8.359375 3.429688 -8.578125 4.328125 -8.578125 C 5.253906 -8.578125 5.945312 -8.332031 6.40625 -7.84375 C 6.863281 -7.363281 7.09375 -6.617188 7.09375 -5.609375 L 7.09375 0 Z M 3.421875 -0.546875 C 4.328125 -0.546875 5.035156 -0.800781 5.546875 -1.3125 C 6.066406 -1.820312 6.328125 -2.535156 6.328125 -3.453125 L 6.328125 -4.28125 L 4.859375 -4.21875 C 3.671875 -4.164062 2.828125 -3.984375 2.328125 -3.671875 C 1.828125 -3.359375 1.578125 -2.867188 1.578125 -2.203125 C 1.578125 -1.679688 1.738281 -1.273438 2.0625 -0.984375 C 2.382812 -0.691406 2.835938 -0.546875 3.421875 -0.546875 Z M 3.421875 -0.546875 "/></g></g><g transform="translate(242.238438, 309.606255)"><g><path d="M 4.78125 0.15625 C 3.570312 0.15625 2.625 -0.222656 1.9375 -0.984375 C 1.257812 -1.742188 0.921875 -2.800781 0.921875 -4.15625 C 0.921875 -5.550781 1.273438 -6.640625 1.984375 -7.421875 C 2.691406 -8.203125 3.660156 -8.59375 4.890625 -8.59375 C 5.617188 -8.59375 6.316406 -8.460938 6.984375 -8.203125 L 6.78125 -7.53125 C 6.050781 -7.769531 5.414062 -7.890625 4.875 -7.890625 C 3.84375 -7.890625 3.0625 -7.566406 2.53125 -6.921875 C 2 -6.285156 1.734375 -5.367188 1.734375 -4.171875 C 1.734375 -3.035156 2 -2.144531 2.53125 -1.5 C 3.0625 -0.863281 3.804688 -0.546875 4.765625 -0.546875 C 5.523438 -0.546875 6.234375 -0.679688 6.890625 -0.953125 L 6.890625 -0.234375 C 6.347656 0.0234375 5.644531 0.15625 4.78125 0.15625 Z M 4.78125 0.15625 "/></g></g><g transform="translate(249.783912, 309.606255)"><g><path d="M 3.640625 -0.53125 C 4.117188 -0.53125 4.539062 -0.570312 4.90625 -0.65625 L 4.90625 -0.03125 C 4.53125 0.09375 4.101562 0.15625 3.625 0.15625 C 2.875 0.15625 2.320312 -0.0390625 1.96875 -0.4375 C 1.613281 -0.832031 1.4375 -1.457031 1.4375 -2.3125 L 1.4375 -7.765625 L 0.1875 -7.765625 L 0.1875 -8.203125 L 1.4375 -8.5625 L 1.828125 -10.46875 L 2.21875 -10.46875 L 2.21875 -8.421875 L 4.703125 -8.421875 L 4.703125 -7.765625 L 2.21875 -7.765625 L 2.21875 -2.421875 C 2.21875 -1.773438 2.332031 -1.296875 2.5625 -0.984375 C 2.789062 -0.679688 3.148438 -0.53125 3.640625 -0.53125 Z M 3.640625 -0.53125 "/></g></g><g transform="translate(255.103744, 309.606255)"><g><path d="M 2.171875 0 L 1.40625 0 L 1.40625 -8.421875 L 2.171875 -8.421875 Z M 1.296875 -10.765625 C 1.296875 -11.265625 1.460938 -11.515625 1.796875 -11.515625 C 1.953125 -11.515625 2.070312 -11.445312 2.15625 -11.3125 C 2.25 -11.1875 2.296875 -11.003906 2.296875 -10.765625 C 2.296875 -10.535156 2.25 -10.351562 2.15625 -10.21875 C 2.070312 -10.082031 1.953125 -10.015625 1.796875 -10.015625 C 1.460938 -10.015625 1.296875 -10.265625 1.296875 -10.765625 Z M 1.296875 -10.765625 "/></g></g><g transform="translate(258.694242, 309.606255)"><g><path d="M 8.375 -4.21875 C 8.375 -2.84375 8.039062 -1.769531 7.375 -1 C 6.707031 -0.226562 5.789062 0.15625 4.625 0.15625 C 3.882812 0.15625 3.234375 -0.0195312 2.671875 -0.375 C 2.109375 -0.738281 1.675781 -1.253906 1.375 -1.921875 C 1.070312 -2.585938 0.921875 -3.351562 0.921875 -4.21875 C 0.921875 -5.59375 1.253906 -6.664062 1.921875 -7.4375 C 2.585938 -8.207031 3.503906 -8.59375 4.671875 -8.59375 C 5.828125 -8.59375 6.734375 -8.203125 7.390625 -7.421875 C 8.046875 -6.640625 8.375 -5.570312 8.375 -4.21875 Z M 1.734375 -4.21875 C 1.734375 -3.0625 1.984375 -2.160156 2.484375 -1.515625 C 2.992188 -0.867188 3.71875 -0.546875 4.65625 -0.546875 C 5.582031 -0.546875 6.300781 -0.867188 6.8125 -1.515625 C 7.320312 -2.160156 7.578125 -3.0625 7.578125 -4.21875 C 7.578125 -5.382812 7.316406 -6.285156 6.796875 -6.921875 C 6.285156 -7.566406 5.566406 -7.890625 4.640625 -7.890625 C 3.703125 -7.890625 2.984375 -7.566406 2.484375 -6.921875 C 1.984375 -6.285156 1.734375 -5.382812 1.734375 -4.21875 Z M 1.734375 -4.21875 "/></g></g><g transform="translate(268.000069, 309.606255)"><g><path d="M 7.28125 0 L 7.28125 -5.46875 C 7.28125 -6.3125 7.101562 -6.925781 6.75 -7.3125 C 6.394531 -7.695312 5.84375 -7.890625 5.09375 -7.890625 C 4.082031 -7.890625 3.34375 -7.632812 2.875 -7.125 C 2.40625 -6.613281 2.171875 -5.789062 2.171875 -4.65625 L 2.171875 0 L 1.40625 0 L 1.40625 -8.421875 L 2.0625 -8.421875 L 2.203125 -7.265625 L 2.25 -7.265625 C 2.800781 -8.148438 3.773438 -8.59375 5.171875 -8.59375 C 7.085938 -8.59375 8.046875 -7.566406 8.046875 -5.515625 L 8.046875 0 Z M 7.28125 0 "/></g></g></g></svg>