<svg xmlns="http://www.w3.org/2000/svg" xmlns:xlink="http://www.w3.org/1999/xlink" width="800" zoomAndPan="magnify" viewBox="0 0 600 129.750003" height="173" preserveAspectRatio="xMidYMid meet" version="1.0"><defs><g/><clipPath id="4ef42bfdb7"><path d="M 111 38 L 196.863281 38 L 196.863281 126 L 111 126 Z M 111 38 " clip-rule="nonzero"/></clipPath></defs><g clip-path="url(#4ef42bfdb7)"><path fill="#0072ff" d="M 112.921875 69.839844 C 113.898438 71.664062 119.808594 79.199219 120.1875 86.964844 C 120.453125 92.347656 123.699219 103.003906 125.269531 109.023438 C 125.820312 111.144531 135.253906 128.746094 148.984375 124.746094 C 160.09375 121.511719 164.757812 114.496094 167.425781 111.042969 C 167.578125 110.816406 167.734375 110.617188 167.890625 110.417969 C 169.609375 108.039062 171.5625 104.648438 173.234375 101.785156 C 174.625 99.390625 175.820312 97.367188 176.535156 96.589844 C 178.085938 94.863281 193.261719 80.371094 195.035156 77.167969 C 196.792969 73.972656 196.058594 72.796875 195.621094 72.277344 C 195.214844 71.722656 194.34375 69.480469 185.679688 77.230469 C 177 84.976562 173.507812 87.914062 172.210938 87.367188 C 170.902344 86.824219 173.09375 81.972656 177.570312 73.976562 C 182.074219 65.960938 186.660156 56.535156 186.300781 53.101562 C 185.949219 49.632812 181.910156 48.359375 179.160156 54.121094 C 176.414062 59.839844 167.691406 78.085938 164.824219 78.234375 C 161.949219 78.394531 167.78125 68.382812 169.945312 63.171875 C 172.105469 57.976562 177.992188 46.394531 177.578125 43.609375 C 177.191406 40.835938 175.167969 39.753906 173.375 41.230469 C 171.574219 42.71875 168.621094 47.195312 165.777344 53.855469 C 162.941406 60.5 159.121094 71.964844 156.59375 72.339844 C 154.046875 72.71875 154.554688 68.519531 159.15625 53.417969 C 162 44.101562 161.886719 38.855469 159.613281 38.605469 C 157.335938 38.363281 156.195312 39.9375 152.898438 49.179688 C 149.597656 58.433594 145.914062 76.558594 141.726562 80.128906 C 137.53125 83.695312 134.675781 85.28125 132.066406 82.695312 C 129.445312 80.09375 127.351562 73.191406 124.128906 69.636719 C 122.148438 67.449219 119.820312 65.238281 117.644531 64.246094 C 116.242188 63.609375 114.898438 63.472656 113.75 64.148438 C 110.789062 65.871094 111.914062 67.96875 112.886719 69.796875 C 112.90625 69.808594 112.910156 69.835938 112.921875 69.839844 " fill-opacity="1" fill-rule="nonzero"/></g><path fill="#ff6a0c" d="M 136.335938 58.898438 C 135.359375 57.074219 129.453125 49.539062 129.070312 41.769531 C 128.804688 36.390625 125.558594 25.730469 123.988281 19.714844 C 123.4375 17.59375 114.003906 -0.0078125 100.273438 3.992188 C 89.164062 7.226562 84.5 14.238281 81.835938 17.695312 C 81.679688 17.921875 81.523438 18.121094 81.367188 18.320312 C 79.648438 20.699219 77.695312 24.089844 76.027344 26.953125 C 74.636719 29.34375 73.441406 31.371094 72.726562 32.148438 C 71.171875 33.875 55.996094 48.367188 54.222656 51.566406 C 52.464844 54.765625 53.203125 55.9375 53.636719 56.460938 C 54.046875 57.015625 54.914062 59.257812 63.582031 51.507812 C 72.257812 43.761719 75.753906 40.824219 77.046875 41.367188 C 78.355469 41.914062 76.164062 46.765625 71.6875 54.761719 C 67.1875 62.773438 62.597656 72.203125 62.957031 75.636719 C 63.308594 79.105469 67.347656 80.378906 70.097656 74.617188 C 72.84375 68.894531 81.566406 50.648438 84.4375 50.503906 C 87.308594 50.34375 81.476562 60.355469 79.3125 65.566406 C 77.152344 70.761719 71.265625 82.34375 71.683594 85.128906 C 72.070312 87.898438 74.09375 88.984375 75.882812 87.503906 C 77.683594 86.019531 80.640625 81.542969 83.484375 74.882812 C 86.316406 68.238281 90.136719 56.773438 92.664062 56.394531 C 95.210938 56.019531 94.707031 60.21875 90.105469 75.320312 C 87.257812 84.632812 87.371094 89.882812 89.644531 90.132812 C 91.921875 90.375 93.0625 88.800781 96.359375 79.558594 C 99.660156 70.304688 103.34375 52.179688 107.53125 48.609375 C 111.726562 45.042969 114.582031 43.457031 117.191406 46.042969 C 119.8125 48.644531 121.90625 55.542969 125.132812 59.097656 C 127.109375 61.285156 129.4375 63.5 131.613281 64.492188 C 133.015625 65.128906 134.359375 65.265625 135.507812 64.589844 C 138.46875 62.867188 137.34375 60.769531 136.371094 58.941406 C 136.351562 58.925781 136.347656 58.898438 136.335938 58.898438 " fill-opacity="1" fill-rule="nonzero"/><g fill="#27323b" fill-opacity="1"><g transform="translate(229.432757, 76.018385)"><g><path d="M 22.695312 -0.390625 C 26.84375 1.402344 29.757812 -3.585938 28.1875 -7.171875 C 27.292969 -9.191406 26.898438 -8.742188 27.125 -10.589844 C 27.234375 -11.710938 27.90625 -13.058594 28.132812 -14.234375 C 28.582031 -17.035156 28.582031 -19.949219 28.355469 -22.753906 C 28.074219 -27.796875 27.179688 -33.566406 22.753906 -36.761719 C 18.828125 -39.5625 12.214844 -39.394531 7.789062 -37.769531 C 2.410156 -35.867188 1.066406 -30.933594 0.898438 -25.609375 C 0.617188 -17.035156 1.679688 -6.835938 11.824219 -5.492188 C 13.449219 -5.324219 16.140625 -5.996094 17.539062 -5.546875 C 19.558594 -4.875 20.398438 -1.34375 22.695312 -0.390625 Z M 13.113281 -12.890625 C 7.789062 -14.011719 9.132812 -25.722656 12.382812 -28.300781 C 19.109375 -33.679688 20.398438 -21.800781 19.332031 -17.875 C 15.578125 -21.015625 11.542969 -17.09375 13.113281 -12.890625 Z M 13.113281 -12.890625 "/></g></g></g><g fill="#27323b" fill-opacity="1"><g transform="translate(258.904955, 76.018385)"><g><path d="M 7.957031 -1.175781 C 12.496094 1.175781 20.621094 -0.167969 23.929688 -4.089844 C 28.132812 -9.023438 27.796875 -18.886719 27.628906 -24.992188 C 27.683594 -27.347656 27.738281 -30.597656 25.777344 -32.277344 C 23.3125 -34.351562 20.566406 -32.558594 19.726562 -29.867188 C 18.828125 -26.898438 20.007812 -22.808594 20.007812 -19.667969 C 20.007812 -16.585938 20.0625 -13.113281 18.660156 -10.253906 C 17.09375 -7.117188 14.347656 -7.957031 13.113281 -11.039062 C 11.824219 -14.347656 12.328125 -18.550781 12.382812 -22.023438 C 12.496094 -26.058594 13.449219 -35.136719 7.230469 -35.191406 C -0.671875 -35.191406 0.785156 -23.425781 1.34375 -18.550781 C 2.074219 -12.664062 1.847656 -4.316406 7.957031 -1.175781 Z M 7.957031 -1.175781 "/></g></g></g><g fill="#27323b" fill-opacity="1"><g transform="translate(287.480659, 76.018385)"><g><path d="M 1.007812 -35.359375 C 3.304688 -27.628906 13.617188 -34.464844 11.824219 -40.125 C 12.722656 -42.925781 7.789062 -43.992188 6.050781 -43.488281 C 2.800781 -42.589844 0.0546875 -38.667969 1.007812 -35.359375 Z M 8.351562 -0.785156 C 10.03125 -2.015625 10.253906 -4.089844 10.648438 -5.996094 C 11.878906 -12.273438 13.28125 -21.070312 10.480469 -27.125 C 9.191406 -29.867188 5.941406 -31.773438 3.53125 -29.253906 C 1.792969 -27.402344 1.792969 -23.367188 1.570312 -21.070312 C 1.175781 -16.082031 -0.0546875 -7.621094 2.128906 -2.914062 C 3.304688 -0.449219 5.882812 0.953125 8.351562 -0.785156 Z M 8.351562 -0.785156 "/></g></g></g><g fill="#27323b" fill-opacity="1"><g transform="translate(300.423773, 76.018385)"><g><path d="M 12.722656 -0.726562 C 17.429688 0.726562 23.984375 0.449219 24.65625 -5.546875 C 25.441406 -12.382812 18.996094 -10.421875 14.570312 -12.328125 C 8.742188 -14.792969 11.265625 -20.398438 14.90625 -23.871094 C 19.222656 -25.273438 26.003906 -26.507812 25.777344 -32.390625 C 25.496094 -38.441406 18.660156 -37.097656 14.683594 -35.753906 C 4.652344 -32.390625 -1.847656 -21.296875 1.90625 -11.039062 C 3.753906 -6.109375 7.734375 -2.355469 12.722656 -0.726562 Z M 12.722656 -0.726562 "/></g></g></g><g fill="#27323b" fill-opacity="1"><g transform="translate(327.038401, 76.018385)"><g><path d="M 23.535156 -1.511719 C 28.804688 -5.773438 19.894531 -17.597656 15.746094 -20.007812 C 18.828125 -21.800781 30.484375 -27.011719 27.179688 -32.445312 C 24.039062 -37.714844 10.535156 -23.871094 8.855469 -22.078125 C 9.75 -25.273438 12.046875 -38.722656 4.484375 -36.480469 C 1.234375 -35.527344 1.34375 -31.382812 1.34375 -28.691406 C 1.402344 -24.992188 1.34375 -21.238281 1.289062 -17.539062 C 1.234375 -14.121094 -1.175781 -0.167969 5.605469 -1.570312 C 8.183594 -2.074219 8.910156 -5.4375 9.191406 -7.566406 C 9.359375 -9.023438 8.292969 -15.636719 8.964844 -16.027344 C 11.207031 -11.152344 15.355469 4.988281 23.535156 -1.511719 Z M 23.535156 -1.511719 "/></g></g></g><g fill="#27323b" fill-opacity="1"><g transform="translate(355.614106, 76.018385)"><g><path d="M 9.359375 -0.335938 C 15.128906 0.558594 22.304688 0.0546875 24.882812 -6.109375 C 26.058594 -8.964844 25.945312 -12.441406 24.65625 -15.1875 C 23.144531 -18.492188 20.175781 -19.78125 17.597656 -22.023438 C 10.703125 -27.851562 17.933594 -33.398438 23.984375 -35.304688 C 27.402344 -36.425781 26.226562 -40.066406 23.929688 -41.523438 C 21.183594 -43.261719 17.261719 -42.925781 14.289062 -42.03125 C 8.183594 -40.292969 3.53125 -35.304688 2.632812 -28.917969 C 1.738281 -22.472656 4.539062 -17.875 10.199219 -15.128906 C 12.273438 -14.121094 15.972656 -12.160156 14.179688 -9.246094 C 12.046875 -5.714844 7.902344 -9.191406 5.15625 -9.191406 C 1.90625 -9.246094 -0.503906 -6.613281 1.625 -3.53125 C 3.195312 -1.289062 6.835938 -0.785156 9.359375 -0.335938 Z M 9.359375 -0.335938 "/></g></g></g><g fill="#27323b" fill-opacity="1"><g transform="translate(382.564917, 76.018385)"><g><path d="M 4.316406 -0.335938 C 6.332031 0.28125 8.855469 0.113281 10.199219 -1.570312 C 11.65625 -3.363281 11.207031 -7.789062 12.832031 -9.132812 C 13.730469 -9.808594 21.574219 -9.191406 21.855469 -8.964844 C 23.367188 -7.675781 23.648438 -4.089844 24.769531 -2.464844 C 26.339844 -0.167969 28.410156 -0.0546875 30.597656 -1.792969 C 32.78125 -3.585938 32.558594 -5.4375 31.664062 -7.902344 L 25.105469 -26.339844 C 23.535156 -30.820312 22.472656 -37.714844 16.585938 -37.601562 C 11.375 -37.433594 8.796875 -34.296875 7.285156 -29.699219 C 5.492188 -24.265625 3.8125 -18.773438 2.464844 -13.226562 C 1.457031 -9.078125 -1.457031 -2.015625 4.316406 -0.335938 Z M 15.410156 -17.09375 C 15.914062 -18.773438 16.476562 -20.453125 16.980469 -22.136719 C 17.429688 -20.621094 17.933594 -19.164062 18.4375 -17.652344 C 17.429688 -17.484375 16.417969 -17.261719 15.410156 -17.09375 Z M 15.410156 -17.09375 "/></g></g></g><g fill="#27323b" fill-opacity="1"><g transform="translate(415.73514, 76.018385)"><g><path d="M 21.6875 -0.898438 C 25.328125 -2.914062 25.441406 -8.574219 22.023438 -10.871094 C 19.558594 -12.496094 16.980469 -11.9375 14.234375 -12.441406 C 12.160156 -12.832031 12.554688 -11.878906 12.214844 -14.234375 C 12.046875 -15.46875 12.382812 -16.925781 12.441406 -18.15625 C 12.609375 -23.144531 13.449219 -29.308594 11.824219 -34.183594 C 10.535156 -38.164062 6.386719 -39.621094 3.472656 -36.203125 C 0.726562 -32.953125 0.953125 -27.292969 0.953125 -23.367188 C 0.898438 -18.71875 0.671875 -13.671875 1.121094 -9.023438 C 1.625 -3.867188 4.929688 -1.738281 9.808594 -0.953125 C 13.167969 -0.390625 18.550781 0.839844 21.6875 -0.898438 Z M 21.6875 -0.898438 "/></g></g></g><g fill="#27323b" fill-opacity="1"><g transform="translate(441.061058, 76.018385)"><g><path d="M 9.300781 -0.113281 C 12.777344 -0.28125 16.25 -0.222656 19.667969 -0.390625 C 22.527344 -0.558594 24.65625 -0.953125 25.777344 -3.753906 C 26.449219 -5.605469 26.84375 -8.964844 24.992188 -10.367188 C 22.921875 -11.878906 19.667969 -11.207031 17.316406 -11.320312 C 15.1875 -11.433594 9.695312 -13.167969 12.890625 -16.140625 C 14.792969 -17.933594 17.765625 -15.804688 20.007812 -16.417969 C 22.472656 -17.148438 23.03125 -19.949219 22.753906 -22.246094 C 22.582031 -24.210938 21.910156 -25.328125 20.007812 -26.058594 C 18.15625 -26.730469 14.289062 -25.496094 12.832031 -26.5625 C 10.871094 -27.964844 12.664062 -30.597656 14.066406 -30.878906 C 16.195312 -31.382812 18.492188 -29.925781 20.734375 -30.820312 C 22.695312 -31.605469 23.703125 -33.457031 23.425781 -35.585938 C 23.03125 -38.554688 20.566406 -39.058594 17.988281 -39.453125 C 14.179688 -40.011719 4.089844 -41.917969 2.410156 -37.210938 C 1.679688 -35.191406 2.074219 -32.390625 1.960938 -30.316406 C 1.847656 -26.5625 1.679688 -22.808594 1.511719 -19.054688 C 1.34375 -15.859375 1.234375 -12.664062 1.066406 -9.46875 C 0.953125 -6.949219 0.222656 -3.304688 2.242188 -1.34375 C 4.089844 0.449219 7.0625 -0.0546875 9.300781 -0.113281 Z M 9.300781 -0.113281 "/></g></g></g><g fill="#2e4238" fill-opacity="1"><g transform="translate(232.539662, 97.776245)"><g><path d="M 3.453125 -7.546875 C 4.421875 -7.546875 5.289062 -7.289062 6.0625 -6.78125 L 5.546875 -5.65625 C 4.785156 -6.125 4.050781 -6.359375 3.34375 -6.359375 C 2.96875 -6.359375 2.671875 -6.289062 2.453125 -6.15625 C 2.234375 -6.019531 2.125 -5.828125 2.125 -5.578125 C 2.125 -5.328125 2.222656 -5.113281 2.421875 -4.9375 C 2.628906 -4.757812 2.878906 -4.628906 3.171875 -4.546875 C 3.472656 -4.472656 3.796875 -4.375 4.140625 -4.25 C 4.492188 -4.125 4.820312 -3.988281 5.125 -3.84375 C 5.425781 -3.707031 5.675781 -3.488281 5.875 -3.1875 C 6.070312 -2.894531 6.171875 -2.539062 6.171875 -2.125 C 6.171875 -1.46875 5.90625 -0.941406 5.375 -0.546875 C 4.851562 -0.148438 4.175781 0.046875 3.34375 0.046875 C 2.769531 0.046875 2.210938 -0.0546875 1.671875 -0.265625 C 1.140625 -0.484375 0.675781 -0.773438 0.28125 -1.140625 L 0.828125 -2.234375 C 1.203125 -1.890625 1.613281 -1.617188 2.0625 -1.421875 C 2.519531 -1.234375 2.953125 -1.140625 3.359375 -1.140625 C 3.804688 -1.140625 4.148438 -1.21875 4.390625 -1.375 C 4.640625 -1.539062 4.765625 -1.769531 4.765625 -2.0625 C 4.765625 -2.3125 4.660156 -2.523438 4.453125 -2.703125 C 4.253906 -2.878906 4.003906 -3.003906 3.703125 -3.078125 C 3.410156 -3.160156 3.085938 -3.257812 2.734375 -3.375 C 2.390625 -3.5 2.066406 -3.625 1.765625 -3.75 C 1.460938 -3.882812 1.210938 -4.097656 1.015625 -4.390625 C 0.816406 -4.691406 0.71875 -5.046875 0.71875 -5.453125 C 0.71875 -6.085938 0.96875 -6.59375 1.46875 -6.96875 C 1.96875 -7.351562 2.628906 -7.546875 3.453125 -7.546875 Z M 3.453125 -7.546875 "/></g></g></g><g fill="#2e4238" fill-opacity="1"><g transform="translate(240.620222, 97.776245)"><g><path d="M 4.1875 -5.734375 C 4.988281 -5.734375 5.640625 -5.460938 6.140625 -4.921875 C 6.648438 -4.390625 6.90625 -3.691406 6.90625 -2.828125 C 6.90625 -1.972656 6.65625 -1.28125 6.15625 -0.75 C 5.664062 -0.21875 5.015625 0.046875 4.203125 0.046875 C 3.296875 0.046875 2.625 -0.296875 2.1875 -0.984375 L 2.1875 2.078125 L 0.96875 2.078125 L 0.96875 -5.6875 L 2.1875 -5.6875 L 2.1875 -4.703125 C 2.625 -5.390625 3.289062 -5.734375 4.1875 -5.734375 Z M 2.671875 -1.515625 C 3.003906 -1.171875 3.421875 -1 3.921875 -1 C 4.429688 -1 4.847656 -1.171875 5.171875 -1.515625 C 5.492188 -1.867188 5.65625 -2.320312 5.65625 -2.875 C 5.65625 -3.40625 5.492188 -3.84375 5.171875 -4.1875 C 4.847656 -4.53125 4.429688 -4.703125 3.921875 -4.703125 C 3.421875 -4.703125 3.003906 -4.53125 2.671875 -4.1875 C 2.347656 -3.84375 2.1875 -3.40625 2.1875 -2.875 C 2.1875 -2.320312 2.347656 -1.867188 2.671875 -1.515625 Z M 2.671875 -1.515625 "/></g></g></g><g fill="#2e4238" fill-opacity="1"><g transform="translate(249.321493, 97.776245)"><g><path d="M 3.25 -5.734375 C 4.226562 -5.734375 4.9375 -5.4375 5.375 -4.84375 C 5.8125 -4.257812 5.992188 -3.4375 5.921875 -2.375 L 1.609375 -2.375 C 1.710938 -1.9375 1.921875 -1.585938 2.234375 -1.328125 C 2.546875 -1.078125 2.925781 -0.953125 3.375 -0.953125 C 4.019531 -0.953125 4.554688 -1.171875 4.984375 -1.609375 L 5.640625 -0.921875 C 5.054688 -0.273438 4.269531 0.046875 3.28125 0.046875 C 2.40625 0.046875 1.703125 -0.21875 1.171875 -0.75 C 0.640625 -1.28125 0.375 -1.972656 0.375 -2.828125 C 0.375 -3.691406 0.640625 -4.390625 1.171875 -4.921875 C 1.710938 -5.453125 2.40625 -5.722656 3.25 -5.734375 Z M 1.59375 -3.28125 L 4.84375 -3.28125 C 4.820312 -3.726562 4.664062 -4.082031 4.375 -4.34375 C 4.09375 -4.613281 3.722656 -4.75 3.265625 -4.75 C 2.816406 -4.75 2.441406 -4.613281 2.140625 -4.34375 C 1.847656 -4.082031 1.664062 -3.726562 1.59375 -3.28125 Z M 1.59375 -3.28125 "/></g></g></g><g fill="#2e4238" fill-opacity="1"><g transform="translate(257.038186, 97.776245)"><g><path d="M 3.25 -5.734375 C 4.226562 -5.734375 4.9375 -5.4375 5.375 -4.84375 C 5.8125 -4.257812 5.992188 -3.4375 5.921875 -2.375 L 1.609375 -2.375 C 1.710938 -1.9375 1.921875 -1.585938 2.234375 -1.328125 C 2.546875 -1.078125 2.925781 -0.953125 3.375 -0.953125 C 4.019531 -0.953125 4.554688 -1.171875 4.984375 -1.609375 L 5.640625 -0.921875 C 5.054688 -0.273438 4.269531 0.046875 3.28125 0.046875 C 2.40625 0.046875 1.703125 -0.21875 1.171875 -0.75 C 0.640625 -1.28125 0.375 -1.972656 0.375 -2.828125 C 0.375 -3.691406 0.640625 -4.390625 1.171875 -4.921875 C 1.710938 -5.453125 2.40625 -5.722656 3.25 -5.734375 Z M 1.59375 -3.28125 L 4.84375 -3.28125 C 4.820312 -3.726562 4.664062 -4.082031 4.375 -4.34375 C 4.09375 -4.613281 3.722656 -4.75 3.265625 -4.75 C 2.816406 -4.75 2.441406 -4.613281 2.140625 -4.34375 C 1.847656 -4.082031 1.664062 -3.726562 1.59375 -3.28125 Z M 1.59375 -3.28125 "/></g></g></g><g fill="#2e4238" fill-opacity="1"><g transform="translate(264.75488, 97.776245)"><g><path d="M 6.34375 -7.9375 L 6.34375 0 L 5.109375 0 L 5.109375 -0.96875 C 4.679688 -0.289062 4.015625 0.046875 3.109375 0.046875 C 2.296875 0.046875 1.632812 -0.21875 1.125 -0.75 C 0.625 -1.289062 0.375 -2 0.375 -2.875 C 0.375 -3.726562 0.625 -4.421875 1.125 -4.953125 C 1.625 -5.484375 2.273438 -5.75 3.078125 -5.75 C 3.992188 -5.75 4.671875 -5.398438 5.109375 -4.703125 L 5.109375 -7.9375 Z M 2.09375 -1.484375 C 2.425781 -1.140625 2.847656 -0.96875 3.359375 -0.96875 C 3.867188 -0.96875 4.285156 -1.140625 4.609375 -1.484375 C 4.941406 -1.835938 5.109375 -2.285156 5.109375 -2.828125 C 5.109375 -3.378906 4.941406 -3.828125 4.609375 -4.171875 C 4.285156 -4.523438 3.867188 -4.703125 3.359375 -4.703125 C 2.847656 -4.703125 2.425781 -4.523438 2.09375 -4.171875 C 1.769531 -3.828125 1.609375 -3.378906 1.609375 -2.828125 C 1.609375 -2.285156 1.769531 -1.835938 2.09375 -1.484375 Z M 2.09375 -1.484375 "/></g></g></g><g fill="#2e4238" fill-opacity="1"><g transform="translate(273.477554, 97.776245)"><g/></g></g><g fill="#2e4238" fill-opacity="1"><g transform="translate(277.662597, 97.776245)"><g/></g></g><g fill="#2e4238" fill-opacity="1"><g transform="translate(277.662597, 97.776245)"><g/></g></g><g fill="#2e4238" fill-opacity="1"><g transform="translate(277.662597, 97.776245)"><g><path d="M 6.078125 -5.6875 L 6.078125 0 L 4.84375 0 L 4.84375 -1.109375 C 4.476562 -0.359375 3.800781 0.0234375 2.8125 0.046875 C 2.164062 0.046875 1.65625 -0.148438 1.28125 -0.546875 C 0.914062 -0.941406 0.734375 -1.476562 0.734375 -2.15625 L 0.734375 -5.6875 L 1.953125 -5.6875 L 1.953125 -2.5 C 1.953125 -2.070312 2.070312 -1.734375 2.3125 -1.484375 C 2.550781 -1.234375 2.875 -1.109375 3.28125 -1.109375 C 3.757812 -1.117188 4.140625 -1.289062 4.421875 -1.625 C 4.703125 -1.957031 4.84375 -2.378906 4.84375 -2.890625 L 4.84375 -5.6875 Z M 6.078125 -5.6875 "/></g></g></g><g fill="#2e4238" fill-opacity="1"><g transform="translate(286.07491, 97.776245)"><g><path d="M 4.1875 -5.734375 C 4.988281 -5.734375 5.640625 -5.460938 6.140625 -4.921875 C 6.648438 -4.390625 6.90625 -3.691406 6.90625 -2.828125 C 6.90625 -1.972656 6.65625 -1.28125 6.15625 -0.75 C 5.664062 -0.21875 5.015625 0.046875 4.203125 0.046875 C 3.296875 0.046875 2.625 -0.296875 2.1875 -0.984375 L 2.1875 2.078125 L 0.96875 2.078125 L 0.96875 -5.6875 L 2.1875 -5.6875 L 2.1875 -4.703125 C 2.625 -5.390625 3.289062 -5.734375 4.1875 -5.734375 Z M 2.671875 -1.515625 C 3.003906 -1.171875 3.421875 -1 3.921875 -1 C 4.429688 -1 4.847656 -1.171875 5.171875 -1.515625 C 5.492188 -1.867188 5.65625 -2.320312 5.65625 -2.875 C 5.65625 -3.40625 5.492188 -3.84375 5.171875 -4.1875 C 4.847656 -4.53125 4.429688 -4.703125 3.921875 -4.703125 C 3.421875 -4.703125 3.003906 -4.53125 2.671875 -4.1875 C 2.347656 -3.84375 2.1875 -3.40625 2.1875 -2.875 C 2.1875 -2.320312 2.347656 -1.867188 2.671875 -1.515625 Z M 2.671875 -1.515625 "/></g></g></g><g fill="#2e4238" fill-opacity="1"><g transform="translate(294.77618, 97.776245)"><g/></g></g><g fill="#2e4238" fill-opacity="1"><g transform="translate(298.961222, 97.776245)"><g><path d="M 5.734375 -5.6875 L 3.140625 0.78125 C 2.796875 1.675781 2.179688 2.125 1.296875 2.125 C 0.804688 2.125 0.367188 1.960938 -0.015625 1.640625 L 0.5 0.703125 C 0.757812 0.878906 1.003906 0.96875 1.234375 0.96875 C 1.617188 0.96875 1.910156 0.757812 2.109375 0.34375 L 2.296875 -0.078125 L -0.046875 -5.6875 L 1.21875 -5.6875 L 2.921875 -1.375 L 4.5 -5.6875 Z M 5.734375 -5.6875 "/></g></g></g><g fill="#2e4238" fill-opacity="1"><g transform="translate(306.067899, 97.776245)"><g><path d="M 3.34375 -5.734375 C 4.226562 -5.734375 4.941406 -5.46875 5.484375 -4.9375 C 6.035156 -4.40625 6.3125 -3.707031 6.3125 -2.84375 C 6.3125 -1.988281 6.035156 -1.289062 5.484375 -0.75 C 4.941406 -0.21875 4.226562 0.046875 3.34375 0.046875 C 2.457031 0.046875 1.738281 -0.21875 1.1875 -0.75 C 0.644531 -1.289062 0.375 -1.988281 0.375 -2.84375 C 0.375 -3.707031 0.644531 -4.40625 1.1875 -4.9375 C 1.738281 -5.46875 2.457031 -5.734375 3.34375 -5.734375 Z M 3.34375 -4.671875 C 2.832031 -4.671875 2.414062 -4.5 2.09375 -4.15625 C 1.769531 -3.820312 1.609375 -3.382812 1.609375 -2.84375 C 1.609375 -2.289062 1.769531 -1.84375 2.09375 -1.5 C 2.414062 -1.15625 2.832031 -0.984375 3.34375 -0.984375 C 3.863281 -0.984375 4.28125 -1.15625 4.59375 -1.5 C 4.914062 -1.84375 5.078125 -2.289062 5.078125 -2.84375 C 5.078125 -3.382812 4.914062 -3.820312 4.59375 -4.15625 C 4.269531 -4.5 3.851562 -4.671875 3.34375 -4.671875 Z M 3.34375 -4.671875 "/></g></g></g><g fill="#2e4238" fill-opacity="1"><g transform="translate(314.180559, 97.776245)"><g><path d="M 6.078125 -5.6875 L 6.078125 0 L 4.84375 0 L 4.84375 -1.109375 C 4.476562 -0.359375 3.800781 0.0234375 2.8125 0.046875 C 2.164062 0.046875 1.65625 -0.148438 1.28125 -0.546875 C 0.914062 -0.941406 0.734375 -1.476562 0.734375 -2.15625 L 0.734375 -5.6875 L 1.953125 -5.6875 L 1.953125 -2.5 C 1.953125 -2.070312 2.070312 -1.734375 2.3125 -1.484375 C 2.550781 -1.234375 2.875 -1.109375 3.28125 -1.109375 C 3.757812 -1.117188 4.140625 -1.289062 4.421875 -1.625 C 4.703125 -1.957031 4.84375 -2.378906 4.84375 -2.890625 L 4.84375 -5.6875 Z M 6.078125 -5.6875 "/></g></g></g><g fill="#2e4238" fill-opacity="1"><g transform="translate(322.592872, 97.776245)"><g><path d="M 2.140625 -5.6875 L 2.140625 -4.5625 C 2.535156 -5.34375 3.191406 -5.734375 4.109375 -5.734375 L 4.109375 -4.5625 C 3.546875 -4.59375 3.085938 -4.457031 2.734375 -4.15625 C 2.390625 -3.863281 2.191406 -3.46875 2.140625 -2.96875 L 2.140625 0 L 0.90625 0 L 0.90625 -5.6875 Z M 2.140625 -5.6875 "/></g></g></g><g fill="#2e4238" fill-opacity="1"><g transform="translate(328.233383, 97.776245)"><g/></g></g><g fill="#2e4238" fill-opacity="1"><g transform="translate(332.418426, 97.776245)"><g><path d="M 3.828125 -1.3125 L 4.125 -0.359375 C 3.65625 -0.0859375 3.1875 0.046875 2.71875 0.046875 C 2.257812 0.046875 1.878906 -0.0859375 1.578125 -0.359375 C 1.285156 -0.640625 1.140625 -1.054688 1.140625 -1.609375 L 1.140625 -4.5625 L 0.328125 -4.5625 L 0.328125 -5.484375 L 1.140625 -5.484375 L 1.140625 -7.046875 L 2.359375 -7.046875 L 2.359375 -5.484375 L 4.03125 -5.484375 L 4.03125 -4.5625 L 2.359375 -4.5625 L 2.359375 -1.828125 C 2.359375 -1.546875 2.40625 -1.347656 2.5 -1.234375 C 2.601562 -1.117188 2.757812 -1.0625 2.96875 -1.0625 C 3.195312 -1.0625 3.484375 -1.144531 3.828125 -1.3125 Z M 3.828125 -1.3125 "/></g></g></g><g fill="#2e4238" fill-opacity="1"><g transform="translate(338.198062, 97.776245)"><g><path d="M 2.140625 -5.6875 L 2.140625 -4.5625 C 2.535156 -5.34375 3.191406 -5.734375 4.109375 -5.734375 L 4.109375 -4.5625 C 3.546875 -4.59375 3.085938 -4.457031 2.734375 -4.15625 C 2.390625 -3.863281 2.191406 -3.46875 2.140625 -2.96875 L 2.140625 0 L 0.90625 0 L 0.90625 -5.6875 Z M 2.140625 -5.6875 "/></g></g></g><g fill="#2e4238" fill-opacity="1"><g transform="translate(343.83858, 97.776245)"><g><path d="M 4.328125 0 L 4.328125 -0.703125 C 3.921875 -0.203125 3.289062 0.046875 2.4375 0.046875 C 1.832031 0.046875 1.347656 -0.113281 0.984375 -0.4375 C 0.617188 -0.769531 0.4375 -1.195312 0.4375 -1.71875 C 0.4375 -2.238281 0.625 -2.648438 1 -2.953125 C 1.382812 -3.265625 1.914062 -3.421875 2.59375 -3.421875 L 4.3125 -3.421875 L 4.3125 -3.59375 C 4.3125 -3.957031 4.195312 -4.238281 3.96875 -4.4375 C 3.738281 -4.632812 3.398438 -4.734375 2.953125 -4.734375 C 2.398438 -4.734375 1.84375 -4.539062 1.28125 -4.15625 L 0.765625 -5.015625 C 1.203125 -5.273438 1.59375 -5.457031 1.9375 -5.5625 C 2.289062 -5.675781 2.71875 -5.734375 3.21875 -5.734375 C 3.945312 -5.734375 4.507812 -5.554688 4.90625 -5.203125 C 5.3125 -4.847656 5.515625 -4.359375 5.515625 -3.734375 L 5.53125 0 Z M 2.703125 -0.921875 C 3.128906 -0.921875 3.492188 -1.019531 3.796875 -1.21875 C 4.109375 -1.425781 4.28125 -1.6875 4.3125 -2 L 4.3125 -2.53125 L 2.765625 -2.53125 C 2.359375 -2.53125 2.0625 -2.46875 1.875 -2.34375 C 1.6875 -2.226562 1.59375 -2.035156 1.59375 -1.765625 C 1.59375 -1.503906 1.691406 -1.296875 1.890625 -1.140625 C 2.085938 -0.992188 2.359375 -0.921875 2.703125 -0.921875 Z M 2.703125 -0.921875 "/></g></g></g><g fill="#2e4238" fill-opacity="1"><g transform="translate(351.533873, 97.776245)"><g><path d="M 4.234375 -5.734375 C 4.898438 -5.734375 5.421875 -5.535156 5.796875 -5.140625 C 6.171875 -4.753906 6.359375 -4.222656 6.359375 -3.546875 L 6.359375 0 L 5.125 0 L 5.125 -3.203125 C 5.125 -3.628906 5.003906 -3.960938 4.765625 -4.203125 C 4.523438 -4.453125 4.1875 -4.578125 3.75 -4.578125 C 3.300781 -4.566406 2.929688 -4.421875 2.640625 -4.140625 C 2.347656 -3.859375 2.179688 -3.488281 2.140625 -3.03125 L 2.140625 0 L 0.90625 0 L 0.90625 -5.6875 L 2.140625 -5.6875 L 2.140625 -4.609375 C 2.523438 -5.359375 3.222656 -5.734375 4.234375 -5.734375 Z M 4.234375 -5.734375 "/></g></g></g><g fill="#2e4238" fill-opacity="1"><g transform="translate(360.053215, 97.776245)"><g><path d="M 2.609375 -5.75 C 3.390625 -5.75 4.054688 -5.554688 4.609375 -5.171875 L 4.15625 -4.265625 C 3.613281 -4.597656 3.066406 -4.765625 2.515625 -4.765625 C 1.960938 -4.765625 1.6875 -4.578125 1.6875 -4.203125 C 1.6875 -4.015625 1.785156 -3.859375 1.984375 -3.734375 C 2.191406 -3.609375 2.441406 -3.503906 2.734375 -3.421875 C 3.035156 -3.347656 3.332031 -3.253906 3.625 -3.140625 C 3.925781 -3.023438 4.179688 -2.84375 4.390625 -2.59375 C 4.597656 -2.34375 4.703125 -2.023438 4.703125 -1.640625 C 4.703125 -1.097656 4.492188 -0.679688 4.078125 -0.390625 C 3.660156 -0.0976562 3.140625 0.046875 2.515625 0.046875 C 2.085938 0.046875 1.664062 -0.0195312 1.25 -0.15625 C 0.84375 -0.300781 0.5 -0.5 0.21875 -0.75 L 0.65625 -1.625 C 0.90625 -1.414062 1.207031 -1.242188 1.5625 -1.109375 C 1.914062 -0.984375 2.25 -0.921875 2.5625 -0.921875 C 2.84375 -0.921875 3.066406 -0.96875 3.234375 -1.0625 C 3.410156 -1.164062 3.5 -1.320312 3.5 -1.53125 C 3.5 -1.75 3.394531 -1.921875 3.1875 -2.046875 C 2.976562 -2.171875 2.726562 -2.269531 2.4375 -2.34375 C 2.144531 -2.425781 1.851562 -2.519531 1.5625 -2.625 C 1.269531 -2.738281 1.019531 -2.914062 0.8125 -3.15625 C 0.613281 -3.40625 0.515625 -3.71875 0.515625 -4.09375 C 0.515625 -4.632812 0.710938 -5.046875 1.109375 -5.328125 C 1.515625 -5.609375 2.015625 -5.75 2.609375 -5.75 Z M 2.609375 -5.75 "/></g></g></g><g fill="#2e4238" fill-opacity="1"><g transform="translate(366.507074, 97.776245)"><g><path d="M 4.328125 0 L 4.328125 -0.703125 C 3.921875 -0.203125 3.289062 0.046875 2.4375 0.046875 C 1.832031 0.046875 1.347656 -0.113281 0.984375 -0.4375 C 0.617188 -0.769531 0.4375 -1.195312 0.4375 -1.71875 C 0.4375 -2.238281 0.625 -2.648438 1 -2.953125 C 1.382812 -3.265625 1.914062 -3.421875 2.59375 -3.421875 L 4.3125 -3.421875 L 4.3125 -3.59375 C 4.3125 -3.957031 4.195312 -4.238281 3.96875 -4.4375 C 3.738281 -4.632812 3.398438 -4.734375 2.953125 -4.734375 C 2.398438 -4.734375 1.84375 -4.539062 1.28125 -4.15625 L 0.765625 -5.015625 C 1.203125 -5.273438 1.59375 -5.457031 1.9375 -5.5625 C 2.289062 -5.675781 2.71875 -5.734375 3.21875 -5.734375 C 3.945312 -5.734375 4.507812 -5.554688 4.90625 -5.203125 C 5.3125 -4.847656 5.515625 -4.359375 5.515625 -3.734375 L 5.53125 0 Z M 2.703125 -0.921875 C 3.128906 -0.921875 3.492188 -1.019531 3.796875 -1.21875 C 4.109375 -1.425781 4.28125 -1.6875 4.3125 -2 L 4.3125 -2.53125 L 2.765625 -2.53125 C 2.359375 -2.53125 2.0625 -2.46875 1.875 -2.34375 C 1.6875 -2.226562 1.59375 -2.035156 1.59375 -1.765625 C 1.59375 -1.503906 1.691406 -1.296875 1.890625 -1.140625 C 2.085938 -0.992188 2.359375 -0.921875 2.703125 -0.921875 Z M 2.703125 -0.921875 "/></g></g></g><g fill="#2e4238" fill-opacity="1"><g transform="translate(374.202367, 97.776245)"><g><path d="M 3.25 -5.734375 C 4.269531 -5.734375 5.050781 -5.425781 5.59375 -4.8125 L 4.921875 -4.015625 C 4.492188 -4.453125 3.953125 -4.664062 3.296875 -4.65625 C 2.804688 -4.65625 2.398438 -4.484375 2.078125 -4.140625 C 1.765625 -3.804688 1.609375 -3.367188 1.609375 -2.828125 C 1.609375 -2.296875 1.765625 -1.859375 2.078125 -1.515625 C 2.398438 -1.179688 2.804688 -1.015625 3.296875 -1.015625 C 4.023438 -1.015625 4.585938 -1.242188 4.984375 -1.703125 L 5.65625 -1.015625 C 5.125 -0.304688 4.320312 0.046875 3.25 0.046875 C 2.394531 0.046875 1.703125 -0.21875 1.171875 -0.75 C 0.640625 -1.28125 0.375 -1.976562 0.375 -2.84375 C 0.375 -3.695312 0.640625 -4.390625 1.171875 -4.921875 C 1.703125 -5.460938 2.394531 -5.734375 3.25 -5.734375 Z M 3.25 -5.734375 "/></g></g></g><g fill="#2e4238" fill-opacity="1"><g transform="translate(381.662209, 97.776245)"><g><path d="M 3.828125 -1.3125 L 4.125 -0.359375 C 3.65625 -0.0859375 3.1875 0.046875 2.71875 0.046875 C 2.257812 0.046875 1.878906 -0.0859375 1.578125 -0.359375 C 1.285156 -0.640625 1.140625 -1.054688 1.140625 -1.609375 L 1.140625 -4.5625 L 0.328125 -4.5625 L 0.328125 -5.484375 L 1.140625 -5.484375 L 1.140625 -7.046875 L 2.359375 -7.046875 L 2.359375 -5.484375 L 4.03125 -5.484375 L 4.03125 -4.5625 L 2.359375 -4.5625 L 2.359375 -1.828125 C 2.359375 -1.546875 2.40625 -1.347656 2.5 -1.234375 C 2.601562 -1.117188 2.757812 -1.0625 2.96875 -1.0625 C 3.195312 -1.0625 3.484375 -1.144531 3.828125 -1.3125 Z M 3.828125 -1.3125 "/></g></g></g><g fill="#2e4238" fill-opacity="1"><g transform="translate(387.441851, 97.776245)"><g><path d="M 1 -7.859375 C 1.132812 -7.992188 1.304688 -8.0625 1.515625 -8.0625 C 1.722656 -8.0625 1.894531 -7.992188 2.03125 -7.859375 C 2.164062 -7.722656 2.234375 -7.546875 2.234375 -7.328125 C 2.234375 -7.109375 2.164062 -6.925781 2.03125 -6.78125 C 1.894531 -6.644531 1.722656 -6.578125 1.515625 -6.578125 C 1.304688 -6.578125 1.132812 -6.644531 1 -6.78125 C 0.863281 -6.925781 0.796875 -7.109375 0.796875 -7.328125 C 0.796875 -7.546875 0.863281 -7.722656 1 -7.859375 Z M 2.125 0 L 0.90625 0 L 0.90625 -5.6875 L 2.125 -5.6875 Z M 2.125 0 "/></g></g></g><g fill="#2e4238" fill-opacity="1"><g transform="translate(391.905148, 97.776245)"><g><path d="M 3.34375 -5.734375 C 4.226562 -5.734375 4.941406 -5.46875 5.484375 -4.9375 C 6.035156 -4.40625 6.3125 -3.707031 6.3125 -2.84375 C 6.3125 -1.988281 6.035156 -1.289062 5.484375 -0.75 C 4.941406 -0.21875 4.226562 0.046875 3.34375 0.046875 C 2.457031 0.046875 1.738281 -0.21875 1.1875 -0.75 C 0.644531 -1.289062 0.375 -1.988281 0.375 -2.84375 C 0.375 -3.707031 0.644531 -4.40625 1.1875 -4.9375 C 1.738281 -5.46875 2.457031 -5.734375 3.34375 -5.734375 Z M 3.34375 -4.671875 C 2.832031 -4.671875 2.414062 -4.5 2.09375 -4.15625 C 1.769531 -3.820312 1.609375 -3.382812 1.609375 -2.84375 C 1.609375 -2.289062 1.769531 -1.84375 2.09375 -1.5 C 2.414062 -1.15625 2.832031 -0.984375 3.34375 -0.984375 C 3.863281 -0.984375 4.28125 -1.15625 4.59375 -1.5 C 4.914062 -1.84375 5.078125 -2.289062 5.078125 -2.84375 C 5.078125 -3.382812 4.914062 -3.820312 4.59375 -4.15625 C 4.269531 -4.5 3.851562 -4.671875 3.34375 -4.671875 Z M 3.34375 -4.671875 "/></g></g></g><g fill="#2e4238" fill-opacity="1"><g transform="translate(400.017814, 97.776245)"><g><path d="M 4.234375 -5.734375 C 4.898438 -5.734375 5.421875 -5.535156 5.796875 -5.140625 C 6.171875 -4.753906 6.359375 -4.222656 6.359375 -3.546875 L 6.359375 0 L 5.125 0 L 5.125 -3.203125 C 5.125 -3.628906 5.003906 -3.960938 4.765625 -4.203125 C 4.523438 -4.453125 4.1875 -4.578125 3.75 -4.578125 C 3.300781 -4.566406 2.929688 -4.421875 2.640625 -4.140625 C 2.347656 -3.859375 2.179688 -3.488281 2.140625 -3.03125 L 2.140625 0 L 0.90625 0 L 0.90625 -5.6875 L 2.140625 -5.6875 L 2.140625 -4.609375 C 2.523438 -5.359375 3.222656 -5.734375 4.234375 -5.734375 Z M 4.234375 -5.734375 "/></g></g></g><g fill="#2e4238" fill-opacity="1"><g transform="translate(408.537156, 97.776245)"><g><path d="M 2.609375 -5.75 C 3.390625 -5.75 4.054688 -5.554688 4.609375 -5.171875 L 4.15625 -4.265625 C 3.613281 -4.597656 3.066406 -4.765625 2.515625 -4.765625 C 1.960938 -4.765625 1.6875 -4.578125 1.6875 -4.203125 C 1.6875 -4.015625 1.785156 -3.859375 1.984375 -3.734375 C 2.191406 -3.609375 2.441406 -3.503906 2.734375 -3.421875 C 3.035156 -3.347656 3.332031 -3.253906 3.625 -3.140625 C 3.925781 -3.023438 4.179688 -2.84375 4.390625 -2.59375 C 4.597656 -2.34375 4.703125 -2.023438 4.703125 -1.640625 C 4.703125 -1.097656 4.492188 -0.679688 4.078125 -0.390625 C 3.660156 -0.0976562 3.140625 0.046875 2.515625 0.046875 C 2.085938 0.046875 1.664062 -0.0195312 1.25 -0.15625 C 0.84375 -0.300781 0.5 -0.5 0.21875 -0.75 L 0.65625 -1.625 C 0.90625 -1.414062 1.207031 -1.242188 1.5625 -1.109375 C 1.914062 -0.984375 2.25 -0.921875 2.5625 -0.921875 C 2.84375 -0.921875 3.066406 -0.96875 3.234375 -1.0625 C 3.410156 -1.164062 3.5 -1.320312 3.5 -1.53125 C 3.5 -1.75 3.394531 -1.921875 3.1875 -2.046875 C 2.976562 -2.171875 2.726562 -2.269531 2.4375 -2.34375 C 2.144531 -2.425781 1.851562 -2.519531 1.5625 -2.625 C 1.269531 -2.738281 1.019531 -2.914062 0.8125 -3.15625 C 0.613281 -3.40625 0.515625 -3.71875 0.515625 -4.09375 C 0.515625 -4.632812 0.710938 -5.046875 1.109375 -5.328125 C 1.515625 -5.609375 2.015625 -5.75 2.609375 -5.75 Z M 2.609375 -5.75 "/></g></g></g><g fill="#2e4238" fill-opacity="1"><g transform="translate(414.991015, 97.776245)"><g/></g></g><g fill="#2e4238" fill-opacity="1"><g transform="translate(419.176064, 97.776245)"><g><path d="M 7.53125 0 L 6.265625 0 L 4.8125 -4.21875 L 3.375 0 L 2.109375 0 L 0.015625 -5.6875 L 1.28125 -5.6875 L 2.75 -1.21875 L 4.1875 -5.6875 L 5.453125 -5.6875 L 6.90625 -1.21875 L 8.359375 -5.6875 L 9.609375 -5.6875 Z M 7.53125 0 "/></g></g></g><g fill="#2e4238" fill-opacity="1"><g transform="translate(430.156858, 97.776245)"><g><path d="M 1 -7.859375 C 1.132812 -7.992188 1.304688 -8.0625 1.515625 -8.0625 C 1.722656 -8.0625 1.894531 -7.992188 2.03125 -7.859375 C 2.164062 -7.722656 2.234375 -7.546875 2.234375 -7.328125 C 2.234375 -7.109375 2.164062 -6.925781 2.03125 -6.78125 C 1.894531 -6.644531 1.722656 -6.578125 1.515625 -6.578125 C 1.304688 -6.578125 1.132812 -6.644531 1 -6.78125 C 0.863281 -6.925781 0.796875 -7.109375 0.796875 -7.328125 C 0.796875 -7.546875 0.863281 -7.722656 1 -7.859375 Z M 2.125 0 L 0.90625 0 L 0.90625 -5.6875 L 2.125 -5.6875 Z M 2.125 0 "/></g></g></g><g fill="#2e4238" fill-opacity="1"><g transform="translate(434.620155, 97.776245)"><g><path d="M 3.828125 -1.3125 L 4.125 -0.359375 C 3.65625 -0.0859375 3.1875 0.046875 2.71875 0.046875 C 2.257812 0.046875 1.878906 -0.0859375 1.578125 -0.359375 C 1.285156 -0.640625 1.140625 -1.054688 1.140625 -1.609375 L 1.140625 -4.5625 L 0.328125 -4.5625 L 0.328125 -5.484375 L 1.140625 -5.484375 L 1.140625 -7.046875 L 2.359375 -7.046875 L 2.359375 -5.484375 L 4.03125 -5.484375 L 4.03125 -4.5625 L 2.359375 -4.5625 L 2.359375 -1.828125 C 2.359375 -1.546875 2.40625 -1.347656 2.5 -1.234375 C 2.601562 -1.117188 2.757812 -1.0625 2.96875 -1.0625 C 3.195312 -1.0625 3.484375 -1.144531 3.828125 -1.3125 Z M 3.828125 -1.3125 "/></g></g></g><g fill="#2e4238" fill-opacity="1"><g transform="translate(440.399785, 97.776245)"><g><path d="M 4.296875 -5.734375 C 4.960938 -5.734375 5.484375 -5.535156 5.859375 -5.140625 C 6.234375 -4.753906 6.421875 -4.222656 6.421875 -3.546875 L 6.421875 0 L 5.1875 0 L 5.1875 -3.203125 C 5.1875 -3.628906 5.066406 -3.960938 4.828125 -4.203125 C 4.585938 -4.453125 4.253906 -4.578125 3.828125 -4.578125 C 3.328125 -4.566406 2.925781 -4.394531 2.625 -4.0625 C 2.332031 -3.738281 2.1875 -3.316406 2.1875 -2.796875 L 2.1875 0 L 0.96875 0 L 0.96875 -7.9375 L 2.1875 -7.9375 L 2.1875 -4.578125 C 2.582031 -5.347656 3.285156 -5.734375 4.296875 -5.734375 Z M 4.296875 -5.734375 "/></g></g></g><g fill="#2e4238" fill-opacity="1"><g transform="translate(448.983341, 97.776245)"><g/></g></g><g fill="#2e4238" fill-opacity="1"><g transform="translate(453.16839, 97.776245)"><g><path d="M 8.234375 -0.0625 L 8.75 0.828125 C 8.125 1.367188 7.441406 1.640625 6.703125 1.640625 C 6.242188 1.640625 5.804688 1.5 5.390625 1.21875 C 4.984375 0.945312 4.628906 0.554688 4.328125 0.046875 C 3.203125 0.046875 2.257812 -0.316406 1.5 -1.046875 C 0.738281 -1.773438 0.359375 -2.671875 0.359375 -3.734375 C 0.359375 -4.804688 0.738281 -5.707031 1.5 -6.4375 C 2.269531 -7.164062 3.210938 -7.53125 4.328125 -7.53125 C 5.453125 -7.53125 6.394531 -7.164062 7.15625 -6.4375 C 7.925781 -5.707031 8.3125 -4.8125 8.3125 -3.75 C 8.3125 -2.894531 8.0625 -2.140625 7.5625 -1.484375 C 7.0625 -0.835938 6.410156 -0.390625 5.609375 -0.140625 C 6.035156 0.328125 6.453125 0.5625 6.859375 0.5625 C 7.253906 0.5625 7.710938 0.351562 8.234375 -0.0625 Z M 2.4375 -5.625 C 1.90625 -5.113281 1.640625 -4.488281 1.640625 -3.75 C 1.640625 -3.007812 1.90625 -2.378906 2.4375 -1.859375 C 2.976562 -1.335938 3.613281 -1.078125 4.34375 -1.078125 C 5.082031 -1.078125 5.710938 -1.335938 6.234375 -1.859375 C 6.753906 -2.378906 7.015625 -3.007812 7.015625 -3.75 C 7.015625 -4.488281 6.753906 -5.113281 6.234375 -5.625 C 5.710938 -6.132812 5.082031 -6.390625 4.34375 -6.390625 C 3.601562 -6.390625 2.96875 -6.132812 2.4375 -5.625 Z M 2.4375 -5.625 "/></g></g></g><g fill="#2e4238" fill-opacity="1"><g transform="translate(463.421438, 97.776245)"><g><path d="M 6.078125 -5.6875 L 6.078125 0 L 4.84375 0 L 4.84375 -1.109375 C 4.476562 -0.359375 3.800781 0.0234375 2.8125 0.046875 C 2.164062 0.046875 1.65625 -0.148438 1.28125 -0.546875 C 0.914062 -0.941406 0.734375 -1.476562 0.734375 -2.15625 L 0.734375 -5.6875 L 1.953125 -5.6875 L 1.953125 -2.5 C 1.953125 -2.070312 2.070312 -1.734375 2.3125 -1.484375 C 2.550781 -1.234375 2.875 -1.109375 3.28125 -1.109375 C 3.757812 -1.117188 4.140625 -1.289062 4.421875 -1.625 C 4.703125 -1.957031 4.84375 -2.378906 4.84375 -2.890625 L 4.84375 -5.6875 Z M 6.078125 -5.6875 "/></g></g></g><g fill="#2e4238" fill-opacity="1"><g transform="translate(471.833757, 97.776245)"><g><path d="M 1 -7.859375 C 1.132812 -7.992188 1.304688 -8.0625 1.515625 -8.0625 C 1.722656 -8.0625 1.894531 -7.992188 2.03125 -7.859375 C 2.164062 -7.722656 2.234375 -7.546875 2.234375 -7.328125 C 2.234375 -7.109375 2.164062 -6.925781 2.03125 -6.78125 C 1.894531 -6.644531 1.722656 -6.578125 1.515625 -6.578125 C 1.304688 -6.578125 1.132812 -6.644531 1 -6.78125 C 0.863281 -6.925781 0.796875 -7.109375 0.796875 -7.328125 C 0.796875 -7.546875 0.863281 -7.722656 1 -7.859375 Z M 2.125 0 L 0.90625 0 L 0.90625 -5.6875 L 2.125 -5.6875 Z M 2.125 0 "/></g></g></g><g fill="#2e4238" fill-opacity="1"><g transform="translate(476.297054, 97.776245)"><g><path d="M 3.25 -5.734375 C 4.269531 -5.734375 5.050781 -5.425781 5.59375 -4.8125 L 4.921875 -4.015625 C 4.492188 -4.453125 3.953125 -4.664062 3.296875 -4.65625 C 2.804688 -4.65625 2.398438 -4.484375 2.078125 -4.140625 C 1.765625 -3.804688 1.609375 -3.367188 1.609375 -2.828125 C 1.609375 -2.296875 1.765625 -1.859375 2.078125 -1.515625 C 2.398438 -1.179688 2.804688 -1.015625 3.296875 -1.015625 C 4.023438 -1.015625 4.585938 -1.242188 4.984375 -1.703125 L 5.65625 -1.015625 C 5.125 -0.304688 4.320312 0.046875 3.25 0.046875 C 2.394531 0.046875 1.703125 -0.21875 1.171875 -0.75 C 0.640625 -1.28125 0.375 -1.976562 0.375 -2.84375 C 0.375 -3.695312 0.640625 -4.390625 1.171875 -4.921875 C 1.703125 -5.460938 2.394531 -5.734375 3.25 -5.734375 Z M 3.25 -5.734375 "/></g></g></g><g fill="#2e4238" fill-opacity="1"><g transform="translate(483.756884, 97.776245)"><g><path d="M 3.15625 -2.609375 L 2.1875 -1.59375 L 2.1875 0 L 0.96875 0 L 0.96875 -7.9375 L 2.1875 -7.9375 L 2.1875 -3.140625 L 4.703125 -5.6875 L 6.125 -5.6875 L 4.015625 -3.484375 L 6.28125 0 L 4.828125 0 Z M 3.15625 -2.609375 "/></g></g></g><g fill="#2e4238" fill-opacity="1"><g transform="translate(491.548479, 97.776245)"><g><path d="M 3.453125 -7.546875 C 4.421875 -7.546875 5.289062 -7.289062 6.0625 -6.78125 L 5.546875 -5.65625 C 4.785156 -6.125 4.050781 -6.359375 3.34375 -6.359375 C 2.96875 -6.359375 2.671875 -6.289062 2.453125 -6.15625 C 2.234375 -6.019531 2.125 -5.828125 2.125 -5.578125 C 2.125 -5.328125 2.222656 -5.113281 2.421875 -4.9375 C 2.628906 -4.757812 2.878906 -4.628906 3.171875 -4.546875 C 3.472656 -4.472656 3.796875 -4.375 4.140625 -4.25 C 4.492188 -4.125 4.820312 -3.988281 5.125 -3.84375 C 5.425781 -3.707031 5.675781 -3.488281 5.875 -3.1875 C 6.070312 -2.894531 6.171875 -2.539062 6.171875 -2.125 C 6.171875 -1.46875 5.90625 -0.941406 5.375 -0.546875 C 4.851562 -0.148438 4.175781 0.046875 3.34375 0.046875 C 2.769531 0.046875 2.210938 -0.0546875 1.671875 -0.265625 C 1.140625 -0.484375 0.675781 -0.773438 0.28125 -1.140625 L 0.828125 -2.234375 C 1.203125 -1.890625 1.613281 -1.617188 2.0625 -1.421875 C 2.519531 -1.234375 2.953125 -1.140625 3.359375 -1.140625 C 3.804688 -1.140625 4.148438 -1.21875 4.390625 -1.375 C 4.640625 -1.539062 4.765625 -1.769531 4.765625 -2.0625 C 4.765625 -2.3125 4.660156 -2.523438 4.453125 -2.703125 C 4.253906 -2.878906 4.003906 -3.003906 3.703125 -3.078125 C 3.410156 -3.160156 3.085938 -3.257812 2.734375 -3.375 C 2.390625 -3.5 2.066406 -3.625 1.765625 -3.75 C 1.460938 -3.882812 1.210938 -4.097656 1.015625 -4.390625 C 0.816406 -4.691406 0.71875 -5.046875 0.71875 -5.453125 C 0.71875 -6.085938 0.96875 -6.59375 1.46875 -6.96875 C 1.96875 -7.351562 2.628906 -7.546875 3.453125 -7.546875 Z M 3.453125 -7.546875 "/></g></g></g><g fill="#2e4238" fill-opacity="1"><g transform="translate(499.629032, 97.776245)"><g><path d="M 4.328125 0 L 4.328125 -0.703125 C 3.921875 -0.203125 3.289062 0.046875 2.4375 0.046875 C 1.832031 0.046875 1.347656 -0.113281 0.984375 -0.4375 C 0.617188 -0.769531 0.4375 -1.195312 0.4375 -1.71875 C 0.4375 -2.238281 0.625 -2.648438 1 -2.953125 C 1.382812 -3.265625 1.914062 -3.421875 2.59375 -3.421875 L 4.3125 -3.421875 L 4.3125 -3.59375 C 4.3125 -3.957031 4.195312 -4.238281 3.96875 -4.4375 C 3.738281 -4.632812 3.398438 -4.734375 2.953125 -4.734375 C 2.398438 -4.734375 1.84375 -4.539062 1.28125 -4.15625 L 0.765625 -5.015625 C 1.203125 -5.273438 1.59375 -5.457031 1.9375 -5.5625 C 2.289062 -5.675781 2.71875 -5.734375 3.21875 -5.734375 C 3.945312 -5.734375 4.507812 -5.554688 4.90625 -5.203125 C 5.3125 -4.847656 5.515625 -4.359375 5.515625 -3.734375 L 5.53125 0 Z M 2.703125 -0.921875 C 3.128906 -0.921875 3.492188 -1.019531 3.796875 -1.21875 C 4.109375 -1.425781 4.28125 -1.6875 4.3125 -2 L 4.3125 -2.53125 L 2.765625 -2.53125 C 2.359375 -2.53125 2.0625 -2.46875 1.875 -2.34375 C 1.6875 -2.226562 1.59375 -2.035156 1.59375 -1.765625 C 1.59375 -1.503906 1.691406 -1.296875 1.890625 -1.140625 C 2.085938 -0.992188 2.359375 -0.921875 2.703125 -0.921875 Z M 2.703125 -0.921875 "/></g></g></g><g fill="#2e4238" fill-opacity="1"><g transform="translate(507.324325, 97.776245)"><g><path d="M 2.1875 0 L 0.96875 0 L 0.96875 -7.9375 L 2.1875 -7.9375 Z M 2.1875 0 "/></g></g></g><g fill="#2e4238" fill-opacity="1"><g transform="translate(511.905342, 97.776245)"><g><path d="M 3.25 -5.734375 C 4.226562 -5.734375 4.9375 -5.4375 5.375 -4.84375 C 5.8125 -4.257812 5.992188 -3.4375 5.921875 -2.375 L 1.609375 -2.375 C 1.710938 -1.9375 1.921875 -1.585938 2.234375 -1.328125 C 2.546875 -1.078125 2.925781 -0.953125 3.375 -0.953125 C 4.019531 -0.953125 4.554688 -1.171875 4.984375 -1.609375 L 5.640625 -0.921875 C 5.054688 -0.273438 4.269531 0.046875 3.28125 0.046875 C 2.40625 0.046875 1.703125 -0.21875 1.171875 -0.75 C 0.640625 -1.28125 0.375 -1.972656 0.375 -2.828125 C 0.375 -3.691406 0.640625 -4.390625 1.171875 -4.921875 C 1.710938 -5.453125 2.40625 -5.722656 3.25 -5.734375 Z M 1.59375 -3.28125 L 4.84375 -3.28125 C 4.820312 -3.726562 4.664062 -4.082031 4.375 -4.34375 C 4.09375 -4.613281 3.722656 -4.75 3.265625 -4.75 C 2.816406 -4.75 2.441406 -4.613281 2.140625 -4.34375 C 1.847656 -4.082031 1.664062 -3.726562 1.59375 -3.28125 Z M 1.59375 -3.28125 "/></g></g></g><g fill="#2e4238" fill-opacity="1"><g transform="translate(519.622027, 97.776245)"><g><path d="M 1.859375 -5.5625 L 1.671875 -2.390625 L 0.890625 -2.390625 L 0.703125 -5.5625 L 0.703125 -7.390625 L 1.859375 -7.390625 Z M 0.796875 -1.109375 C 0.929688 -1.242188 1.09375 -1.3125 1.28125 -1.3125 C 1.476562 -1.3125 1.640625 -1.242188 1.765625 -1.109375 C 1.890625 -0.984375 1.953125 -0.820312 1.953125 -0.625 C 1.953125 -0.414062 1.890625 -0.242188 1.765625 -0.109375 C 1.640625 0.0234375 1.476562 0.09375 1.28125 0.09375 C 1.09375 0.09375 0.929688 0.0234375 0.796875 -0.109375 C 0.671875 -0.242188 0.609375 -0.414062 0.609375 -0.625 C 0.609375 -0.820312 0.671875 -0.984375 0.796875 -1.109375 Z M 0.796875 -1.109375 "/></g></g></g><g fill="#2e4238" fill-opacity="1"><g transform="translate(377.91365, 112.229583)"><g/></g></g><g fill="#2e4238" fill-opacity="1"><g transform="translate(377.91365, 126.682921)"><g/></g></g></svg>