<svg xmlns="http://www.w3.org/2000/svg" xmlns:xlink="http://www.w3.org/1999/xlink" width="130" zoomAndPan="magnify" viewBox="0 0 97.5 30.000001" height="40" preserveAspectRatio="xMidYMid meet" version="1.0"><defs><g/><clipPath id="847d708ba3"><path d="M 13 9 L 29.78125 9 L 29.78125 26.746094 L 13 26.746094 Z M 13 9 " clip-rule="nonzero"/></clipPath><clipPath id="0b382ae004"><path d="M 1.332031 2 L 19 2 L 19 20 L 1.332031 20 Z M 1.332031 2 " clip-rule="nonzero"/></clipPath></defs><g clip-path="url(#847d708ba3)"><path fill="#0072ff" d="M 13.25 15.398438 C 13.445312 15.75 14.605469 17.199219 14.679688 18.699219 C 14.734375 19.734375 15.375 21.789062 15.683594 22.945312 C 15.792969 23.355469 17.648438 26.746094 20.351562 25.976562 C 22.539062 25.351562 23.457031 24 23.984375 23.335938 C 24.015625 23.292969 24.042969 23.253906 24.074219 23.214844 C 24.414062 22.757812 24.796875 22.105469 25.128906 21.550781 C 25.402344 21.089844 25.636719 20.699219 25.777344 20.550781 C 26.082031 20.21875 29.070312 17.425781 29.421875 16.808594 C 29.765625 16.195312 29.621094 15.96875 29.535156 15.867188 C 29.457031 15.761719 29.285156 15.328125 27.578125 16.820312 C 25.871094 18.3125 25.179688 18.878906 24.925781 18.773438 C 24.667969 18.667969 25.097656 17.734375 25.980469 16.195312 C 26.867188 14.652344 27.769531 12.835938 27.699219 12.171875 C 27.632812 11.503906 26.835938 11.257812 26.292969 12.371094 C 25.753906 13.472656 24.035156 16.988281 23.472656 17.015625 C 22.90625 17.046875 24.054688 15.117188 24.480469 14.113281 C 24.90625 13.113281 26.066406 10.882812 25.984375 10.34375 C 25.90625 9.808594 25.507812 9.601562 25.15625 9.886719 C 24.800781 10.171875 24.21875 11.035156 23.660156 12.316406 C 23.101562 13.597656 22.347656 15.808594 21.851562 15.878906 C 21.347656 15.953125 21.449219 15.144531 22.355469 12.234375 C 22.914062 10.441406 22.894531 9.429688 22.445312 9.378906 C 21.996094 9.332031 21.773438 9.636719 21.125 11.417969 C 20.472656 13.199219 19.746094 16.691406 18.921875 17.378906 C 18.097656 18.066406 17.535156 18.371094 17.019531 17.875 C 16.503906 17.375 16.09375 16.042969 15.457031 15.359375 C 15.066406 14.9375 14.609375 14.511719 14.179688 14.320312 C 13.90625 14.199219 13.640625 14.171875 13.414062 14.300781 C 12.832031 14.632812 13.054688 15.035156 13.246094 15.390625 C 13.246094 15.390625 13.25 15.398438 13.25 15.398438 " fill-opacity="1" fill-rule="nonzero"/></g><g clip-path="url(#0b382ae004)"><path fill="#ff6a0c" d="M 17.863281 13.289062 C 17.667969 12.9375 16.507812 11.488281 16.429688 9.992188 C 16.378906 8.953125 15.738281 6.898438 15.429688 5.742188 C 15.320312 5.332031 13.464844 1.941406 10.761719 2.710938 C 8.574219 3.335938 7.65625 4.6875 7.128906 5.351562 C 7.097656 5.394531 7.066406 5.433594 7.039062 5.472656 C 6.699219 5.929688 6.316406 6.582031 5.984375 7.136719 C 5.710938 7.597656 5.476562 7.988281 5.335938 8.136719 C 5.03125 8.46875 2.042969 11.261719 1.691406 11.878906 C 1.347656 12.492188 1.492188 12.71875 1.578125 12.820312 C 1.65625 12.925781 1.828125 13.359375 3.535156 11.867188 C 5.242188 10.375 5.933594 9.808594 6.1875 9.914062 C 6.445312 10.019531 6.011719 10.953125 5.132812 12.492188 C 4.246094 14.035156 3.34375 15.851562 3.410156 16.515625 C 3.480469 17.183594 4.277344 17.429688 4.820312 16.320312 C 5.359375 15.214844 7.078125 11.699219 7.640625 11.671875 C 8.207031 11.640625 7.058594 13.570312 6.632812 14.574219 C 6.207031 15.574219 5.046875 17.804688 5.128906 18.34375 C 5.207031 18.878906 5.605469 19.085938 5.957031 18.800781 C 6.3125 18.515625 6.894531 17.652344 7.453125 16.371094 C 8.011719 15.089844 8.765625 12.878906 9.261719 12.808594 C 9.761719 12.734375 9.664062 13.542969 8.757812 16.453125 C 8.199219 18.246094 8.21875 19.257812 8.667969 19.308594 C 9.117188 19.355469 9.339844 19.050781 9.988281 17.269531 C 10.640625 15.488281 11.363281 11.996094 12.191406 11.308594 C 13.015625 10.621094 13.578125 10.316406 14.089844 10.8125 C 14.609375 11.3125 15.019531 12.644531 15.65625 13.328125 C 16.046875 13.75 16.503906 14.175781 16.933594 14.367188 C 17.207031 14.492188 17.472656 14.515625 17.699219 14.386719 C 18.28125 14.054688 18.058594 13.652344 17.867188 13.296875 C 17.863281 13.296875 17.863281 13.289062 17.863281 13.289062 " fill-opacity="1" fill-rule="nonzero"/></g><g fill="#27323b" fill-opacity="1"><g transform="translate(34.02196, 16.923631)"><g><path d="M 4.433594 -0.078125 C 5.242188 0.273438 5.8125 -0.699219 5.503906 -1.402344 C 5.332031 -1.796875 5.253906 -1.707031 5.296875 -2.070312 C 5.320312 -2.289062 5.449219 -2.550781 5.496094 -2.78125 C 5.582031 -3.328125 5.582031 -3.898438 5.539062 -4.445312 C 5.484375 -5.429688 5.308594 -6.554688 4.445312 -7.179688 C 3.679688 -7.726562 2.386719 -7.695312 1.523438 -7.378906 C 0.46875 -7.003906 0.207031 -6.042969 0.175781 -5.003906 C 0.121094 -3.328125 0.328125 -1.335938 2.308594 -1.074219 C 2.628906 -1.039062 3.152344 -1.171875 3.425781 -1.082031 C 3.820312 -0.953125 3.984375 -0.261719 4.433594 -0.078125 Z M 2.5625 -2.515625 C 1.523438 -2.738281 1.785156 -5.023438 2.417969 -5.527344 C 3.734375 -6.578125 3.984375 -4.257812 3.777344 -3.492188 C 3.042969 -4.105469 2.253906 -3.339844 2.5625 -2.515625 Z M 2.5625 -2.515625 "/></g></g></g><g fill="#27323b" fill-opacity="1"><g transform="translate(39.778624, 16.923631)"><g><path d="M 1.554688 -0.230469 C 2.441406 0.230469 4.027344 -0.03125 4.675781 -0.800781 C 5.496094 -1.761719 5.429688 -3.6875 5.394531 -4.882812 C 5.40625 -5.339844 5.417969 -5.976562 5.035156 -6.304688 C 4.554688 -6.710938 4.015625 -6.359375 3.851562 -5.835938 C 3.679688 -5.253906 3.90625 -4.453125 3.90625 -3.84375 C 3.90625 -3.238281 3.917969 -2.5625 3.644531 -2.003906 C 3.339844 -1.390625 2.800781 -1.554688 2.5625 -2.15625 C 2.308594 -2.800781 2.40625 -3.625 2.417969 -4.300781 C 2.441406 -5.089844 2.628906 -6.863281 1.410156 -6.875 C -0.132812 -6.875 0.152344 -4.574219 0.261719 -3.625 C 0.40625 -2.472656 0.359375 -0.84375 1.554688 -0.230469 Z M 1.554688 -0.230469 "/></g></g></g><g fill="#27323b" fill-opacity="1"><g transform="translate(45.360181, 16.923631)"><g><path d="M 0.195312 -6.90625 C 0.644531 -5.394531 2.660156 -6.730469 2.308594 -7.835938 C 2.484375 -8.382812 1.523438 -8.59375 1.183594 -8.492188 C 0.546875 -8.320312 0.0117188 -7.550781 0.195312 -6.90625 Z M 1.632812 -0.152344 C 1.960938 -0.394531 2.003906 -0.800781 2.078125 -1.171875 C 2.320312 -2.398438 2.59375 -4.117188 2.046875 -5.296875 C 1.796875 -5.835938 1.160156 -6.207031 0.691406 -5.714844 C 0.351562 -5.351562 0.351562 -4.566406 0.304688 -4.117188 C 0.230469 -3.140625 -0.0117188 -1.488281 0.414062 -0.570312 C 0.644531 -0.0859375 1.148438 0.1875 1.632812 -0.152344 Z M 1.632812 -0.152344 "/></g></g></g><g fill="#27323b" fill-opacity="1"><g transform="translate(47.888298, 16.923631)"><g><path d="M 2.484375 -0.140625 C 3.402344 0.140625 4.683594 0.0859375 4.816406 -1.082031 C 4.96875 -2.417969 3.710938 -2.035156 2.847656 -2.40625 C 1.707031 -2.890625 2.199219 -3.984375 2.910156 -4.664062 C 3.753906 -4.9375 5.078125 -5.175781 5.035156 -6.328125 C 4.980469 -7.507812 3.644531 -7.246094 2.867188 -6.984375 C 0.910156 -6.328125 -0.359375 -4.160156 0.371094 -2.15625 C 0.734375 -1.191406 1.511719 -0.460938 2.484375 -0.140625 Z M 2.484375 -0.140625 "/></g></g></g><g fill="#27323b" fill-opacity="1"><g transform="translate(53.086807, 16.923631)"><g><path d="M 4.597656 -0.296875 C 5.625 -1.128906 3.886719 -3.4375 3.074219 -3.90625 C 3.679688 -4.257812 5.953125 -5.277344 5.308594 -6.335938 C 4.695312 -7.367188 2.058594 -4.664062 1.730469 -4.3125 C 1.90625 -4.9375 2.351562 -7.5625 0.875 -7.125 C 0.242188 -6.941406 0.261719 -6.128906 0.261719 -5.605469 C 0.273438 -4.882812 0.261719 -4.148438 0.25 -3.425781 C 0.242188 -2.757812 -0.230469 -0.03125 1.09375 -0.304688 C 1.597656 -0.40625 1.742188 -1.0625 1.796875 -1.476562 C 1.828125 -1.761719 1.621094 -3.054688 1.75 -3.128906 C 2.1875 -2.179688 3 0.972656 4.597656 -0.296875 Z M 4.597656 -0.296875 "/></g></g></g><g fill="#27323b" fill-opacity="1"><g transform="translate(58.668364, 16.923631)"><g><path d="M 1.828125 -0.0664062 C 2.957031 0.109375 4.355469 0.0117188 4.859375 -1.191406 C 5.089844 -1.75 5.066406 -2.429688 4.816406 -2.964844 C 4.519531 -3.613281 3.941406 -3.863281 3.4375 -4.300781 C 2.089844 -5.441406 3.503906 -6.523438 4.683594 -6.894531 C 5.351562 -7.113281 5.121094 -7.828125 4.675781 -8.109375 C 4.136719 -8.449219 3.371094 -8.382812 2.792969 -8.210938 C 1.597656 -7.871094 0.691406 -6.894531 0.515625 -5.648438 C 0.339844 -4.390625 0.886719 -3.492188 1.992188 -2.957031 C 2.398438 -2.757812 3.121094 -2.375 2.769531 -1.804688 C 2.351562 -1.117188 1.542969 -1.796875 1.007812 -1.796875 C 0.371094 -1.804688 -0.0976562 -1.292969 0.316406 -0.691406 C 0.625 -0.25 1.335938 -0.152344 1.828125 -0.0664062 Z M 1.828125 -0.0664062 "/></g></g></g><g fill="#27323b" fill-opacity="1"><g transform="translate(63.932538, 16.923631)"><g><path d="M 0.84375 -0.0664062 C 1.238281 0.0546875 1.730469 0.0234375 1.992188 -0.304688 C 2.277344 -0.65625 2.1875 -1.523438 2.507812 -1.785156 C 2.683594 -1.914062 4.214844 -1.796875 4.269531 -1.75 C 4.566406 -1.5 4.621094 -0.800781 4.839844 -0.480469 C 5.144531 -0.03125 5.550781 -0.0117188 5.976562 -0.351562 C 6.402344 -0.699219 6.359375 -1.0625 6.183594 -1.542969 L 4.902344 -5.144531 C 4.597656 -6.019531 4.390625 -7.367188 3.238281 -7.34375 C 2.222656 -7.3125 1.71875 -6.699219 1.421875 -5.800781 C 1.074219 -4.738281 0.746094 -3.667969 0.480469 -2.582031 C 0.285156 -1.773438 -0.285156 -0.394531 0.84375 -0.0664062 Z M 3.011719 -3.339844 C 3.109375 -3.667969 3.21875 -3.996094 3.316406 -4.324219 C 3.402344 -4.027344 3.503906 -3.742188 3.601562 -3.449219 C 3.402344 -3.414062 3.207031 -3.371094 3.011719 -3.339844 Z M 3.011719 -3.339844 "/></g></g></g><g fill="#27323b" fill-opacity="1"><g transform="translate(70.41152, 16.923631)"><g><path d="M 4.234375 -0.175781 C 4.949219 -0.570312 4.96875 -1.675781 4.300781 -2.125 C 3.820312 -2.441406 3.316406 -2.332031 2.78125 -2.429688 C 2.375 -2.507812 2.453125 -2.320312 2.386719 -2.78125 C 2.351562 -3.019531 2.417969 -3.304688 2.429688 -3.546875 C 2.460938 -4.519531 2.628906 -5.726562 2.308594 -6.675781 C 2.058594 -7.453125 1.246094 -7.738281 0.679688 -7.070312 C 0.140625 -6.4375 0.1875 -5.332031 0.1875 -4.566406 C 0.175781 -3.65625 0.132812 -2.671875 0.21875 -1.761719 C 0.316406 -0.753906 0.964844 -0.339844 1.914062 -0.1875 C 2.574219 -0.078125 3.625 0.164062 4.234375 -0.175781 Z M 4.234375 -0.175781 "/></g></g></g><g fill="#27323b" fill-opacity="1"><g transform="translate(75.358311, 16.923631)"><g><path d="M 1.816406 -0.0234375 C 2.496094 -0.0546875 3.175781 -0.0429688 3.84375 -0.078125 C 4.398438 -0.109375 4.816406 -0.1875 5.035156 -0.734375 C 5.167969 -1.09375 5.242188 -1.75 4.882812 -2.023438 C 4.476562 -2.320312 3.84375 -2.1875 3.382812 -2.210938 C 2.964844 -2.234375 1.894531 -2.574219 2.515625 -3.152344 C 2.890625 -3.503906 3.46875 -3.085938 3.90625 -3.207031 C 4.390625 -3.347656 4.5 -3.898438 4.445312 -4.34375 C 4.410156 -4.730469 4.28125 -4.949219 3.90625 -5.089844 C 3.546875 -5.222656 2.792969 -4.980469 2.507812 -5.1875 C 2.125 -5.460938 2.472656 -5.976562 2.746094 -6.03125 C 3.164062 -6.128906 3.613281 -5.84375 4.050781 -6.019531 C 4.433594 -6.171875 4.628906 -6.535156 4.574219 -6.949219 C 4.5 -7.53125 4.015625 -7.628906 3.511719 -7.707031 C 2.769531 -7.816406 0.800781 -8.1875 0.46875 -7.269531 C 0.328125 -6.875 0.40625 -6.328125 0.382812 -5.921875 C 0.359375 -5.1875 0.328125 -4.453125 0.296875 -3.722656 C 0.261719 -3.097656 0.242188 -2.472656 0.207031 -1.851562 C 0.1875 -1.355469 0.0429688 -0.644531 0.4375 -0.261719 C 0.800781 0.0859375 1.378906 -0.0117188 1.816406 -0.0234375 Z M 1.816406 -0.0234375 "/></g></g></g><g fill="#2e4238" fill-opacity="1"><g transform="translate(34.628816, 21.17349)"><g><path d="M 0.671875 -1.46875 C 0.859375 -1.46875 1.03125 -1.421875 1.1875 -1.328125 L 1.078125 -1.109375 C 0.929688 -1.203125 0.789062 -1.25 0.65625 -1.25 C 0.582031 -1.25 0.523438 -1.234375 0.484375 -1.203125 C 0.441406 -1.179688 0.421875 -1.144531 0.421875 -1.09375 C 0.421875 -1.039062 0.4375 -1 0.46875 -0.96875 C 0.507812 -0.9375 0.554688 -0.910156 0.609375 -0.890625 C 0.671875 -0.867188 0.738281 -0.847656 0.8125 -0.828125 C 0.882812 -0.804688 0.945312 -0.78125 1 -0.75 C 1.0625 -0.726562 1.109375 -0.6875 1.140625 -0.625 C 1.179688 -0.5625 1.203125 -0.492188 1.203125 -0.421875 C 1.203125 -0.285156 1.148438 -0.175781 1.046875 -0.09375 C 0.941406 -0.0195312 0.8125 0.015625 0.65625 0.015625 C 0.539062 0.015625 0.429688 -0.00390625 0.328125 -0.046875 C 0.222656 -0.0976562 0.128906 -0.15625 0.046875 -0.21875 L 0.15625 -0.4375 C 0.226562 -0.363281 0.304688 -0.304688 0.390625 -0.265625 C 0.484375 -0.234375 0.570312 -0.21875 0.65625 -0.21875 C 0.738281 -0.21875 0.804688 -0.234375 0.859375 -0.265625 C 0.910156 -0.296875 0.9375 -0.34375 0.9375 -0.40625 C 0.9375 -0.457031 0.914062 -0.5 0.875 -0.53125 C 0.832031 -0.5625 0.78125 -0.582031 0.71875 -0.59375 C 0.664062 -0.613281 0.601562 -0.632812 0.53125 -0.65625 C 0.46875 -0.6875 0.40625 -0.710938 0.34375 -0.734375 C 0.28125 -0.765625 0.226562 -0.804688 0.1875 -0.859375 C 0.15625 -0.921875 0.140625 -0.988281 0.140625 -1.0625 C 0.140625 -1.1875 0.1875 -1.285156 0.28125 -1.359375 C 0.382812 -1.429688 0.515625 -1.46875 0.671875 -1.46875 Z M 0.671875 -1.46875 "/></g></g></g><g fill="#2e4238" fill-opacity="1"><g transform="translate(36.207154, 21.17349)"><g><path d="M 0.8125 -1.125 C 0.976562 -1.125 1.109375 -1.070312 1.203125 -0.96875 C 1.296875 -0.863281 1.34375 -0.722656 1.34375 -0.546875 C 1.34375 -0.378906 1.296875 -0.242188 1.203125 -0.140625 C 1.109375 -0.0351562 0.984375 0.015625 0.828125 0.015625 C 0.648438 0.015625 0.515625 -0.0507812 0.421875 -0.1875 L 0.421875 0.40625 L 0.1875 0.40625 L 0.1875 -1.109375 L 0.421875 -1.109375 L 0.421875 -0.921875 C 0.515625 -1.054688 0.644531 -1.125 0.8125 -1.125 Z M 0.515625 -0.296875 C 0.585938 -0.234375 0.671875 -0.203125 0.765625 -0.203125 C 0.867188 -0.203125 0.953125 -0.234375 1.015625 -0.296875 C 1.078125 -0.367188 1.109375 -0.457031 1.109375 -0.5625 C 1.109375 -0.664062 1.078125 -0.75 1.015625 -0.8125 C 0.953125 -0.882812 0.867188 -0.921875 0.765625 -0.921875 C 0.671875 -0.921875 0.585938 -0.882812 0.515625 -0.8125 C 0.453125 -0.75 0.421875 -0.664062 0.421875 -0.5625 C 0.421875 -0.457031 0.453125 -0.367188 0.515625 -0.296875 Z M 0.515625 -0.296875 "/></g></g></g><g fill="#2e4238" fill-opacity="1"><g transform="translate(37.906732, 21.17349)"><g><path d="M 0.640625 -1.125 C 0.828125 -1.125 0.960938 -1.066406 1.046875 -0.953125 C 1.140625 -0.835938 1.175781 -0.675781 1.15625 -0.46875 L 0.3125 -0.46875 C 0.332031 -0.375 0.375 -0.300781 0.4375 -0.25 C 0.5 -0.207031 0.570312 -0.1875 0.65625 -0.1875 C 0.78125 -0.1875 0.882812 -0.226562 0.96875 -0.3125 L 1.109375 -0.1875 C 0.992188 -0.0507812 0.835938 0.015625 0.640625 0.015625 C 0.472656 0.015625 0.335938 -0.0351562 0.234375 -0.140625 C 0.128906 -0.242188 0.078125 -0.378906 0.078125 -0.546875 C 0.078125 -0.722656 0.128906 -0.863281 0.234375 -0.96875 C 0.335938 -1.070312 0.472656 -1.125 0.640625 -1.125 Z M 0.3125 -0.640625 L 0.953125 -0.640625 C 0.941406 -0.734375 0.910156 -0.800781 0.859375 -0.84375 C 0.804688 -0.894531 0.734375 -0.921875 0.640625 -0.921875 C 0.546875 -0.921875 0.46875 -0.894531 0.40625 -0.84375 C 0.351562 -0.800781 0.320312 -0.734375 0.3125 -0.640625 Z M 0.3125 -0.640625 "/></g></g></g><g fill="#2e4238" fill-opacity="1"><g transform="translate(39.413997, 21.17349)"><g><path d="M 0.640625 -1.125 C 0.828125 -1.125 0.960938 -1.066406 1.046875 -0.953125 C 1.140625 -0.835938 1.175781 -0.675781 1.15625 -0.46875 L 0.3125 -0.46875 C 0.332031 -0.375 0.375 -0.300781 0.4375 -0.25 C 0.5 -0.207031 0.570312 -0.1875 0.65625 -0.1875 C 0.78125 -0.1875 0.882812 -0.226562 0.96875 -0.3125 L 1.109375 -0.1875 C 0.992188 -0.0507812 0.835938 0.015625 0.640625 0.015625 C 0.472656 0.015625 0.335938 -0.0351562 0.234375 -0.140625 C 0.128906 -0.242188 0.078125 -0.378906 0.078125 -0.546875 C 0.078125 -0.722656 0.128906 -0.863281 0.234375 -0.96875 C 0.335938 -1.070312 0.472656 -1.125 0.640625 -1.125 Z M 0.3125 -0.640625 L 0.953125 -0.640625 C 0.941406 -0.734375 0.910156 -0.800781 0.859375 -0.84375 C 0.804688 -0.894531 0.734375 -0.921875 0.640625 -0.921875 C 0.546875 -0.921875 0.46875 -0.894531 0.40625 -0.84375 C 0.351562 -0.800781 0.320312 -0.734375 0.3125 -0.640625 Z M 0.3125 -0.640625 "/></g></g></g><g fill="#2e4238" fill-opacity="1"><g transform="translate(40.921262, 21.17349)"><g><path d="M 1.234375 -1.546875 L 1.234375 0 L 1 0 L 1 -0.1875 C 0.914062 -0.0507812 0.785156 0.015625 0.609375 0.015625 C 0.453125 0.015625 0.320312 -0.0351562 0.21875 -0.140625 C 0.125 -0.253906 0.078125 -0.394531 0.078125 -0.5625 C 0.078125 -0.726562 0.125 -0.863281 0.21875 -0.96875 C 0.3125 -1.070312 0.441406 -1.125 0.609375 -1.125 C 0.785156 -1.125 0.914062 -1.054688 1 -0.921875 L 1 -1.546875 Z M 0.40625 -0.28125 C 0.46875 -0.21875 0.550781 -0.1875 0.65625 -0.1875 C 0.757812 -0.1875 0.84375 -0.21875 0.90625 -0.28125 C 0.96875 -0.351562 1 -0.441406 1 -0.546875 C 1 -0.660156 0.96875 -0.75 0.90625 -0.8125 C 0.84375 -0.882812 0.757812 -0.921875 0.65625 -0.921875 C 0.550781 -0.921875 0.46875 -0.882812 0.40625 -0.8125 C 0.34375 -0.75 0.3125 -0.660156 0.3125 -0.546875 C 0.3125 -0.441406 0.34375 -0.351562 0.40625 -0.28125 Z M 0.40625 -0.28125 "/></g></g></g><g fill="#2e4238" fill-opacity="1"><g transform="translate(42.625021, 21.17349)"><g/></g></g><g fill="#2e4238" fill-opacity="1"><g transform="translate(43.442465, 21.17349)"><g/></g></g><g fill="#2e4238" fill-opacity="1"><g transform="translate(43.442465, 21.17349)"><g/></g></g><g fill="#2e4238" fill-opacity="1"><g transform="translate(43.442465, 21.17349)"><g><path d="M 1.1875 -1.109375 L 1.1875 0 L 0.953125 0 L 0.953125 -0.21875 C 0.878906 -0.0703125 0.742188 0.00390625 0.546875 0.015625 C 0.421875 0.015625 0.320312 -0.0195312 0.25 -0.09375 C 0.175781 -0.175781 0.140625 -0.285156 0.140625 -0.421875 L 0.140625 -1.109375 L 0.390625 -1.109375 L 0.390625 -0.484375 C 0.390625 -0.398438 0.410156 -0.332031 0.453125 -0.28125 C 0.492188 -0.238281 0.554688 -0.21875 0.640625 -0.21875 C 0.734375 -0.21875 0.804688 -0.25 0.859375 -0.3125 C 0.921875 -0.382812 0.953125 -0.46875 0.953125 -0.5625 L 0.953125 -1.109375 Z M 1.1875 -1.109375 "/></g></g></g><g fill="#2e4238" fill-opacity="1"><g transform="translate(45.085602, 21.17349)"><g><path d="M 0.8125 -1.125 C 0.976562 -1.125 1.109375 -1.070312 1.203125 -0.96875 C 1.296875 -0.863281 1.34375 -0.722656 1.34375 -0.546875 C 1.34375 -0.378906 1.296875 -0.242188 1.203125 -0.140625 C 1.109375 -0.0351562 0.984375 0.015625 0.828125 0.015625 C 0.648438 0.015625 0.515625 -0.0507812 0.421875 -0.1875 L 0.421875 0.40625 L 0.1875 0.40625 L 0.1875 -1.109375 L 0.421875 -1.109375 L 0.421875 -0.921875 C 0.515625 -1.054688 0.644531 -1.125 0.8125 -1.125 Z M 0.515625 -0.296875 C 0.585938 -0.234375 0.671875 -0.203125 0.765625 -0.203125 C 0.867188 -0.203125 0.953125 -0.234375 1.015625 -0.296875 C 1.078125 -0.367188 1.109375 -0.457031 1.109375 -0.5625 C 1.109375 -0.664062 1.078125 -0.75 1.015625 -0.8125 C 0.953125 -0.882812 0.867188 -0.921875 0.765625 -0.921875 C 0.671875 -0.921875 0.585938 -0.882812 0.515625 -0.8125 C 0.453125 -0.75 0.421875 -0.664062 0.421875 -0.5625 C 0.421875 -0.457031 0.453125 -0.367188 0.515625 -0.296875 Z M 0.515625 -0.296875 "/></g></g></g><g fill="#2e4238" fill-opacity="1"><g transform="translate(46.78518, 21.17349)"><g/></g></g><g fill="#2e4238" fill-opacity="1"><g transform="translate(47.602625, 21.17349)"><g><path d="M 1.125 -1.109375 L 0.609375 0.15625 C 0.546875 0.332031 0.425781 0.421875 0.25 0.421875 C 0.15625 0.421875 0.0703125 0.390625 0 0.328125 L 0.09375 0.140625 C 0.144531 0.171875 0.195312 0.1875 0.25 0.1875 C 0.320312 0.1875 0.375 0.144531 0.40625 0.0625 L 0.453125 -0.015625 L -0.015625 -1.109375 L 0.234375 -1.109375 L 0.578125 -0.265625 L 0.875 -1.109375 Z M 1.125 -1.109375 "/></g></g></g><g fill="#2e4238" fill-opacity="1"><g transform="translate(48.990738, 21.17349)"><g><path d="M 0.65625 -1.125 C 0.820312 -1.125 0.957031 -1.070312 1.0625 -0.96875 C 1.175781 -0.863281 1.234375 -0.726562 1.234375 -0.5625 C 1.234375 -0.394531 1.175781 -0.253906 1.0625 -0.140625 C 0.957031 -0.0351562 0.820312 0.015625 0.65625 0.015625 C 0.476562 0.015625 0.335938 -0.0351562 0.234375 -0.140625 C 0.128906 -0.253906 0.078125 -0.394531 0.078125 -0.5625 C 0.078125 -0.726562 0.128906 -0.863281 0.234375 -0.96875 C 0.335938 -1.070312 0.476562 -1.125 0.65625 -1.125 Z M 0.65625 -0.921875 C 0.550781 -0.921875 0.46875 -0.882812 0.40625 -0.8125 C 0.34375 -0.75 0.3125 -0.664062 0.3125 -0.5625 C 0.3125 -0.445312 0.34375 -0.351562 0.40625 -0.28125 C 0.46875 -0.21875 0.550781 -0.1875 0.65625 -0.1875 C 0.757812 -0.1875 0.84375 -0.21875 0.90625 -0.28125 C 0.96875 -0.351562 1 -0.445312 1 -0.5625 C 1 -0.664062 0.960938 -0.75 0.890625 -0.8125 C 0.828125 -0.882812 0.75 -0.921875 0.65625 -0.921875 Z M 0.65625 -0.921875 "/></g></g></g><g fill="#2e4238" fill-opacity="1"><g transform="translate(50.575345, 21.17349)"><g><path d="M 1.1875 -1.109375 L 1.1875 0 L 0.953125 0 L 0.953125 -0.21875 C 0.878906 -0.0703125 0.742188 0.00390625 0.546875 0.015625 C 0.421875 0.015625 0.320312 -0.0195312 0.25 -0.09375 C 0.175781 -0.175781 0.140625 -0.285156 0.140625 -0.421875 L 0.140625 -1.109375 L 0.390625 -1.109375 L 0.390625 -0.484375 C 0.390625 -0.398438 0.410156 -0.332031 0.453125 -0.28125 C 0.492188 -0.238281 0.554688 -0.21875 0.640625 -0.21875 C 0.734375 -0.21875 0.804688 -0.25 0.859375 -0.3125 C 0.921875 -0.382812 0.953125 -0.46875 0.953125 -0.5625 L 0.953125 -1.109375 Z M 1.1875 -1.109375 "/></g></g></g><g fill="#2e4238" fill-opacity="1"><g transform="translate(52.218482, 21.17349)"><g><path d="M 0.421875 -1.109375 L 0.421875 -0.890625 C 0.492188 -1.046875 0.617188 -1.125 0.796875 -1.125 L 0.796875 -0.890625 C 0.691406 -0.898438 0.601562 -0.875 0.53125 -0.8125 C 0.46875 -0.757812 0.429688 -0.679688 0.421875 -0.578125 L 0.421875 0 L 0.171875 0 L 0.171875 -1.109375 Z M 0.421875 -1.109375 "/></g></g></g><g fill="#2e4238" fill-opacity="1"><g transform="translate(53.320217, 21.17349)"><g/></g></g><g fill="#2e4238" fill-opacity="1"><g transform="translate(54.137661, 21.17349)"><g><path d="M 0.75 -0.25 L 0.8125 -0.078125 C 0.71875 -0.015625 0.625 0.015625 0.53125 0.015625 C 0.4375 0.015625 0.359375 -0.0078125 0.296875 -0.0625 C 0.242188 -0.125 0.21875 -0.207031 0.21875 -0.3125 L 0.21875 -0.890625 L 0.0625 -0.890625 L 0.0625 -1.078125 L 0.21875 -1.078125 L 0.21875 -1.375 L 0.453125 -1.375 L 0.453125 -1.078125 L 0.796875 -1.078125 L 0.796875 -0.890625 L 0.453125 -0.890625 L 0.453125 -0.359375 C 0.453125 -0.304688 0.460938 -0.265625 0.484375 -0.234375 C 0.503906 -0.210938 0.535156 -0.203125 0.578125 -0.203125 C 0.617188 -0.203125 0.675781 -0.21875 0.75 -0.25 Z M 0.75 -0.25 "/></g></g></g><g fill="#2e4238" fill-opacity="1"><g transform="translate(55.26657, 21.17349)"><g><path d="M 0.421875 -1.109375 L 0.421875 -0.890625 C 0.492188 -1.046875 0.617188 -1.125 0.796875 -1.125 L 0.796875 -0.890625 C 0.691406 -0.898438 0.601562 -0.875 0.53125 -0.8125 C 0.46875 -0.757812 0.429688 -0.679688 0.421875 -0.578125 L 0.421875 0 L 0.171875 0 L 0.171875 -1.109375 Z M 0.421875 -1.109375 "/></g></g></g><g fill="#2e4238" fill-opacity="1"><g transform="translate(56.368306, 21.17349)"><g><path d="M 0.84375 0 L 0.84375 -0.140625 C 0.757812 -0.0351562 0.640625 0.015625 0.484375 0.015625 C 0.359375 0.015625 0.257812 -0.015625 0.1875 -0.078125 C 0.113281 -0.148438 0.078125 -0.234375 0.078125 -0.328125 C 0.078125 -0.429688 0.113281 -0.515625 0.1875 -0.578125 C 0.269531 -0.640625 0.375 -0.671875 0.5 -0.671875 L 0.84375 -0.671875 L 0.84375 -0.703125 C 0.84375 -0.773438 0.816406 -0.828125 0.765625 -0.859375 C 0.722656 -0.898438 0.660156 -0.921875 0.578125 -0.921875 C 0.472656 -0.921875 0.363281 -0.882812 0.25 -0.8125 L 0.15625 -0.984375 C 0.238281 -1.035156 0.3125 -1.070312 0.375 -1.09375 C 0.445312 -1.113281 0.53125 -1.125 0.625 -1.125 C 0.769531 -1.125 0.878906 -1.085938 0.953125 -1.015625 C 1.035156 -0.953125 1.078125 -0.859375 1.078125 -0.734375 L 1.078125 0 Z M 0.53125 -0.1875 C 0.613281 -0.1875 0.679688 -0.203125 0.734375 -0.234375 C 0.796875 -0.273438 0.832031 -0.328125 0.84375 -0.390625 L 0.84375 -0.5 L 0.546875 -0.5 C 0.460938 -0.5 0.398438 -0.484375 0.359375 -0.453125 C 0.328125 -0.429688 0.3125 -0.394531 0.3125 -0.34375 C 0.3125 -0.289062 0.328125 -0.25 0.359375 -0.21875 C 0.398438 -0.195312 0.457031 -0.1875 0.53125 -0.1875 Z M 0.53125 -0.1875 "/></g></g></g><g fill="#2e4238" fill-opacity="1"><g transform="translate(57.871391, 21.17349)"><g><path d="M 0.828125 -1.125 C 0.960938 -1.125 1.066406 -1.082031 1.140625 -1 C 1.210938 -0.925781 1.25 -0.820312 1.25 -0.6875 L 1.25 0 L 1 0 L 1 -0.625 C 1 -0.707031 0.972656 -0.769531 0.921875 -0.8125 C 0.878906 -0.863281 0.816406 -0.890625 0.734375 -0.890625 C 0.640625 -0.890625 0.566406 -0.859375 0.515625 -0.796875 C 0.460938 -0.742188 0.429688 -0.675781 0.421875 -0.59375 L 0.421875 0 L 0.171875 0 L 0.171875 -1.109375 L 0.421875 -1.109375 L 0.421875 -0.90625 C 0.492188 -1.050781 0.628906 -1.125 0.828125 -1.125 Z M 0.828125 -1.125 "/></g></g></g><g fill="#2e4238" fill-opacity="1"><g transform="translate(59.535433, 21.17349)"><g><path d="M 0.515625 -1.125 C 0.660156 -1.125 0.789062 -1.085938 0.90625 -1.015625 L 0.8125 -0.828125 C 0.707031 -0.898438 0.597656 -0.9375 0.484375 -0.9375 C 0.378906 -0.9375 0.328125 -0.898438 0.328125 -0.828125 C 0.328125 -0.785156 0.347656 -0.75 0.390625 -0.71875 C 0.429688 -0.695312 0.476562 -0.675781 0.53125 -0.65625 C 0.59375 -0.644531 0.648438 -0.628906 0.703125 -0.609375 C 0.765625 -0.585938 0.816406 -0.550781 0.859375 -0.5 C 0.898438 -0.457031 0.921875 -0.398438 0.921875 -0.328125 C 0.921875 -0.210938 0.878906 -0.125 0.796875 -0.0625 C 0.710938 -0.0078125 0.609375 0.015625 0.484375 0.015625 C 0.398438 0.015625 0.316406 0 0.234375 -0.03125 C 0.160156 -0.0625 0.0976562 -0.0976562 0.046875 -0.140625 L 0.125 -0.3125 C 0.175781 -0.269531 0.234375 -0.238281 0.296875 -0.21875 C 0.367188 -0.195312 0.4375 -0.1875 0.5 -0.1875 C 0.550781 -0.1875 0.59375 -0.191406 0.625 -0.203125 C 0.664062 -0.222656 0.6875 -0.253906 0.6875 -0.296875 C 0.6875 -0.335938 0.664062 -0.367188 0.625 -0.390625 C 0.582031 -0.421875 0.53125 -0.441406 0.46875 -0.453125 C 0.414062 -0.472656 0.359375 -0.492188 0.296875 -0.515625 C 0.242188 -0.535156 0.195312 -0.566406 0.15625 -0.609375 C 0.113281 -0.660156 0.09375 -0.722656 0.09375 -0.796875 C 0.09375 -0.910156 0.132812 -0.992188 0.21875 -1.046875 C 0.300781 -1.097656 0.398438 -1.125 0.515625 -1.125 Z M 0.515625 -1.125 "/></g></g></g><g fill="#2e4238" fill-opacity="1"><g transform="translate(60.796035, 21.17349)"><g><path d="M 0.84375 0 L 0.84375 -0.140625 C 0.757812 -0.0351562 0.640625 0.015625 0.484375 0.015625 C 0.359375 0.015625 0.257812 -0.015625 0.1875 -0.078125 C 0.113281 -0.148438 0.078125 -0.234375 0.078125 -0.328125 C 0.078125 -0.429688 0.113281 -0.515625 0.1875 -0.578125 C 0.269531 -0.640625 0.375 -0.671875 0.5 -0.671875 L 0.84375 -0.671875 L 0.84375 -0.703125 C 0.84375 -0.773438 0.816406 -0.828125 0.765625 -0.859375 C 0.722656 -0.898438 0.660156 -0.921875 0.578125 -0.921875 C 0.472656 -0.921875 0.363281 -0.882812 0.25 -0.8125 L 0.15625 -0.984375 C 0.238281 -1.035156 0.3125 -1.070312 0.375 -1.09375 C 0.445312 -1.113281 0.53125 -1.125 0.625 -1.125 C 0.769531 -1.125 0.878906 -1.085938 0.953125 -1.015625 C 1.035156 -0.953125 1.078125 -0.859375 1.078125 -0.734375 L 1.078125 0 Z M 0.53125 -0.1875 C 0.613281 -0.1875 0.679688 -0.203125 0.734375 -0.234375 C 0.796875 -0.273438 0.832031 -0.328125 0.84375 -0.390625 L 0.84375 -0.5 L 0.546875 -0.5 C 0.460938 -0.5 0.398438 -0.484375 0.359375 -0.453125 C 0.328125 -0.429688 0.3125 -0.394531 0.3125 -0.34375 C 0.3125 -0.289062 0.328125 -0.25 0.359375 -0.21875 C 0.398438 -0.195312 0.457031 -0.1875 0.53125 -0.1875 Z M 0.53125 -0.1875 "/></g></g></g><g fill="#2e4238" fill-opacity="1"><g transform="translate(62.29912, 21.17349)"><g><path d="M 0.640625 -1.125 C 0.835938 -1.125 0.988281 -1.0625 1.09375 -0.9375 L 0.96875 -0.78125 C 0.882812 -0.863281 0.773438 -0.90625 0.640625 -0.90625 C 0.546875 -0.90625 0.46875 -0.875 0.40625 -0.8125 C 0.34375 -0.75 0.3125 -0.660156 0.3125 -0.546875 C 0.3125 -0.441406 0.34375 -0.359375 0.40625 -0.296875 C 0.46875 -0.234375 0.546875 -0.203125 0.640625 -0.203125 C 0.785156 -0.203125 0.894531 -0.242188 0.96875 -0.328125 L 1.109375 -0.203125 C 1.003906 -0.0546875 0.847656 0.015625 0.640625 0.015625 C 0.472656 0.015625 0.335938 -0.0351562 0.234375 -0.140625 C 0.128906 -0.242188 0.078125 -0.382812 0.078125 -0.5625 C 0.078125 -0.726562 0.128906 -0.863281 0.234375 -0.96875 C 0.335938 -1.070312 0.472656 -1.125 0.640625 -1.125 Z M 0.640625 -1.125 "/></g></g></g><g fill="#2e4238" fill-opacity="1"><g transform="translate(63.756216, 21.17349)"><g><path d="M 0.75 -0.25 L 0.8125 -0.078125 C 0.71875 -0.015625 0.625 0.015625 0.53125 0.015625 C 0.4375 0.015625 0.359375 -0.0078125 0.296875 -0.0625 C 0.242188 -0.125 0.21875 -0.207031 0.21875 -0.3125 L 0.21875 -0.890625 L 0.0625 -0.890625 L 0.0625 -1.078125 L 0.21875 -1.078125 L 0.21875 -1.375 L 0.453125 -1.375 L 0.453125 -1.078125 L 0.796875 -1.078125 L 0.796875 -0.890625 L 0.453125 -0.890625 L 0.453125 -0.359375 C 0.453125 -0.304688 0.460938 -0.265625 0.484375 -0.234375 C 0.503906 -0.210938 0.535156 -0.203125 0.578125 -0.203125 C 0.617188 -0.203125 0.675781 -0.21875 0.75 -0.25 Z M 0.75 -0.25 "/></g></g></g><g fill="#2e4238" fill-opacity="1"><g transform="translate(64.885126, 21.17349)"><g><path d="M 0.1875 -1.53125 C 0.21875 -1.5625 0.253906 -1.578125 0.296875 -1.578125 C 0.335938 -1.578125 0.367188 -1.5625 0.390625 -1.53125 C 0.421875 -1.507812 0.4375 -1.476562 0.4375 -1.4375 C 0.4375 -1.394531 0.421875 -1.359375 0.390625 -1.328125 C 0.367188 -1.296875 0.335938 -1.28125 0.296875 -1.28125 C 0.253906 -1.28125 0.21875 -1.296875 0.1875 -1.328125 C 0.164062 -1.359375 0.15625 -1.394531 0.15625 -1.4375 C 0.15625 -1.476562 0.164062 -1.507812 0.1875 -1.53125 Z M 0.421875 0 L 0.171875 0 L 0.171875 -1.109375 L 0.421875 -1.109375 Z M 0.421875 0 "/></g></g></g><g fill="#2e4238" fill-opacity="1"><g transform="translate(65.75692, 21.17349)"><g><path d="M 0.65625 -1.125 C 0.820312 -1.125 0.957031 -1.070312 1.0625 -0.96875 C 1.175781 -0.863281 1.234375 -0.726562 1.234375 -0.5625 C 1.234375 -0.394531 1.175781 -0.253906 1.0625 -0.140625 C 0.957031 -0.0351562 0.820312 0.015625 0.65625 0.015625 C 0.476562 0.015625 0.335938 -0.0351562 0.234375 -0.140625 C 0.128906 -0.253906 0.078125 -0.394531 0.078125 -0.5625 C 0.078125 -0.726562 0.128906 -0.863281 0.234375 -0.96875 C 0.335938 -1.070312 0.476562 -1.125 0.65625 -1.125 Z M 0.65625 -0.921875 C 0.550781 -0.921875 0.46875 -0.882812 0.40625 -0.8125 C 0.34375 -0.75 0.3125 -0.664062 0.3125 -0.5625 C 0.3125 -0.445312 0.34375 -0.351562 0.40625 -0.28125 C 0.46875 -0.21875 0.550781 -0.1875 0.65625 -0.1875 C 0.757812 -0.1875 0.84375 -0.21875 0.90625 -0.28125 C 0.96875 -0.351562 1 -0.445312 1 -0.5625 C 1 -0.664062 0.960938 -0.75 0.890625 -0.8125 C 0.828125 -0.882812 0.75 -0.921875 0.65625 -0.921875 Z M 0.65625 -0.921875 "/></g></g></g><g fill="#2e4238" fill-opacity="1"><g transform="translate(67.341529, 21.17349)"><g><path d="M 0.828125 -1.125 C 0.960938 -1.125 1.066406 -1.082031 1.140625 -1 C 1.210938 -0.925781 1.25 -0.820312 1.25 -0.6875 L 1.25 0 L 1 0 L 1 -0.625 C 1 -0.707031 0.972656 -0.769531 0.921875 -0.8125 C 0.878906 -0.863281 0.816406 -0.890625 0.734375 -0.890625 C 0.640625 -0.890625 0.566406 -0.859375 0.515625 -0.796875 C 0.460938 -0.742188 0.429688 -0.675781 0.421875 -0.59375 L 0.421875 0 L 0.171875 0 L 0.171875 -1.109375 L 0.421875 -1.109375 L 0.421875 -0.90625 C 0.492188 -1.050781 0.628906 -1.125 0.828125 -1.125 Z M 0.828125 -1.125 "/></g></g></g><g fill="#2e4238" fill-opacity="1"><g transform="translate(69.005572, 21.17349)"><g><path d="M 0.515625 -1.125 C 0.660156 -1.125 0.789062 -1.085938 0.90625 -1.015625 L 0.8125 -0.828125 C 0.707031 -0.898438 0.597656 -0.9375 0.484375 -0.9375 C 0.378906 -0.9375 0.328125 -0.898438 0.328125 -0.828125 C 0.328125 -0.785156 0.347656 -0.75 0.390625 -0.71875 C 0.429688 -0.695312 0.476562 -0.675781 0.53125 -0.65625 C 0.59375 -0.644531 0.648438 -0.628906 0.703125 -0.609375 C 0.765625 -0.585938 0.816406 -0.550781 0.859375 -0.5 C 0.898438 -0.457031 0.921875 -0.398438 0.921875 -0.328125 C 0.921875 -0.210938 0.878906 -0.125 0.796875 -0.0625 C 0.710938 -0.0078125 0.609375 0.015625 0.484375 0.015625 C 0.398438 0.015625 0.316406 0 0.234375 -0.03125 C 0.160156 -0.0625 0.0976562 -0.0976562 0.046875 -0.140625 L 0.125 -0.3125 C 0.175781 -0.269531 0.234375 -0.238281 0.296875 -0.21875 C 0.367188 -0.195312 0.4375 -0.1875 0.5 -0.1875 C 0.550781 -0.1875 0.59375 -0.191406 0.625 -0.203125 C 0.664062 -0.222656 0.6875 -0.253906 0.6875 -0.296875 C 0.6875 -0.335938 0.664062 -0.367188 0.625 -0.390625 C 0.582031 -0.421875 0.53125 -0.441406 0.46875 -0.453125 C 0.414062 -0.472656 0.359375 -0.492188 0.296875 -0.515625 C 0.242188 -0.535156 0.195312 -0.566406 0.15625 -0.609375 C 0.113281 -0.660156 0.09375 -0.722656 0.09375 -0.796875 C 0.09375 -0.910156 0.132812 -0.992188 0.21875 -1.046875 C 0.300781 -1.097656 0.398438 -1.125 0.515625 -1.125 Z M 0.515625 -1.125 "/></g></g></g><g fill="#2e4238" fill-opacity="1"><g transform="translate(70.266173, 21.17349)"><g/></g></g><g fill="#2e4238" fill-opacity="1"><g transform="translate(71.083619, 21.17349)"><g><path d="M 1.46875 0 L 1.21875 0 L 0.9375 -0.828125 L 0.65625 0 L 0.40625 0 L 0 -1.109375 L 0.25 -1.109375 L 0.53125 -0.234375 L 0.8125 -1.109375 L 1.0625 -1.109375 L 1.34375 -0.234375 L 1.640625 -1.109375 L 1.875 -1.109375 Z M 1.46875 0 "/></g></g></g><g fill="#2e4238" fill-opacity="1"><g transform="translate(73.228445, 21.17349)"><g><path d="M 0.1875 -1.53125 C 0.21875 -1.5625 0.253906 -1.578125 0.296875 -1.578125 C 0.335938 -1.578125 0.367188 -1.5625 0.390625 -1.53125 C 0.421875 -1.507812 0.4375 -1.476562 0.4375 -1.4375 C 0.4375 -1.394531 0.421875 -1.359375 0.390625 -1.328125 C 0.367188 -1.296875 0.335938 -1.28125 0.296875 -1.28125 C 0.253906 -1.28125 0.21875 -1.296875 0.1875 -1.328125 C 0.164062 -1.359375 0.15625 -1.394531 0.15625 -1.4375 C 0.15625 -1.476562 0.164062 -1.507812 0.1875 -1.53125 Z M 0.421875 0 L 0.171875 0 L 0.171875 -1.109375 L 0.421875 -1.109375 Z M 0.421875 0 "/></g></g></g><g fill="#2e4238" fill-opacity="1"><g transform="translate(74.10024, 21.17349)"><g><path d="M 0.75 -0.25 L 0.8125 -0.078125 C 0.71875 -0.015625 0.625 0.015625 0.53125 0.015625 C 0.4375 0.015625 0.359375 -0.0078125 0.296875 -0.0625 C 0.242188 -0.125 0.21875 -0.207031 0.21875 -0.3125 L 0.21875 -0.890625 L 0.0625 -0.890625 L 0.0625 -1.078125 L 0.21875 -1.078125 L 0.21875 -1.375 L 0.453125 -1.375 L 0.453125 -1.078125 L 0.796875 -1.078125 L 0.796875 -0.890625 L 0.453125 -0.890625 L 0.453125 -0.359375 C 0.453125 -0.304688 0.460938 -0.265625 0.484375 -0.234375 C 0.503906 -0.210938 0.535156 -0.203125 0.578125 -0.203125 C 0.617188 -0.203125 0.675781 -0.21875 0.75 -0.25 Z M 0.75 -0.25 "/></g></g></g><g fill="#2e4238" fill-opacity="1"><g transform="translate(75.229148, 21.17349)"><g><path d="M 0.84375 -1.125 C 0.96875 -1.125 1.066406 -1.082031 1.140625 -1 C 1.210938 -0.925781 1.25 -0.820312 1.25 -0.6875 L 1.25 0 L 1.015625 0 L 1.015625 -0.625 C 1.015625 -0.707031 0.988281 -0.769531 0.9375 -0.8125 C 0.894531 -0.863281 0.832031 -0.890625 0.75 -0.890625 C 0.644531 -0.890625 0.5625 -0.859375 0.5 -0.796875 C 0.445312 -0.734375 0.421875 -0.648438 0.421875 -0.546875 L 0.421875 0 L 0.1875 0 L 0.1875 -1.546875 L 0.421875 -1.546875 L 0.421875 -0.890625 C 0.503906 -1.046875 0.644531 -1.125 0.84375 -1.125 Z M 0.84375 -1.125 "/></g></g></g><g fill="#2e4238" fill-opacity="1"><g transform="translate(76.905733, 21.17349)"><g/></g></g><g fill="#2e4238" fill-opacity="1"><g transform="translate(77.723179, 21.17349)"><g><path d="M 1.609375 -0.015625 L 1.703125 0.15625 C 1.585938 0.269531 1.457031 0.328125 1.3125 0.328125 C 1.21875 0.328125 1.128906 0.296875 1.046875 0.234375 C 0.972656 0.179688 0.90625 0.109375 0.84375 0.015625 C 0.625 0.015625 0.441406 -0.0546875 0.296875 -0.203125 C 0.148438 -0.347656 0.078125 -0.523438 0.078125 -0.734375 C 0.078125 -0.941406 0.148438 -1.113281 0.296875 -1.25 C 0.441406 -1.394531 0.625 -1.46875 0.84375 -1.46875 C 1.0625 -1.46875 1.242188 -1.394531 1.390625 -1.25 C 1.546875 -1.113281 1.625 -0.941406 1.625 -0.734375 C 1.625 -0.566406 1.570312 -0.414062 1.46875 -0.28125 C 1.375 -0.15625 1.25 -0.0703125 1.09375 -0.03125 C 1.175781 0.0625 1.257812 0.109375 1.34375 0.109375 C 1.414062 0.109375 1.503906 0.0664062 1.609375 -0.015625 Z M 0.46875 -1.09375 C 0.375 -1 0.328125 -0.878906 0.328125 -0.734375 C 0.328125 -0.585938 0.378906 -0.460938 0.484375 -0.359375 C 0.585938 -0.265625 0.707031 -0.21875 0.84375 -0.21875 C 0.988281 -0.21875 1.113281 -0.265625 1.21875 -0.359375 C 1.320312 -0.460938 1.375 -0.585938 1.375 -0.734375 C 1.375 -0.878906 1.320312 -1 1.21875 -1.09375 C 1.113281 -1.195312 0.988281 -1.25 0.84375 -1.25 C 0.695312 -1.25 0.570312 -1.195312 0.46875 -1.09375 Z M 0.46875 -1.09375 "/></g></g></g><g fill="#2e4238" fill-opacity="1"><g transform="translate(79.725858, 21.17349)"><g><path d="M 1.1875 -1.109375 L 1.1875 0 L 0.953125 0 L 0.953125 -0.21875 C 0.878906 -0.0703125 0.742188 0.00390625 0.546875 0.015625 C 0.421875 0.015625 0.320312 -0.0195312 0.25 -0.09375 C 0.175781 -0.175781 0.140625 -0.285156 0.140625 -0.421875 L 0.140625 -1.109375 L 0.390625 -1.109375 L 0.390625 -0.484375 C 0.390625 -0.398438 0.410156 -0.332031 0.453125 -0.28125 C 0.492188 -0.238281 0.554688 -0.21875 0.640625 -0.21875 C 0.734375 -0.21875 0.804688 -0.25 0.859375 -0.3125 C 0.921875 -0.382812 0.953125 -0.46875 0.953125 -0.5625 L 0.953125 -1.109375 Z M 1.1875 -1.109375 "/></g></g></g><g fill="#2e4238" fill-opacity="1"><g transform="translate(81.368996, 21.17349)"><g><path d="M 0.1875 -1.53125 C 0.21875 -1.5625 0.253906 -1.578125 0.296875 -1.578125 C 0.335938 -1.578125 0.367188 -1.5625 0.390625 -1.53125 C 0.421875 -1.507812 0.4375 -1.476562 0.4375 -1.4375 C 0.4375 -1.394531 0.421875 -1.359375 0.390625 -1.328125 C 0.367188 -1.296875 0.335938 -1.28125 0.296875 -1.28125 C 0.253906 -1.28125 0.21875 -1.296875 0.1875 -1.328125 C 0.164062 -1.359375 0.15625 -1.394531 0.15625 -1.4375 C 0.15625 -1.476562 0.164062 -1.507812 0.1875 -1.53125 Z M 0.421875 0 L 0.171875 0 L 0.171875 -1.109375 L 0.421875 -1.109375 Z M 0.421875 0 "/></g></g></g><g fill="#2e4238" fill-opacity="1"><g transform="translate(82.240791, 21.17349)"><g><path d="M 0.640625 -1.125 C 0.835938 -1.125 0.988281 -1.0625 1.09375 -0.9375 L 0.96875 -0.78125 C 0.882812 -0.863281 0.773438 -0.90625 0.640625 -0.90625 C 0.546875 -0.90625 0.46875 -0.875 0.40625 -0.8125 C 0.34375 -0.75 0.3125 -0.660156 0.3125 -0.546875 C 0.3125 -0.441406 0.34375 -0.359375 0.40625 -0.296875 C 0.46875 -0.234375 0.546875 -0.203125 0.640625 -0.203125 C 0.785156 -0.203125 0.894531 -0.242188 0.96875 -0.328125 L 1.109375 -0.203125 C 1.003906 -0.0546875 0.847656 0.015625 0.640625 0.015625 C 0.472656 0.015625 0.335938 -0.0351562 0.234375 -0.140625 C 0.128906 -0.242188 0.078125 -0.382812 0.078125 -0.5625 C 0.078125 -0.726562 0.128906 -0.863281 0.234375 -0.96875 C 0.335938 -1.070312 0.472656 -1.125 0.640625 -1.125 Z M 0.640625 -1.125 "/></g></g></g><g fill="#2e4238" fill-opacity="1"><g transform="translate(83.697884, 21.17349)"><g><path d="M 0.625 -0.515625 L 0.421875 -0.3125 L 0.421875 0 L 0.1875 0 L 0.1875 -1.546875 L 0.421875 -1.546875 L 0.421875 -0.609375 L 0.921875 -1.109375 L 1.203125 -1.109375 L 0.78125 -0.6875 L 1.234375 0 L 0.9375 0 Z M 0.625 -0.515625 "/></g></g></g><g fill="#2e4238" fill-opacity="1"><g transform="translate(85.219779, 21.17349)"><g><path d="M 0.671875 -1.46875 C 0.859375 -1.46875 1.03125 -1.421875 1.1875 -1.328125 L 1.078125 -1.109375 C 0.929688 -1.203125 0.789062 -1.25 0.65625 -1.25 C 0.582031 -1.25 0.523438 -1.234375 0.484375 -1.203125 C 0.441406 -1.179688 0.421875 -1.144531 0.421875 -1.09375 C 0.421875 -1.039062 0.4375 -1 0.46875 -0.96875 C 0.507812 -0.9375 0.554688 -0.910156 0.609375 -0.890625 C 0.671875 -0.867188 0.738281 -0.847656 0.8125 -0.828125 C 0.882812 -0.804688 0.945312 -0.78125 1 -0.75 C 1.0625 -0.726562 1.109375 -0.6875 1.140625 -0.625 C 1.179688 -0.5625 1.203125 -0.492188 1.203125 -0.421875 C 1.203125 -0.285156 1.148438 -0.175781 1.046875 -0.09375 C 0.941406 -0.0195312 0.8125 0.015625 0.65625 0.015625 C 0.539062 0.015625 0.429688 -0.00390625 0.328125 -0.046875 C 0.222656 -0.0976562 0.128906 -0.15625 0.046875 -0.21875 L 0.15625 -0.4375 C 0.226562 -0.363281 0.304688 -0.304688 0.390625 -0.265625 C 0.484375 -0.234375 0.570312 -0.21875 0.65625 -0.21875 C 0.738281 -0.21875 0.804688 -0.234375 0.859375 -0.265625 C 0.910156 -0.296875 0.9375 -0.34375 0.9375 -0.40625 C 0.9375 -0.457031 0.914062 -0.5 0.875 -0.53125 C 0.832031 -0.5625 0.78125 -0.582031 0.71875 -0.59375 C 0.664062 -0.613281 0.601562 -0.632812 0.53125 -0.65625 C 0.46875 -0.6875 0.40625 -0.710938 0.34375 -0.734375 C 0.28125 -0.765625 0.226562 -0.804688 0.1875 -0.859375 C 0.15625 -0.921875 0.140625 -0.988281 0.140625 -1.0625 C 0.140625 -1.1875 0.1875 -1.285156 0.28125 -1.359375 C 0.382812 -1.429688 0.515625 -1.46875 0.671875 -1.46875 Z M 0.671875 -1.46875 "/></g></g></g><g fill="#2e4238" fill-opacity="1"><g transform="translate(86.798115, 21.17349)"><g><path d="M 0.84375 0 L 0.84375 -0.140625 C 0.757812 -0.0351562 0.640625 0.015625 0.484375 0.015625 C 0.359375 0.015625 0.257812 -0.015625 0.1875 -0.078125 C 0.113281 -0.148438 0.078125 -0.234375 0.078125 -0.328125 C 0.078125 -0.429688 0.113281 -0.515625 0.1875 -0.578125 C 0.269531 -0.640625 0.375 -0.671875 0.5 -0.671875 L 0.84375 -0.671875 L 0.84375 -0.703125 C 0.84375 -0.773438 0.816406 -0.828125 0.765625 -0.859375 C 0.722656 -0.898438 0.660156 -0.921875 0.578125 -0.921875 C 0.472656 -0.921875 0.363281 -0.882812 0.25 -0.8125 L 0.15625 -0.984375 C 0.238281 -1.035156 0.3125 -1.070312 0.375 -1.09375 C 0.445312 -1.113281 0.53125 -1.125 0.625 -1.125 C 0.769531 -1.125 0.878906 -1.085938 0.953125 -1.015625 C 1.035156 -0.953125 1.078125 -0.859375 1.078125 -0.734375 L 1.078125 0 Z M 0.53125 -0.1875 C 0.613281 -0.1875 0.679688 -0.203125 0.734375 -0.234375 C 0.796875 -0.273438 0.832031 -0.328125 0.84375 -0.390625 L 0.84375 -0.5 L 0.546875 -0.5 C 0.460938 -0.5 0.398438 -0.484375 0.359375 -0.453125 C 0.328125 -0.429688 0.3125 -0.394531 0.3125 -0.34375 C 0.3125 -0.289062 0.328125 -0.25 0.359375 -0.21875 C 0.398438 -0.195312 0.457031 -0.1875 0.53125 -0.1875 Z M 0.53125 -0.1875 "/></g></g></g><g fill="#2e4238" fill-opacity="1"><g transform="translate(88.3012, 21.17349)"><g><path d="M 0.421875 0 L 0.1875 0 L 0.1875 -1.546875 L 0.421875 -1.546875 Z M 0.421875 0 "/></g></g></g><g fill="#2e4238" fill-opacity="1"><g transform="translate(89.195989, 21.17349)"><g><path d="M 0.640625 -1.125 C 0.828125 -1.125 0.960938 -1.066406 1.046875 -0.953125 C 1.140625 -0.835938 1.175781 -0.675781 1.15625 -0.46875 L 0.3125 -0.46875 C 0.332031 -0.375 0.375 -0.300781 0.4375 -0.25 C 0.5 -0.207031 0.570312 -0.1875 0.65625 -0.1875 C 0.78125 -0.1875 0.882812 -0.226562 0.96875 -0.3125 L 1.109375 -0.1875 C 0.992188 -0.0507812 0.835938 0.015625 0.640625 0.015625 C 0.472656 0.015625 0.335938 -0.0351562 0.234375 -0.140625 C 0.128906 -0.242188 0.078125 -0.378906 0.078125 -0.546875 C 0.078125 -0.722656 0.128906 -0.863281 0.234375 -0.96875 C 0.335938 -1.070312 0.472656 -1.125 0.640625 -1.125 Z M 0.3125 -0.640625 L 0.953125 -0.640625 C 0.941406 -0.734375 0.910156 -0.800781 0.859375 -0.84375 C 0.804688 -0.894531 0.734375 -0.921875 0.640625 -0.921875 C 0.546875 -0.921875 0.46875 -0.894531 0.40625 -0.84375 C 0.351562 -0.800781 0.320312 -0.734375 0.3125 -0.640625 Z M 0.3125 -0.640625 "/></g></g></g><g fill="#2e4238" fill-opacity="1"><g transform="translate(90.703252, 21.17349)"><g><path d="M 0.359375 -1.09375 L 0.328125 -0.46875 L 0.171875 -0.46875 L 0.140625 -1.09375 L 0.140625 -1.453125 L 0.359375 -1.453125 Z M 0.15625 -0.21875 C 0.175781 -0.238281 0.207031 -0.25 0.25 -0.25 C 0.289062 -0.25 0.320312 -0.238281 0.34375 -0.21875 C 0.375 -0.195312 0.390625 -0.164062 0.390625 -0.125 C 0.390625 -0.0820312 0.375 -0.046875 0.34375 -0.015625 C 0.320312 0.00390625 0.289062 0.015625 0.25 0.015625 C 0.207031 0.015625 0.175781 0.00390625 0.15625 -0.015625 C 0.132812 -0.046875 0.125 -0.0820312 0.125 -0.125 C 0.125 -0.164062 0.132812 -0.195312 0.15625 -0.21875 Z M 0.15625 -0.21875 "/></g></g></g><g fill="#2e4238" fill-opacity="1"><g transform="translate(63.024027, 23.996592)"><g/></g></g><g fill="#2e4238" fill-opacity="1"><g transform="translate(63.024027, 26.819694)"><g/></g></g></svg>