<svg xmlns="http://www.w3.org/2000/svg" xmlns:xlink="http://www.w3.org/1999/xlink" width="500" zoomAndPan="magnify" viewBox="0 0 375 374.999991" height="500" preserveAspectRatio="xMidYMid meet" version="1.0"><defs><g/></defs><path fill="#0072ff" d="M 54.320312 177.359375 C 55.074219 178.773438 59.644531 184.613281 59.9375 190.628906 C 60.144531 194.796875 62.65625 203.054688 63.871094 207.71875 C 64.296875 209.359375 71.59375 222.996094 82.214844 219.898438 C 90.808594 217.394531 94.414062 211.960938 96.476562 209.28125 C 96.597656 209.105469 96.71875 208.953125 96.839844 208.796875 C 98.167969 206.953125 99.679688 204.328125 100.972656 202.109375 C 102.046875 200.257812 102.972656 198.6875 103.523438 198.085938 C 104.726562 196.75 116.464844 185.519531 117.835938 183.039062 C 119.195312 180.5625 118.625 179.652344 118.289062 179.25 C 117.972656 178.820312 117.300781 177.082031 110.597656 183.085938 C 103.886719 189.085938 101.183594 191.363281 100.179688 190.941406 C 99.167969 190.519531 100.863281 186.761719 104.328125 180.566406 C 107.808594 174.355469 111.355469 167.054688 111.082031 164.394531 C 110.804688 161.707031 107.679688 160.71875 105.554688 165.179688 C 103.429688 169.613281 96.683594 183.75 94.464844 183.863281 C 92.242188 183.988281 96.753906 176.230469 98.429688 172.195312 C 100.097656 168.167969 104.652344 159.195312 104.332031 157.039062 C 104.03125 154.890625 102.464844 154.050781 101.078125 155.199219 C 99.6875 156.347656 97.402344 159.816406 95.203125 164.976562 C 93.007812 170.125 90.054688 179.007812 88.097656 179.300781 C 86.128906 179.589844 86.519531 176.339844 90.082031 164.636719 C 92.28125 157.421875 92.195312 153.355469 90.4375 153.164062 C 88.675781 152.976562 87.792969 154.195312 85.242188 161.355469 C 82.6875 168.523438 79.839844 182.566406 76.601562 185.332031 C 73.355469 188.09375 71.148438 189.324219 69.128906 187.320312 C 67.101562 185.304688 65.480469 179.960938 62.988281 177.203125 C 61.457031 175.511719 59.65625 173.792969 57.972656 173.027344 C 56.886719 172.535156 55.847656 172.425781 54.957031 172.953125 C 52.671875 174.285156 53.539062 175.910156 54.292969 177.328125 C 54.304688 177.335938 54.3125 177.359375 54.320312 177.359375 " fill-opacity="1" fill-rule="nonzero"/><path fill="#ff6a0c" d="M 72.429688 168.882812 C 71.671875 167.46875 67.105469 161.632812 66.8125 155.613281 C 66.605469 151.445312 64.09375 143.1875 62.878906 138.527344 C 62.453125 136.882812 55.15625 123.246094 44.535156 126.34375 C 35.941406 128.851562 32.335938 134.285156 30.273438 136.964844 C 30.152344 137.136719 30.03125 137.292969 29.910156 137.445312 C 28.582031 139.289062 27.070312 141.914062 25.78125 144.136719 C 24.703125 145.988281 23.777344 147.558594 23.226562 148.160156 C 22.023438 149.496094 10.285156 160.722656 8.914062 163.203125 C 7.554688 165.683594 8.125 166.589844 8.460938 166.996094 C 8.777344 167.425781 9.449219 169.164062 16.152344 163.15625 C 22.863281 157.15625 25.566406 154.882812 26.570312 155.304688 C 27.582031 155.726562 25.886719 159.484375 22.421875 165.679688 C 18.941406 171.886719 15.394531 179.191406 15.667969 181.851562 C 15.945312 184.539062 19.066406 185.527344 21.195312 181.0625 C 23.320312 176.628906 30.066406 162.492188 32.285156 162.378906 C 34.503906 162.253906 29.996094 170.011719 28.320312 174.050781 C 26.652344 178.074219 22.097656 187.046875 22.417969 189.207031 C 22.71875 191.351562 24.285156 192.195312 25.671875 191.046875 C 27.0625 189.894531 29.347656 186.425781 31.546875 181.269531 C 33.738281 176.121094 36.695312 167.238281 38.652344 166.945312 C 40.621094 166.652344 40.230469 169.90625 36.667969 181.605469 C 34.46875 188.824219 34.554688 192.886719 36.3125 193.082031 C 38.074219 193.269531 38.957031 192.050781 41.507812 184.890625 C 44.0625 177.722656 46.910156 163.679688 50.148438 160.914062 C 53.394531 158.148438 55.601562 156.917969 57.621094 158.925781 C 59.648438 160.9375 61.269531 166.285156 63.761719 169.039062 C 65.292969 170.734375 67.09375 172.449219 68.777344 173.21875 C 69.863281 173.710938 70.902344 173.816406 71.789062 173.292969 C 74.078125 171.957031 73.210938 170.335938 72.457031 168.917969 C 72.445312 168.90625 72.4375 168.886719 72.429688 168.882812 " fill-opacity="1" fill-rule="nonzero"/><g fill="#27323b" fill-opacity="1"><g transform="translate(136.764131, 182.486665)"><g><path d="M 17.527344 -0.304688 C 20.730469 1.082031 22.980469 -2.769531 21.769531 -5.539062 C 21.078125 -7.097656 20.773438 -6.75 20.949219 -8.179688 C 21.035156 -9.046875 21.554688 -10.085938 21.726562 -10.992188 C 22.074219 -13.15625 22.074219 -15.40625 21.898438 -17.570312 C 21.683594 -21.46875 20.992188 -25.925781 17.570312 -28.390625 C 14.542969 -30.554688 9.433594 -30.425781 6.015625 -29.171875 C 1.859375 -27.699219 0.824219 -23.890625 0.691406 -19.78125 C 0.476562 -13.15625 1.296875 -5.28125 9.132812 -4.242188 C 10.386719 -4.113281 12.464844 -4.632812 13.546875 -4.285156 C 15.105469 -3.765625 15.753906 -1.039062 17.527344 -0.304688 Z M 10.128906 -9.953125 C 6.015625 -10.820312 7.054688 -19.867188 9.566406 -21.855469 C 14.757812 -26.011719 15.753906 -16.835938 14.933594 -13.808594 C 12.03125 -16.230469 8.914062 -13.199219 10.128906 -9.953125 Z M 10.128906 -9.953125 "/></g></g></g><g fill="#27323b" fill-opacity="1"><g transform="translate(159.526451, 182.486665)"><g><path d="M 6.144531 -0.910156 C 9.652344 0.910156 15.925781 -0.128906 18.480469 -3.160156 C 21.726562 -6.96875 21.46875 -14.585938 21.335938 -19.304688 C 21.382812 -21.121094 21.425781 -23.632812 19.910156 -24.929688 C 18.003906 -26.53125 15.882812 -25.144531 15.234375 -23.070312 C 14.542969 -20.773438 15.453125 -17.617188 15.453125 -15.191406 C 15.453125 -12.8125 15.496094 -10.128906 14.414062 -7.921875 C 13.199219 -5.496094 11.078125 -6.144531 10.128906 -8.527344 C 9.132812 -11.078125 9.523438 -14.324219 9.566406 -17.007812 C 9.652344 -20.125 10.386719 -27.136719 5.582031 -27.179688 C -0.519531 -27.179688 0.605469 -18.089844 1.039062 -14.324219 C 1.601562 -9.78125 1.429688 -3.332031 6.144531 -0.910156 Z M 6.144531 -0.910156 "/></g></g></g><g fill="#27323b" fill-opacity="1"><g transform="translate(181.596382, 182.486665)"><g><path d="M 0.777344 -27.308594 C 2.554688 -21.335938 10.515625 -26.617188 9.132812 -30.988281 C 9.824219 -33.152344 6.015625 -33.976562 4.675781 -33.585938 C 2.164062 -32.894531 0.0429688 -29.863281 0.777344 -27.308594 Z M 6.449219 -0.605469 C 7.746094 -1.558594 7.921875 -3.160156 8.222656 -4.632812 C 9.175781 -9.480469 10.257812 -16.273438 8.09375 -20.949219 C 7.097656 -23.070312 4.585938 -24.539062 2.726562 -22.59375 C 1.386719 -21.164062 1.386719 -18.046875 1.210938 -16.273438 C 0.910156 -12.421875 -0.0429688 -5.886719 1.644531 -2.25 C 2.554688 -0.347656 4.542969 0.734375 6.449219 -0.605469 Z M 6.449219 -0.605469 "/></g></g></g><g fill="#27323b" fill-opacity="1"><g transform="translate(191.592762, 182.486665)"><g><path d="M 9.824219 -0.5625 C 13.460938 0.5625 18.523438 0.347656 19.042969 -4.285156 C 19.648438 -9.566406 14.671875 -8.050781 11.253906 -9.523438 C 6.75 -11.425781 8.699219 -15.753906 11.511719 -18.4375 C 14.84375 -19.519531 20.082031 -20.472656 19.910156 -25.015625 C 19.691406 -29.691406 14.414062 -28.652344 11.339844 -27.613281 C 3.59375 -25.015625 -1.429688 -16.445312 1.472656 -8.527344 C 2.898438 -4.71875 5.972656 -1.816406 9.824219 -0.5625 Z M 9.824219 -0.5625 "/></g></g></g><g fill="#27323b" fill-opacity="1"><g transform="translate(212.14809, 182.486665)"><g><path d="M 18.179688 -1.167969 C 22.246094 -4.457031 15.363281 -13.589844 12.160156 -15.453125 C 14.542969 -16.835938 23.546875 -20.863281 20.992188 -25.058594 C 18.566406 -29.128906 8.136719 -18.4375 6.839844 -17.054688 C 7.53125 -19.519531 9.304688 -29.90625 3.460938 -28.175781 C 0.953125 -27.441406 1.039062 -24.238281 1.039062 -22.160156 C 1.082031 -19.304688 1.039062 -16.402344 0.996094 -13.546875 C 0.953125 -10.90625 -0.910156 -0.128906 4.328125 -1.210938 C 6.320312 -1.601562 6.882812 -4.199219 7.097656 -5.84375 C 7.226562 -6.96875 6.40625 -12.074219 6.925781 -12.378906 C 8.65625 -8.613281 11.859375 3.851562 18.179688 -1.167969 Z M 18.179688 -1.167969 "/></g></g></g><g fill="#27323b" fill-opacity="1"><g transform="translate(234.21802, 182.486665)"><g><path d="M 7.226562 -0.257812 C 11.6875 0.433594 17.226562 0.0429688 19.21875 -4.71875 C 20.125 -6.925781 20.039062 -9.609375 19.042969 -11.730469 C 17.875 -14.28125 15.582031 -15.277344 13.589844 -17.007812 C 8.265625 -21.511719 13.851562 -25.796875 18.523438 -27.265625 C 21.164062 -28.132812 20.253906 -30.945312 18.480469 -32.070312 C 16.359375 -33.414062 13.332031 -33.152344 11.035156 -32.460938 C 6.320312 -31.117188 2.726562 -27.265625 2.035156 -22.332031 C 1.339844 -17.355469 3.503906 -13.808594 7.878906 -11.6875 C 9.480469 -10.90625 12.335938 -9.390625 10.949219 -7.140625 C 9.304688 -4.414062 6.101562 -7.097656 3.980469 -7.097656 C 1.472656 -7.140625 -0.390625 -5.105469 1.253906 -2.726562 C 2.46875 -0.996094 5.28125 -0.605469 7.226562 -0.257812 Z M 7.226562 -0.257812 "/></g></g></g><g fill="#27323b" fill-opacity="1"><g transform="translate(255.032993, 182.486665)"><g><path d="M 3.332031 -0.257812 C 4.890625 0.214844 6.839844 0.0859375 7.878906 -1.210938 C 9.003906 -2.597656 8.65625 -6.015625 9.910156 -7.054688 C 10.605469 -7.574219 16.664062 -7.097656 16.878906 -6.925781 C 18.046875 -5.929688 18.265625 -3.160156 19.128906 -1.90625 C 20.34375 -0.128906 21.945312 -0.0429688 23.632812 -1.386719 C 25.320312 -2.769531 25.144531 -4.199219 24.453125 -6.101562 L 19.390625 -20.34375 C 18.179688 -23.804688 17.355469 -29.128906 12.8125 -29.042969 C 8.785156 -28.910156 6.796875 -26.488281 5.625 -22.9375 C 4.242188 -18.742188 2.941406 -14.5 1.90625 -10.214844 C 1.125 -7.011719 -1.125 -1.558594 3.332031 -0.257812 Z M 11.902344 -13.199219 C 12.292969 -14.5 12.726562 -15.796875 13.113281 -17.097656 C 13.460938 -15.925781 13.851562 -14.800781 14.238281 -13.632812 C 13.460938 -13.503906 12.679688 -13.332031 11.902344 -13.199219 Z M 11.902344 -13.199219 "/></g></g></g><g fill="#27323b" fill-opacity="1"><g transform="translate(280.651417, 182.486665)"><g><path d="M 16.75 -0.691406 C 19.5625 -2.25 19.648438 -6.621094 17.007812 -8.398438 C 15.105469 -9.652344 13.113281 -9.21875 10.992188 -9.609375 C 9.390625 -9.910156 9.695312 -9.175781 9.433594 -10.992188 C 9.304688 -11.945312 9.566406 -13.070312 9.609375 -14.023438 C 9.738281 -17.875 10.386719 -22.636719 9.132812 -26.402344 C 8.136719 -29.472656 4.933594 -30.601562 2.683594 -27.960938 C 0.5625 -25.449219 0.734375 -21.078125 0.734375 -18.046875 C 0.691406 -14.457031 0.519531 -10.5625 0.867188 -6.96875 C 1.253906 -2.988281 3.808594 -1.339844 7.574219 -0.734375 C 10.171875 -0.304688 14.324219 0.648438 16.75 -0.691406 Z M 16.75 -0.691406 "/></g></g></g><g fill="#27323b" fill-opacity="1"><g transform="translate(300.211433, 182.486665)"><g><path d="M 7.183594 -0.0859375 C 9.867188 -0.214844 12.550781 -0.171875 15.191406 -0.304688 C 17.398438 -0.433594 19.042969 -0.734375 19.910156 -2.898438 C 20.429688 -4.328125 20.730469 -6.925781 19.304688 -8.007812 C 17.703125 -9.175781 15.191406 -8.65625 13.375 -8.742188 C 11.730469 -8.828125 7.488281 -10.171875 9.953125 -12.464844 C 11.425781 -13.851562 13.71875 -12.207031 15.453125 -12.679688 C 17.355469 -13.242188 17.789062 -15.40625 17.570312 -17.183594 C 17.441406 -18.699219 16.921875 -19.5625 15.453125 -20.125 C 14.023438 -20.644531 11.035156 -19.691406 9.910156 -20.515625 C 8.398438 -21.597656 9.78125 -23.632812 10.863281 -23.847656 C 12.507812 -24.238281 14.28125 -23.113281 16.015625 -23.804688 C 17.527344 -24.410156 18.308594 -25.839844 18.089844 -27.484375 C 17.789062 -29.777344 15.882812 -30.167969 13.894531 -30.46875 C 10.949219 -30.902344 3.160156 -32.375 1.859375 -28.738281 C 1.296875 -27.179688 1.601562 -25.015625 1.515625 -23.414062 C 1.429688 -20.515625 1.296875 -17.617188 1.167969 -14.714844 C 1.039062 -12.25 0.953125 -9.78125 0.824219 -7.316406 C 0.734375 -5.367188 0.171875 -2.554688 1.730469 -1.039062 C 3.160156 0.347656 5.453125 -0.0429688 7.183594 -0.0859375 Z M 7.183594 -0.0859375 "/></g></g></g><g fill="#2e4238" fill-opacity="1"><g transform="translate(139.163692, 199.290954)"><g><path d="M 2.65625 -5.828125 C 3.40625 -5.828125 4.082031 -5.628906 4.6875 -5.234375 L 4.28125 -4.375 C 3.6875 -4.726562 3.125 -4.90625 2.59375 -4.90625 C 2.300781 -4.90625 2.066406 -4.851562 1.890625 -4.75 C 1.722656 -4.644531 1.640625 -4.492188 1.640625 -4.296875 C 1.640625 -4.109375 1.71875 -3.945312 1.875 -3.8125 C 2.03125 -3.675781 2.222656 -3.578125 2.453125 -3.515625 C 2.679688 -3.453125 2.929688 -3.367188 3.203125 -3.265625 C 3.472656 -3.171875 3.722656 -3.070312 3.953125 -2.96875 C 4.191406 -2.863281 4.382812 -2.695312 4.53125 -2.46875 C 4.6875 -2.238281 4.765625 -1.960938 4.765625 -1.640625 C 4.765625 -1.128906 4.5625 -0.722656 4.15625 -0.421875 C 3.75 -0.117188 3.222656 0.03125 2.578125 0.03125 C 2.140625 0.03125 1.710938 -0.0507812 1.296875 -0.21875 C 0.878906 -0.382812 0.519531 -0.609375 0.21875 -0.890625 L 0.640625 -1.734375 C 0.929688 -1.460938 1.25 -1.253906 1.59375 -1.109375 C 1.945312 -0.960938 2.28125 -0.890625 2.59375 -0.890625 C 2.9375 -0.890625 3.203125 -0.945312 3.390625 -1.0625 C 3.578125 -1.1875 3.671875 -1.363281 3.671875 -1.59375 C 3.671875 -1.789062 3.59375 -1.957031 3.4375 -2.09375 C 3.289062 -2.226562 3.097656 -2.328125 2.859375 -2.390625 C 2.628906 -2.453125 2.378906 -2.523438 2.109375 -2.609375 C 1.847656 -2.703125 1.597656 -2.800781 1.359375 -2.90625 C 1.128906 -3.007812 0.9375 -3.171875 0.78125 -3.390625 C 0.625 -3.617188 0.546875 -3.894531 0.546875 -4.21875 C 0.546875 -4.707031 0.738281 -5.097656 1.125 -5.390625 C 1.519531 -5.679688 2.03125 -5.828125 2.65625 -5.828125 Z M 2.65625 -5.828125 "/></g></g></g><g fill="#2e4238" fill-opacity="1"><g transform="translate(145.404567, 199.290954)"><g><path d="M 3.234375 -4.4375 C 3.859375 -4.4375 4.363281 -4.226562 4.75 -3.8125 C 5.132812 -3.394531 5.328125 -2.851562 5.328125 -2.1875 C 5.328125 -1.519531 5.132812 -0.984375 4.75 -0.578125 C 4.375 -0.171875 3.875 0.03125 3.25 0.03125 C 2.539062 0.03125 2.019531 -0.234375 1.6875 -0.765625 L 1.6875 1.609375 L 0.75 1.609375 L 0.75 -4.390625 L 1.6875 -4.390625 L 1.6875 -3.640625 C 2.019531 -4.171875 2.535156 -4.4375 3.234375 -4.4375 Z M 2.0625 -1.171875 C 2.320312 -0.910156 2.644531 -0.78125 3.03125 -0.78125 C 3.425781 -0.78125 3.75 -0.910156 4 -1.171875 C 4.25 -1.441406 4.375 -1.789062 4.375 -2.21875 C 4.375 -2.625 4.25 -2.960938 4 -3.234375 C 3.75 -3.503906 3.425781 -3.640625 3.03125 -3.640625 C 2.644531 -3.640625 2.320312 -3.503906 2.0625 -3.234375 C 1.8125 -2.960938 1.6875 -2.625 1.6875 -2.21875 C 1.6875 -1.789062 1.8125 -1.441406 2.0625 -1.171875 Z M 2.0625 -1.171875 "/></g></g></g><g fill="#2e4238" fill-opacity="1"><g transform="translate(152.124837, 199.290954)"><g><path d="M 2.515625 -4.4375 C 3.265625 -4.4375 3.804688 -4.207031 4.140625 -3.75 C 4.484375 -3.289062 4.628906 -2.648438 4.578125 -1.828125 L 1.25 -1.828125 C 1.320312 -1.492188 1.476562 -1.226562 1.71875 -1.03125 C 1.96875 -0.832031 2.265625 -0.734375 2.609375 -0.734375 C 3.109375 -0.734375 3.523438 -0.90625 3.859375 -1.25 L 4.359375 -0.703125 C 3.898438 -0.210938 3.289062 0.03125 2.53125 0.03125 C 1.851562 0.03125 1.3125 -0.171875 0.90625 -0.578125 C 0.5 -0.992188 0.296875 -1.53125 0.296875 -2.1875 C 0.296875 -2.851562 0.5 -3.390625 0.90625 -3.796875 C 1.320312 -4.210938 1.859375 -4.425781 2.515625 -4.4375 Z M 1.234375 -2.53125 L 3.75 -2.53125 C 3.726562 -2.882812 3.609375 -3.160156 3.390625 -3.359375 C 3.171875 -3.566406 2.878906 -3.671875 2.515625 -3.671875 C 2.171875 -3.671875 1.882812 -3.566406 1.65625 -3.359375 C 1.425781 -3.160156 1.285156 -2.882812 1.234375 -2.53125 Z M 1.234375 -2.53125 "/></g></g></g><g fill="#2e4238" fill-opacity="1"><g transform="translate(158.084685, 199.290954)"><g><path d="M 2.515625 -4.4375 C 3.265625 -4.4375 3.804688 -4.207031 4.140625 -3.75 C 4.484375 -3.289062 4.628906 -2.648438 4.578125 -1.828125 L 1.25 -1.828125 C 1.320312 -1.492188 1.476562 -1.226562 1.71875 -1.03125 C 1.96875 -0.832031 2.265625 -0.734375 2.609375 -0.734375 C 3.109375 -0.734375 3.523438 -0.90625 3.859375 -1.25 L 4.359375 -0.703125 C 3.898438 -0.210938 3.289062 0.03125 2.53125 0.03125 C 1.851562 0.03125 1.3125 -0.171875 0.90625 -0.578125 C 0.5 -0.992188 0.296875 -1.53125 0.296875 -2.1875 C 0.296875 -2.851562 0.5 -3.390625 0.90625 -3.796875 C 1.320312 -4.210938 1.859375 -4.425781 2.515625 -4.4375 Z M 1.234375 -2.53125 L 3.75 -2.53125 C 3.726562 -2.882812 3.609375 -3.160156 3.390625 -3.359375 C 3.171875 -3.566406 2.878906 -3.671875 2.515625 -3.671875 C 2.171875 -3.671875 1.882812 -3.566406 1.65625 -3.359375 C 1.425781 -3.160156 1.285156 -2.882812 1.234375 -2.53125 Z M 1.234375 -2.53125 "/></g></g></g><g fill="#2e4238" fill-opacity="1"><g transform="translate(164.044534, 199.290954)"><g><path d="M 4.890625 -6.140625 L 4.890625 0 L 3.9375 0 L 3.9375 -0.75 C 3.613281 -0.21875 3.097656 0.046875 2.390625 0.046875 C 1.765625 0.046875 1.257812 -0.160156 0.875 -0.578125 C 0.488281 -0.992188 0.296875 -1.539062 0.296875 -2.21875 C 0.296875 -2.875 0.488281 -3.40625 0.875 -3.8125 C 1.257812 -4.226562 1.757812 -4.4375 2.375 -4.4375 C 3.082031 -4.4375 3.601562 -4.171875 3.9375 -3.640625 L 3.9375 -6.140625 Z M 1.625 -1.140625 C 1.875 -0.878906 2.195312 -0.75 2.59375 -0.75 C 2.988281 -0.75 3.3125 -0.878906 3.5625 -1.140625 C 3.8125 -1.410156 3.9375 -1.757812 3.9375 -2.1875 C 3.9375 -2.601562 3.8125 -2.945312 3.5625 -3.21875 C 3.3125 -3.488281 2.988281 -3.625 2.59375 -3.625 C 2.195312 -3.625 1.875 -3.488281 1.625 -3.21875 C 1.375 -2.945312 1.242188 -2.601562 1.234375 -2.1875 C 1.242188 -1.757812 1.375 -1.410156 1.625 -1.140625 Z M 1.625 -1.140625 "/></g></g></g><g fill="#2e4238" fill-opacity="1"><g transform="translate(170.781334, 199.290954)"><g/></g></g><g fill="#2e4238" fill-opacity="1"><g transform="translate(174.013576, 199.290954)"><g/></g></g><g fill="#2e4238" fill-opacity="1"><g transform="translate(174.013576, 199.290954)"><g/></g></g><g fill="#2e4238" fill-opacity="1"><g transform="translate(174.013576, 199.290954)"><g><path d="M 4.6875 -4.390625 L 4.6875 0 L 3.75 0 L 3.75 -0.859375 C 3.457031 -0.273438 2.929688 0.0195312 2.171875 0.03125 C 1.671875 0.03125 1.273438 -0.117188 0.984375 -0.421875 C 0.703125 -0.722656 0.5625 -1.132812 0.5625 -1.65625 L 0.5625 -4.390625 L 1.515625 -4.390625 L 1.515625 -1.921875 C 1.515625 -1.597656 1.601562 -1.335938 1.78125 -1.140625 C 1.96875 -0.953125 2.21875 -0.859375 2.53125 -0.859375 C 2.90625 -0.867188 3.203125 -1 3.421875 -1.25 C 3.640625 -1.507812 3.75 -1.835938 3.75 -2.234375 L 3.75 -4.390625 Z M 4.6875 -4.390625 "/></g></g></g><g fill="#2e4238" fill-opacity="1"><g transform="translate(180.510674, 199.290954)"><g><path d="M 3.234375 -4.4375 C 3.859375 -4.4375 4.363281 -4.226562 4.75 -3.8125 C 5.132812 -3.394531 5.328125 -2.851562 5.328125 -2.1875 C 5.328125 -1.519531 5.132812 -0.984375 4.75 -0.578125 C 4.375 -0.171875 3.875 0.03125 3.25 0.03125 C 2.539062 0.03125 2.019531 -0.234375 1.6875 -0.765625 L 1.6875 1.609375 L 0.75 1.609375 L 0.75 -4.390625 L 1.6875 -4.390625 L 1.6875 -3.640625 C 2.019531 -4.171875 2.535156 -4.4375 3.234375 -4.4375 Z M 2.0625 -1.171875 C 2.320312 -0.910156 2.644531 -0.78125 3.03125 -0.78125 C 3.425781 -0.78125 3.75 -0.910156 4 -1.171875 C 4.25 -1.441406 4.375 -1.789062 4.375 -2.21875 C 4.375 -2.625 4.25 -2.960938 4 -3.234375 C 3.75 -3.503906 3.425781 -3.640625 3.03125 -3.640625 C 2.644531 -3.640625 2.320312 -3.503906 2.0625 -3.234375 C 1.8125 -2.960938 1.6875 -2.625 1.6875 -2.21875 C 1.6875 -1.789062 1.8125 -1.441406 2.0625 -1.171875 Z M 2.0625 -1.171875 "/></g></g></g><g fill="#2e4238" fill-opacity="1"><g transform="translate(187.230943, 199.290954)"><g/></g></g><g fill="#2e4238" fill-opacity="1"><g transform="translate(190.463185, 199.290954)"><g><path d="M 4.4375 -4.390625 L 2.4375 0.609375 C 2.164062 1.296875 1.6875 1.640625 1 1.640625 C 0.625 1.640625 0.285156 1.515625 -0.015625 1.265625 L 0.390625 0.53125 C 0.585938 0.675781 0.773438 0.75 0.953125 0.75 C 1.253906 0.75 1.476562 0.585938 1.625 0.265625 L 1.78125 -0.0625 L -0.046875 -4.390625 L 0.9375 -4.390625 L 2.25 -1.0625 L 3.484375 -4.390625 Z M 4.4375 -4.390625 "/></g></g></g><g fill="#2e4238" fill-opacity="1"><g transform="translate(195.951898, 199.290954)"><g><path d="M 2.59375 -4.4375 C 3.269531 -4.4375 3.816406 -4.226562 4.234375 -3.8125 C 4.660156 -3.40625 4.875 -2.867188 4.875 -2.203125 C 4.875 -1.535156 4.660156 -0.992188 4.234375 -0.578125 C 3.816406 -0.171875 3.269531 0.03125 2.59375 0.03125 C 1.90625 0.03125 1.347656 -0.171875 0.921875 -0.578125 C 0.503906 -0.992188 0.296875 -1.535156 0.296875 -2.203125 C 0.296875 -2.867188 0.503906 -3.40625 0.921875 -3.8125 C 1.347656 -4.226562 1.90625 -4.4375 2.59375 -4.4375 Z M 2.59375 -3.609375 C 2.1875 -3.609375 1.859375 -3.472656 1.609375 -3.203125 C 1.359375 -2.941406 1.234375 -2.601562 1.234375 -2.1875 C 1.234375 -1.757812 1.359375 -1.414062 1.609375 -1.15625 C 1.859375 -0.894531 2.179688 -0.765625 2.578125 -0.765625 C 2.984375 -0.765625 3.304688 -0.894531 3.546875 -1.15625 C 3.796875 -1.414062 3.921875 -1.757812 3.921875 -2.1875 C 3.921875 -2.601562 3.796875 -2.941406 3.546875 -3.203125 C 3.296875 -3.472656 2.976562 -3.609375 2.59375 -3.609375 Z M 2.59375 -3.609375 "/></g></g></g><g fill="#2e4238" fill-opacity="1"><g transform="translate(202.217564, 199.290954)"><g><path d="M 4.6875 -4.390625 L 4.6875 0 L 3.75 0 L 3.75 -0.859375 C 3.457031 -0.273438 2.929688 0.0195312 2.171875 0.03125 C 1.671875 0.03125 1.273438 -0.117188 0.984375 -0.421875 C 0.703125 -0.722656 0.5625 -1.132812 0.5625 -1.65625 L 0.5625 -4.390625 L 1.515625 -4.390625 L 1.515625 -1.921875 C 1.515625 -1.597656 1.601562 -1.335938 1.78125 -1.140625 C 1.96875 -0.953125 2.21875 -0.859375 2.53125 -0.859375 C 2.90625 -0.867188 3.203125 -1 3.421875 -1.25 C 3.640625 -1.507812 3.75 -1.835938 3.75 -2.234375 L 3.75 -4.390625 Z M 4.6875 -4.390625 "/></g></g></g><g fill="#2e4238" fill-opacity="1"><g transform="translate(208.714662, 199.290954)"><g><path d="M 1.65625 -4.390625 L 1.65625 -3.515625 C 1.957031 -4.128906 2.460938 -4.4375 3.171875 -4.4375 L 3.171875 -3.515625 C 2.734375 -3.535156 2.378906 -3.429688 2.109375 -3.203125 C 1.847656 -2.984375 1.695312 -2.679688 1.65625 -2.296875 L 1.65625 0 L 0.703125 0 L 0.703125 -4.390625 Z M 1.65625 -4.390625 "/></g></g></g><g fill="#2e4238" fill-opacity="1"><g transform="translate(213.07101, 199.290954)"><g/></g></g><g fill="#2e4238" fill-opacity="1"><g transform="translate(216.303252, 199.290954)"><g><path d="M 2.953125 -1.015625 L 3.1875 -0.28125 C 2.820312 -0.0625 2.460938 0.046875 2.109375 0.046875 C 1.753906 0.046875 1.457031 -0.0625 1.21875 -0.28125 C 0.988281 -0.5 0.875 -0.816406 0.875 -1.234375 L 0.875 -3.515625 L 0.25 -3.515625 L 0.25 -4.234375 L 0.875 -4.234375 L 0.875 -5.4375 L 1.8125 -5.4375 L 1.8125 -4.234375 L 3.109375 -4.234375 L 3.109375 -3.515625 L 1.8125 -3.515625 L 1.8125 -1.40625 C 1.8125 -1.1875 1.847656 -1.03125 1.921875 -0.9375 C 2.003906 -0.851562 2.128906 -0.8125 2.296875 -0.8125 C 2.460938 -0.8125 2.679688 -0.878906 2.953125 -1.015625 Z M 2.953125 -1.015625 "/></g></g></g><g fill="#2e4238" fill-opacity="1"><g transform="translate(220.767049, 199.290954)"><g><path d="M 1.65625 -4.390625 L 1.65625 -3.515625 C 1.957031 -4.128906 2.460938 -4.4375 3.171875 -4.4375 L 3.171875 -3.515625 C 2.734375 -3.535156 2.378906 -3.429688 2.109375 -3.203125 C 1.847656 -2.984375 1.695312 -2.679688 1.65625 -2.296875 L 1.65625 0 L 0.703125 0 L 0.703125 -4.390625 Z M 1.65625 -4.390625 "/></g></g></g><g fill="#2e4238" fill-opacity="1"><g transform="translate(225.123401, 199.290954)"><g><path d="M 3.34375 0 L 3.34375 -0.53125 C 3.03125 -0.144531 2.546875 0.046875 1.890625 0.046875 C 1.421875 0.046875 1.046875 -0.0820312 0.765625 -0.34375 C 0.484375 -0.601562 0.34375 -0.929688 0.34375 -1.328125 C 0.34375 -1.722656 0.488281 -2.039062 0.78125 -2.28125 C 1.070312 -2.519531 1.476562 -2.640625 2 -2.640625 L 3.328125 -2.640625 L 3.328125 -2.78125 C 3.328125 -3.0625 3.238281 -3.273438 3.0625 -3.421875 C 2.882812 -3.578125 2.625 -3.65625 2.28125 -3.65625 C 1.851562 -3.65625 1.421875 -3.507812 0.984375 -3.21875 L 0.59375 -3.875 C 0.925781 -4.070312 1.226562 -4.210938 1.5 -4.296875 C 1.769531 -4.390625 2.097656 -4.4375 2.484375 -4.4375 C 3.046875 -4.4375 3.476562 -4.296875 3.78125 -4.015625 C 4.09375 -3.742188 4.253906 -3.367188 4.265625 -2.890625 L 4.265625 0 Z M 2.078125 -0.703125 C 2.421875 -0.703125 2.707031 -0.78125 2.9375 -0.9375 C 3.175781 -1.101562 3.304688 -1.304688 3.328125 -1.546875 L 3.328125 -1.953125 L 2.140625 -1.953125 C 1.828125 -1.953125 1.597656 -1.90625 1.453125 -1.8125 C 1.304688 -1.71875 1.234375 -1.566406 1.234375 -1.359375 C 1.234375 -1.160156 1.304688 -1 1.453125 -0.875 C 1.609375 -0.757812 1.816406 -0.703125 2.078125 -0.703125 Z M 2.078125 -0.703125 "/></g></g></g><g fill="#2e4238" fill-opacity="1"><g transform="translate(231.066722, 199.290954)"><g><path d="M 3.265625 -4.4375 C 3.785156 -4.4375 4.1875 -4.285156 4.46875 -3.984375 C 4.757812 -3.679688 4.90625 -3.265625 4.90625 -2.734375 L 4.90625 0 L 3.953125 0 L 3.953125 -2.46875 C 3.953125 -2.800781 3.859375 -3.0625 3.671875 -3.25 C 3.484375 -3.4375 3.226562 -3.53125 2.90625 -3.53125 C 2.550781 -3.53125 2.257812 -3.421875 2.03125 -3.203125 C 1.8125 -2.984375 1.6875 -2.695312 1.65625 -2.34375 L 1.65625 0 L 0.703125 0 L 0.703125 -4.390625 L 1.65625 -4.390625 L 1.65625 -3.546875 C 1.945312 -4.140625 2.484375 -4.4375 3.265625 -4.4375 Z M 3.265625 -4.4375 "/></g></g></g><g fill="#2e4238" fill-opacity="1"><g transform="translate(237.646482, 199.290954)"><g><path d="M 2.015625 -4.4375 C 2.617188 -4.4375 3.128906 -4.289062 3.546875 -4 L 3.203125 -3.296875 C 2.785156 -3.546875 2.363281 -3.671875 1.9375 -3.671875 C 1.507812 -3.671875 1.296875 -3.523438 1.296875 -3.234375 C 1.296875 -3.097656 1.375 -2.984375 1.53125 -2.890625 C 1.695312 -2.796875 1.894531 -2.710938 2.125 -2.640625 C 2.351562 -2.578125 2.582031 -2.503906 2.8125 -2.421875 C 3.039062 -2.335938 3.234375 -2.195312 3.390625 -2 C 3.546875 -1.8125 3.625 -1.566406 3.625 -1.265625 C 3.625 -0.847656 3.460938 -0.523438 3.140625 -0.296875 C 2.816406 -0.078125 2.414062 0.03125 1.9375 0.03125 C 1.613281 0.03125 1.289062 -0.0195312 0.96875 -0.125 C 0.65625 -0.238281 0.390625 -0.390625 0.171875 -0.578125 L 0.515625 -1.25 C 0.703125 -1.09375 0.929688 -0.960938 1.203125 -0.859375 C 1.472656 -0.753906 1.734375 -0.703125 1.984375 -0.703125 C 2.203125 -0.703125 2.375 -0.738281 2.5 -0.8125 C 2.632812 -0.894531 2.703125 -1.019531 2.703125 -1.1875 C 2.703125 -1.351562 2.617188 -1.484375 2.453125 -1.578125 C 2.296875 -1.679688 2.101562 -1.757812 1.875 -1.8125 C 1.65625 -1.875 1.429688 -1.945312 1.203125 -2.03125 C 0.984375 -2.113281 0.789062 -2.25 0.625 -2.4375 C 0.46875 -2.632812 0.390625 -2.878906 0.390625 -3.171875 C 0.390625 -3.585938 0.546875 -3.898438 0.859375 -4.109375 C 1.171875 -4.328125 1.554688 -4.4375 2.015625 -4.4375 Z M 2.015625 -4.4375 "/></g></g></g><g fill="#2e4238" fill-opacity="1"><g transform="translate(242.631003, 199.290954)"><g><path d="M 3.34375 0 L 3.34375 -0.53125 C 3.03125 -0.144531 2.546875 0.046875 1.890625 0.046875 C 1.421875 0.046875 1.046875 -0.0820312 0.765625 -0.34375 C 0.484375 -0.601562 0.34375 -0.929688 0.34375 -1.328125 C 0.34375 -1.722656 0.488281 -2.039062 0.78125 -2.28125 C 1.070312 -2.519531 1.476562 -2.640625 2 -2.640625 L 3.328125 -2.640625 L 3.328125 -2.78125 C 3.328125 -3.0625 3.238281 -3.273438 3.0625 -3.421875 C 2.882812 -3.578125 2.625 -3.65625 2.28125 -3.65625 C 1.851562 -3.65625 1.421875 -3.507812 0.984375 -3.21875 L 0.59375 -3.875 C 0.925781 -4.070312 1.226562 -4.210938 1.5 -4.296875 C 1.769531 -4.390625 2.097656 -4.4375 2.484375 -4.4375 C 3.046875 -4.4375 3.476562 -4.296875 3.78125 -4.015625 C 4.09375 -3.742188 4.253906 -3.367188 4.265625 -2.890625 L 4.265625 0 Z M 2.078125 -0.703125 C 2.421875 -0.703125 2.707031 -0.78125 2.9375 -0.9375 C 3.175781 -1.101562 3.304688 -1.304688 3.328125 -1.546875 L 3.328125 -1.953125 L 2.140625 -1.953125 C 1.828125 -1.953125 1.597656 -1.90625 1.453125 -1.8125 C 1.304688 -1.71875 1.234375 -1.566406 1.234375 -1.359375 C 1.234375 -1.160156 1.304688 -1 1.453125 -0.875 C 1.609375 -0.757812 1.816406 -0.703125 2.078125 -0.703125 Z M 2.078125 -0.703125 "/></g></g></g><g fill="#2e4238" fill-opacity="1"><g transform="translate(248.574324, 199.290954)"><g><path d="M 2.5 -4.4375 C 3.289062 -4.4375 3.898438 -4.195312 4.328125 -3.71875 L 3.796875 -3.09375 C 3.472656 -3.4375 3.054688 -3.601562 2.546875 -3.59375 C 2.160156 -3.59375 1.84375 -3.460938 1.59375 -3.203125 C 1.351562 -2.941406 1.234375 -2.601562 1.234375 -2.1875 C 1.234375 -1.78125 1.351562 -1.441406 1.59375 -1.171875 C 1.84375 -0.910156 2.160156 -0.78125 2.546875 -0.78125 C 3.109375 -0.78125 3.539062 -0.957031 3.84375 -1.3125 L 4.375 -0.78125 C 3.957031 -0.238281 3.332031 0.03125 2.5 0.03125 C 1.84375 0.03125 1.3125 -0.171875 0.90625 -0.578125 C 0.5 -0.992188 0.296875 -1.53125 0.296875 -2.1875 C 0.296875 -2.851562 0.5 -3.394531 0.90625 -3.8125 C 1.3125 -4.226562 1.84375 -4.4375 2.5 -4.4375 Z M 2.5 -4.4375 "/></g></g></g><g fill="#2e4238" fill-opacity="1"><g transform="translate(254.335798, 199.290954)"><g><path d="M 2.953125 -1.015625 L 3.1875 -0.28125 C 2.820312 -0.0625 2.460938 0.046875 2.109375 0.046875 C 1.753906 0.046875 1.457031 -0.0625 1.21875 -0.28125 C 0.988281 -0.5 0.875 -0.816406 0.875 -1.234375 L 0.875 -3.515625 L 0.25 -3.515625 L 0.25 -4.234375 L 0.875 -4.234375 L 0.875 -5.4375 L 1.8125 -5.4375 L 1.8125 -4.234375 L 3.109375 -4.234375 L 3.109375 -3.515625 L 1.8125 -3.515625 L 1.8125 -1.40625 C 1.8125 -1.1875 1.847656 -1.03125 1.921875 -0.9375 C 2.003906 -0.851562 2.128906 -0.8125 2.296875 -0.8125 C 2.460938 -0.8125 2.679688 -0.878906 2.953125 -1.015625 Z M 2.953125 -1.015625 "/></g></g></g><g fill="#2e4238" fill-opacity="1"><g transform="translate(258.7996, 199.290954)"><g><path d="M 0.78125 -6.0625 C 0.882812 -6.175781 1.015625 -6.234375 1.171875 -6.234375 C 1.328125 -6.234375 1.457031 -6.175781 1.5625 -6.0625 C 1.675781 -5.957031 1.734375 -5.820312 1.734375 -5.65625 C 1.734375 -5.488281 1.675781 -5.347656 1.5625 -5.234375 C 1.457031 -5.128906 1.328125 -5.078125 1.171875 -5.078125 C 1.015625 -5.078125 0.882812 -5.128906 0.78125 -5.234375 C 0.675781 -5.347656 0.625 -5.488281 0.625 -5.65625 C 0.625 -5.820312 0.675781 -5.957031 0.78125 -6.0625 Z M 1.640625 0 L 0.703125 0 L 0.703125 -4.390625 L 1.640625 -4.390625 Z M 1.640625 0 "/></g></g></g><g fill="#2e4238" fill-opacity="1"><g transform="translate(262.246747, 199.290954)"><g><path d="M 2.59375 -4.4375 C 3.269531 -4.4375 3.816406 -4.226562 4.234375 -3.8125 C 4.660156 -3.40625 4.875 -2.867188 4.875 -2.203125 C 4.875 -1.535156 4.660156 -0.992188 4.234375 -0.578125 C 3.816406 -0.171875 3.269531 0.03125 2.59375 0.03125 C 1.90625 0.03125 1.347656 -0.171875 0.921875 -0.578125 C 0.503906 -0.992188 0.296875 -1.535156 0.296875 -2.203125 C 0.296875 -2.867188 0.503906 -3.40625 0.921875 -3.8125 C 1.347656 -4.226562 1.90625 -4.4375 2.59375 -4.4375 Z M 2.59375 -3.609375 C 2.1875 -3.609375 1.859375 -3.472656 1.609375 -3.203125 C 1.359375 -2.941406 1.234375 -2.601562 1.234375 -2.1875 C 1.234375 -1.757812 1.359375 -1.414062 1.609375 -1.15625 C 1.859375 -0.894531 2.179688 -0.765625 2.578125 -0.765625 C 2.984375 -0.765625 3.304688 -0.894531 3.546875 -1.15625 C 3.796875 -1.414062 3.921875 -1.757812 3.921875 -2.1875 C 3.921875 -2.601562 3.796875 -2.941406 3.546875 -3.203125 C 3.296875 -3.472656 2.976562 -3.609375 2.59375 -3.609375 Z M 2.59375 -3.609375 "/></g></g></g><g fill="#2e4238" fill-opacity="1"><g transform="translate(268.512418, 199.290954)"><g><path d="M 3.265625 -4.4375 C 3.785156 -4.4375 4.1875 -4.285156 4.46875 -3.984375 C 4.757812 -3.679688 4.90625 -3.265625 4.90625 -2.734375 L 4.90625 0 L 3.953125 0 L 3.953125 -2.46875 C 3.953125 -2.800781 3.859375 -3.0625 3.671875 -3.25 C 3.484375 -3.4375 3.226562 -3.53125 2.90625 -3.53125 C 2.550781 -3.53125 2.257812 -3.421875 2.03125 -3.203125 C 1.8125 -2.984375 1.6875 -2.695312 1.65625 -2.34375 L 1.65625 0 L 0.703125 0 L 0.703125 -4.390625 L 1.65625 -4.390625 L 1.65625 -3.546875 C 1.945312 -4.140625 2.484375 -4.4375 3.265625 -4.4375 Z M 3.265625 -4.4375 "/></g></g></g><g fill="#2e4238" fill-opacity="1"><g transform="translate(275.092178, 199.290954)"><g><path d="M 2.015625 -4.4375 C 2.617188 -4.4375 3.128906 -4.289062 3.546875 -4 L 3.203125 -3.296875 C 2.785156 -3.546875 2.363281 -3.671875 1.9375 -3.671875 C 1.507812 -3.671875 1.296875 -3.523438 1.296875 -3.234375 C 1.296875 -3.097656 1.375 -2.984375 1.53125 -2.890625 C 1.695312 -2.796875 1.894531 -2.710938 2.125 -2.640625 C 2.351562 -2.578125 2.582031 -2.503906 2.8125 -2.421875 C 3.039062 -2.335938 3.234375 -2.195312 3.390625 -2 C 3.546875 -1.8125 3.625 -1.566406 3.625 -1.265625 C 3.625 -0.847656 3.460938 -0.523438 3.140625 -0.296875 C 2.816406 -0.078125 2.414062 0.03125 1.9375 0.03125 C 1.613281 0.03125 1.289062 -0.0195312 0.96875 -0.125 C 0.65625 -0.238281 0.390625 -0.390625 0.171875 -0.578125 L 0.515625 -1.25 C 0.703125 -1.09375 0.929688 -0.960938 1.203125 -0.859375 C 1.472656 -0.753906 1.734375 -0.703125 1.984375 -0.703125 C 2.203125 -0.703125 2.375 -0.738281 2.5 -0.8125 C 2.632812 -0.894531 2.703125 -1.019531 2.703125 -1.1875 C 2.703125 -1.351562 2.617188 -1.484375 2.453125 -1.578125 C 2.296875 -1.679688 2.101562 -1.757812 1.875 -1.8125 C 1.65625 -1.875 1.429688 -1.945312 1.203125 -2.03125 C 0.984375 -2.113281 0.789062 -2.25 0.625 -2.4375 C 0.46875 -2.632812 0.390625 -2.878906 0.390625 -3.171875 C 0.390625 -3.585938 0.546875 -3.898438 0.859375 -4.109375 C 1.171875 -4.328125 1.554688 -4.4375 2.015625 -4.4375 Z M 2.015625 -4.4375 "/></g></g></g><g fill="#2e4238" fill-opacity="1"><g transform="translate(280.076699, 199.290954)"><g/></g></g><g fill="#2e4238" fill-opacity="1"><g transform="translate(283.308946, 199.290954)"><g><path d="M 5.8125 0 L 4.828125 0 L 3.71875 -3.25 L 2.609375 0 L 1.625 0 L 0.015625 -4.390625 L 0.984375 -4.390625 L 2.125 -0.9375 L 3.234375 -4.390625 L 4.21875 -4.390625 L 5.328125 -0.9375 L 6.453125 -4.390625 L 7.421875 -4.390625 Z M 5.8125 0 "/></g></g></g><g fill="#2e4238" fill-opacity="1"><g transform="translate(291.789764, 199.290954)"><g><path d="M 0.78125 -6.0625 C 0.882812 -6.175781 1.015625 -6.234375 1.171875 -6.234375 C 1.328125 -6.234375 1.457031 -6.175781 1.5625 -6.0625 C 1.675781 -5.957031 1.734375 -5.820312 1.734375 -5.65625 C 1.734375 -5.488281 1.675781 -5.347656 1.5625 -5.234375 C 1.457031 -5.128906 1.328125 -5.078125 1.171875 -5.078125 C 1.015625 -5.078125 0.882812 -5.128906 0.78125 -5.234375 C 0.675781 -5.347656 0.625 -5.488281 0.625 -5.65625 C 0.625 -5.820312 0.675781 -5.957031 0.78125 -6.0625 Z M 1.640625 0 L 0.703125 0 L 0.703125 -4.390625 L 1.640625 -4.390625 Z M 1.640625 0 "/></g></g></g><g fill="#2e4238" fill-opacity="1"><g transform="translate(295.236911, 199.290954)"><g><path d="M 2.953125 -1.015625 L 3.1875 -0.28125 C 2.820312 -0.0625 2.460938 0.046875 2.109375 0.046875 C 1.753906 0.046875 1.457031 -0.0625 1.21875 -0.28125 C 0.988281 -0.5 0.875 -0.816406 0.875 -1.234375 L 0.875 -3.515625 L 0.25 -3.515625 L 0.25 -4.234375 L 0.875 -4.234375 L 0.875 -5.4375 L 1.8125 -5.4375 L 1.8125 -4.234375 L 3.109375 -4.234375 L 3.109375 -3.515625 L 1.8125 -3.515625 L 1.8125 -1.40625 C 1.8125 -1.1875 1.847656 -1.03125 1.921875 -0.9375 C 2.003906 -0.851562 2.128906 -0.8125 2.296875 -0.8125 C 2.460938 -0.8125 2.679688 -0.878906 2.953125 -1.015625 Z M 2.953125 -1.015625 "/></g></g></g><g fill="#2e4238" fill-opacity="1"><g transform="translate(299.700704, 199.290954)"><g><path d="M 3.328125 -4.4375 C 3.835938 -4.4375 4.234375 -4.285156 4.515625 -3.984375 C 4.804688 -3.679688 4.953125 -3.265625 4.953125 -2.734375 L 4.953125 0 L 4.015625 0 L 4.015625 -2.46875 C 4.015625 -2.800781 3.921875 -3.0625 3.734375 -3.25 C 3.546875 -3.4375 3.285156 -3.53125 2.953125 -3.53125 C 2.566406 -3.53125 2.257812 -3.398438 2.03125 -3.140625 C 1.800781 -2.890625 1.6875 -2.566406 1.6875 -2.171875 L 1.6875 0 L 0.75 0 L 0.75 -6.140625 L 1.6875 -6.140625 L 1.6875 -3.53125 C 2 -4.132812 2.546875 -4.4375 3.328125 -4.4375 Z M 3.328125 -4.4375 "/></g></g></g><g fill="#2e4238" fill-opacity="1"><g transform="translate(306.330059, 199.290954)"><g/></g></g><g fill="#2e4238" fill-opacity="1"><g transform="translate(309.562306, 199.290954)"><g><path d="M 6.359375 -0.046875 L 6.75 0.640625 C 6.269531 1.054688 5.75 1.265625 5.1875 1.265625 C 4.820312 1.265625 4.476562 1.15625 4.15625 0.9375 C 3.84375 0.726562 3.570312 0.429688 3.34375 0.046875 C 2.476562 0.0351562 1.75 -0.25 1.15625 -0.8125 C 0.570312 -1.375 0.28125 -2.066406 0.28125 -2.890625 C 0.28125 -3.722656 0.570312 -4.414062 1.15625 -4.96875 C 1.75 -5.53125 2.476562 -5.8125 3.34375 -5.8125 C 4.207031 -5.8125 4.9375 -5.53125 5.53125 -4.96875 C 6.125 -4.414062 6.421875 -3.722656 6.421875 -2.890625 C 6.421875 -2.234375 6.226562 -1.648438 5.84375 -1.140625 C 5.457031 -0.640625 4.953125 -0.296875 4.328125 -0.109375 C 4.660156 0.253906 4.984375 0.4375 5.296875 0.4375 C 5.597656 0.4375 5.953125 0.273438 6.359375 -0.046875 Z M 1.875 -4.34375 C 1.46875 -3.945312 1.265625 -3.460938 1.265625 -2.890625 C 1.265625 -2.316406 1.46875 -1.828125 1.875 -1.421875 C 2.289062 -1.023438 2.78125 -0.828125 3.34375 -0.828125 C 3.914062 -0.828125 4.398438 -1.023438 4.796875 -1.421875 C 5.203125 -1.828125 5.40625 -2.316406 5.40625 -2.890625 C 5.40625 -3.460938 5.203125 -3.945312 4.796875 -4.34375 C 4.398438 -4.738281 3.921875 -4.9375 3.359375 -4.9375 C 2.785156 -4.9375 2.289062 -4.738281 1.875 -4.34375 Z M 1.875 -4.34375 "/></g></g></g><g fill="#2e4238" fill-opacity="1"><g transform="translate(317.481062, 199.290954)"><g><path d="M 4.6875 -4.390625 L 4.6875 0 L 3.75 0 L 3.75 -0.859375 C 3.457031 -0.273438 2.929688 0.0195312 2.171875 0.03125 C 1.671875 0.03125 1.273438 -0.117188 0.984375 -0.421875 C 0.703125 -0.722656 0.5625 -1.132812 0.5625 -1.65625 L 0.5625 -4.390625 L 1.515625 -4.390625 L 1.515625 -1.921875 C 1.515625 -1.597656 1.601562 -1.335938 1.78125 -1.140625 C 1.96875 -0.953125 2.21875 -0.859375 2.53125 -0.859375 C 2.90625 -0.867188 3.203125 -1 3.421875 -1.25 C 3.640625 -1.507812 3.75 -1.835938 3.75 -2.234375 L 3.75 -4.390625 Z M 4.6875 -4.390625 "/></g></g></g><g fill="#2e4238" fill-opacity="1"><g transform="translate(323.978165, 199.290954)"><g><path d="M 0.78125 -6.0625 C 0.882812 -6.175781 1.015625 -6.234375 1.171875 -6.234375 C 1.328125 -6.234375 1.457031 -6.175781 1.5625 -6.0625 C 1.675781 -5.957031 1.734375 -5.820312 1.734375 -5.65625 C 1.734375 -5.488281 1.675781 -5.347656 1.5625 -5.234375 C 1.457031 -5.128906 1.328125 -5.078125 1.171875 -5.078125 C 1.015625 -5.078125 0.882812 -5.128906 0.78125 -5.234375 C 0.675781 -5.347656 0.625 -5.488281 0.625 -5.65625 C 0.625 -5.820312 0.675781 -5.957031 0.78125 -6.0625 Z M 1.640625 0 L 0.703125 0 L 0.703125 -4.390625 L 1.640625 -4.390625 Z M 1.640625 0 "/></g></g></g><g fill="#2e4238" fill-opacity="1"><g transform="translate(327.425312, 199.290954)"><g><path d="M 2.5 -4.4375 C 3.289062 -4.4375 3.898438 -4.195312 4.328125 -3.71875 L 3.796875 -3.09375 C 3.472656 -3.4375 3.054688 -3.601562 2.546875 -3.59375 C 2.160156 -3.59375 1.84375 -3.460938 1.59375 -3.203125 C 1.351562 -2.941406 1.234375 -2.601562 1.234375 -2.1875 C 1.234375 -1.78125 1.351562 -1.441406 1.59375 -1.171875 C 1.84375 -0.910156 2.160156 -0.78125 2.546875 -0.78125 C 3.109375 -0.78125 3.539062 -0.957031 3.84375 -1.3125 L 4.375 -0.78125 C 3.957031 -0.238281 3.332031 0.03125 2.5 0.03125 C 1.84375 0.03125 1.3125 -0.171875 0.90625 -0.578125 C 0.5 -0.992188 0.296875 -1.53125 0.296875 -2.1875 C 0.296875 -2.851562 0.5 -3.394531 0.90625 -3.8125 C 1.3125 -4.226562 1.84375 -4.4375 2.5 -4.4375 Z M 2.5 -4.4375 "/></g></g></g><g fill="#2e4238" fill-opacity="1"><g transform="translate(333.186776, 199.290954)"><g><path d="M 2.4375 -2.015625 L 1.6875 -1.234375 L 1.6875 0 L 0.75 0 L 0.75 -6.140625 L 1.6875 -6.140625 L 1.6875 -2.4375 L 3.640625 -4.390625 L 4.734375 -4.390625 L 3.09375 -2.6875 L 4.859375 0 L 3.734375 0 Z M 2.4375 -2.015625 "/></g></g></g><g fill="#2e4238" fill-opacity="1"><g transform="translate(339.204474, 199.290954)"><g><path d="M 2.65625 -5.828125 C 3.40625 -5.828125 4.082031 -5.628906 4.6875 -5.234375 L 4.28125 -4.375 C 3.6875 -4.726562 3.125 -4.90625 2.59375 -4.90625 C 2.300781 -4.90625 2.066406 -4.851562 1.890625 -4.75 C 1.722656 -4.644531 1.640625 -4.492188 1.640625 -4.296875 C 1.640625 -4.109375 1.71875 -3.945312 1.875 -3.8125 C 2.03125 -3.675781 2.222656 -3.578125 2.453125 -3.515625 C 2.679688 -3.453125 2.929688 -3.367188 3.203125 -3.265625 C 3.472656 -3.171875 3.722656 -3.070312 3.953125 -2.96875 C 4.191406 -2.863281 4.382812 -2.695312 4.53125 -2.46875 C 4.6875 -2.238281 4.765625 -1.960938 4.765625 -1.640625 C 4.765625 -1.128906 4.5625 -0.722656 4.15625 -0.421875 C 3.75 -0.117188 3.222656 0.03125 2.578125 0.03125 C 2.140625 0.03125 1.710938 -0.0507812 1.296875 -0.21875 C 0.878906 -0.382812 0.519531 -0.609375 0.21875 -0.890625 L 0.640625 -1.734375 C 0.929688 -1.460938 1.25 -1.253906 1.59375 -1.109375 C 1.945312 -0.960938 2.28125 -0.890625 2.59375 -0.890625 C 2.9375 -0.890625 3.203125 -0.945312 3.390625 -1.0625 C 3.578125 -1.1875 3.671875 -1.363281 3.671875 -1.59375 C 3.671875 -1.789062 3.59375 -1.957031 3.4375 -2.09375 C 3.289062 -2.226562 3.097656 -2.328125 2.859375 -2.390625 C 2.628906 -2.453125 2.378906 -2.523438 2.109375 -2.609375 C 1.847656 -2.703125 1.597656 -2.800781 1.359375 -2.90625 C 1.128906 -3.007812 0.9375 -3.171875 0.78125 -3.390625 C 0.625 -3.617188 0.546875 -3.894531 0.546875 -4.21875 C 0.546875 -4.707031 0.738281 -5.097656 1.125 -5.390625 C 1.519531 -5.679688 2.03125 -5.828125 2.65625 -5.828125 Z M 2.65625 -5.828125 "/></g></g></g><g fill="#2e4238" fill-opacity="1"><g transform="translate(345.445343, 199.290954)"><g><path d="M 3.34375 0 L 3.34375 -0.53125 C 3.03125 -0.144531 2.546875 0.046875 1.890625 0.046875 C 1.421875 0.046875 1.046875 -0.0820312 0.765625 -0.34375 C 0.484375 -0.601562 0.34375 -0.929688 0.34375 -1.328125 C 0.34375 -1.722656 0.488281 -2.039062 0.78125 -2.28125 C 1.070312 -2.519531 1.476562 -2.640625 2 -2.640625 L 3.328125 -2.640625 L 3.328125 -2.78125 C 3.328125 -3.0625 3.238281 -3.273438 3.0625 -3.421875 C 2.882812 -3.578125 2.625 -3.65625 2.28125 -3.65625 C 1.851562 -3.65625 1.421875 -3.507812 0.984375 -3.21875 L 0.59375 -3.875 C 0.925781 -4.070312 1.226562 -4.210938 1.5 -4.296875 C 1.769531 -4.390625 2.097656 -4.4375 2.484375 -4.4375 C 3.046875 -4.4375 3.476562 -4.296875 3.78125 -4.015625 C 4.09375 -3.742188 4.253906 -3.367188 4.265625 -2.890625 L 4.265625 0 Z M 2.078125 -0.703125 C 2.421875 -0.703125 2.707031 -0.78125 2.9375 -0.9375 C 3.175781 -1.101562 3.304688 -1.304688 3.328125 -1.546875 L 3.328125 -1.953125 L 2.140625 -1.953125 C 1.828125 -1.953125 1.597656 -1.90625 1.453125 -1.8125 C 1.304688 -1.71875 1.234375 -1.566406 1.234375 -1.359375 C 1.234375 -1.160156 1.304688 -1 1.453125 -0.875 C 1.609375 -0.757812 1.816406 -0.703125 2.078125 -0.703125 Z M 2.078125 -0.703125 "/></g></g></g><g fill="#2e4238" fill-opacity="1"><g transform="translate(351.388664, 199.290954)"><g><path d="M 1.6875 0 L 0.75 0 L 0.75 -6.140625 L 1.6875 -6.140625 Z M 1.6875 0 "/></g></g></g><g fill="#2e4238" fill-opacity="1"><g transform="translate(354.92673, 199.290954)"><g><path d="M 2.515625 -4.4375 C 3.265625 -4.4375 3.804688 -4.207031 4.140625 -3.75 C 4.484375 -3.289062 4.628906 -2.648438 4.578125 -1.828125 L 1.25 -1.828125 C 1.320312 -1.492188 1.476562 -1.226562 1.71875 -1.03125 C 1.96875 -0.832031 2.265625 -0.734375 2.609375 -0.734375 C 3.109375 -0.734375 3.523438 -0.90625 3.859375 -1.25 L 4.359375 -0.703125 C 3.898438 -0.210938 3.289062 0.03125 2.53125 0.03125 C 1.851562 0.03125 1.3125 -0.171875 0.90625 -0.578125 C 0.5 -0.992188 0.296875 -1.53125 0.296875 -2.1875 C 0.296875 -2.851562 0.5 -3.390625 0.90625 -3.796875 C 1.320312 -4.210938 1.859375 -4.425781 2.515625 -4.4375 Z M 1.234375 -2.53125 L 3.75 -2.53125 C 3.726562 -2.882812 3.609375 -3.160156 3.390625 -3.359375 C 3.171875 -3.566406 2.878906 -3.671875 2.515625 -3.671875 C 2.171875 -3.671875 1.882812 -3.566406 1.65625 -3.359375 C 1.425781 -3.160156 1.285156 -2.882812 1.234375 -2.53125 Z M 1.234375 -2.53125 "/></g></g></g><g fill="#2e4238" fill-opacity="1"><g transform="translate(360.886572, 199.290954)"><g><path d="M 1.4375 -4.296875 L 1.296875 -1.84375 L 0.6875 -1.84375 L 0.53125 -4.296875 L 0.53125 -5.71875 L 1.4375 -5.71875 Z M 0.609375 -0.859375 C 0.710938 -0.960938 0.835938 -1.015625 0.984375 -1.015625 C 1.140625 -1.015625 1.265625 -0.960938 1.359375 -0.859375 C 1.460938 -0.753906 1.515625 -0.628906 1.515625 -0.484375 C 1.515625 -0.316406 1.460938 -0.179688 1.359375 -0.078125 C 1.265625 0.0234375 1.140625 0.078125 0.984375 0.078125 C 0.835938 0.078125 0.710938 0.0234375 0.609375 -0.078125 C 0.515625 -0.179688 0.46875 -0.316406 0.46875 -0.484375 C 0.46875 -0.628906 0.515625 -0.753906 0.609375 -0.859375 Z M 0.609375 -0.859375 "/></g></g></g><g fill="#2e4238" fill-opacity="1"><g transform="translate(251.440666, 210.453729)"><g/></g></g><g fill="#2e4238" fill-opacity="1"><g transform="translate(251.440666, 221.616504)"><g/></g></g></svg>